<svg width="50" height="50" viewBox="0 0 50 50" fill="none" xmlns="http://www.w3.org/2000/svg">
<g clip-path="url(#clip0_106_66)">
<path d="M39.8152 25.0001C39.8152 33.1875 33.1877 39.8149 25.0004 39.8149V25.0001H39.8152ZM25.0004 10.1853V25.0001H10.1855C10.1855 16.8128 16.813 10.1853 25.0004 10.1853Z" fill="black" fill-opacity="0.25"/>
<path d="M25.0004 10.1853C33.1877 10.1853 39.8152 16.8128 39.8152 25.0001H25.0004V10.1853ZM10.1855 25.0001H25.0004V39.8149C16.813 39.8149 10.1855 33.1875 10.1855 25.0001Z" fill="white"/>
<path d="M25 10.1852V10.9975C32.7203 10.9975 39.0025 17.2783 39.0025 25H39.8148C39.8148 16.8185 33.1815 10.1852 25 10.1852ZM25 39.0025C17.2797 39.0025 10.9975 32.7217 10.9975 25H10.1852C10.1852 33.1815 16.8185 39.8148 25 39.8148M25 0C11.1933 0 0 11.1933 0 25C0 38.8067 11.1933 50 25 50C38.8067 50 50 38.8067 50 25C50 11.1933 38.8067 0 25 0ZM48.3743 25C48.3743 37.9086 37.9101 48.3743 25 48.3743C12.0899 48.3743 1.62571 37.9086 1.62571 25C1.62571 12.0914 12.0914 1.62571 25 1.62571C37.9086 1.62571 48.3743 12.0914 48.3743 25Z" fill="black" fill-opacity="0.25"/>
<path d="M14.3166 12.9395C15.1155 12.1038 15.5678 11.1384 14.7689 10.2166C14.3342 9.71639 13.6044 9.60701 12.9993 9.85349L12.9391 9.87682L12.9582 9.82432C13.0478 9.5866 13.1051 8.82822 12.4545 8.30465C12.1373 8.04942 11.7393 7.95463 11.3369 7.99546C10.5865 8.0713 10.0094 8.58029 8.43805 10.3202C7.96372 10.8452 7.2735 11.6736 6.85938 12.2103L11.1754 16.2764C12.6058 14.7042 13.1888 14.1194 14.3166 12.9395ZM8.68477 11.9449C9.55414 10.889 10.4779 9.93078 10.8964 9.55159C11.0286 9.432 11.1725 9.31241 11.3472 9.26574C11.6307 9.18845 11.9229 9.38825 11.989 9.67702C12.0551 9.96724 11.8715 10.2429 11.6674 10.4704C11.2077 10.9852 9.52184 12.7368 9.52184 12.7368L8.68477 11.9449ZM10.3751 13.5375C10.3751 13.5375 12.0169 11.8136 12.5529 11.2623C12.7658 11.0436 12.9024 10.9108 13.0493 10.8394C13.2387 10.7475 13.4458 10.7285 13.6308 10.851C13.8129 10.9721 13.8966 11.1806 13.8511 11.3877C13.7968 11.6342 13.5941 11.869 13.4267 12.0484C13.2005 12.289 11.2532 14.3585 11.2503 14.3615L10.3751 13.5375ZM25.4937 8.09026L26.8756 5.01591L26.9637 4.74319L26.9387 5.02758L27.0841 9.13594C27.5687 9.18116 28.0695 9.24824 28.5629 9.32991L28.3382 3.24539C27.648 3.16956 26.9607 3.11559 26.2735 3.08643L24.9121 6.44225L24.8637 6.69164L24.8152 6.44225L23.4553 3.08643C22.7681 3.11559 22.0808 3.16956 21.3906 3.24539L21.1659 9.32991C21.6593 9.24824 22.1601 9.18261 22.6447 9.13594L22.7901 5.02758L22.7651 4.74319L22.8532 5.01591L24.2351 8.09026H25.4937ZM36.9703 14.4504C37.3095 14.8121 37.7985 15.3955 38.0732 15.7499L43.1308 12.5618C42.8782 12.2336 42.4758 11.7348 42.1748 11.3834L38.9719 13.4864L38.7531 13.6731L38.9161 13.4368L40.3303 10.6337L39.3302 9.64056L36.5062 11.045L36.2683 11.2069L36.4578 10.9896L38.5769 7.81024C38.2039 7.49522 37.8455 7.20646 37.3888 6.85644L34.1786 11.8749C34.5854 12.1855 35.1214 12.642 35.4636 12.9526L38.4858 11.395L38.6797 11.2536L38.5372 11.4461L36.9703 14.4504Z" fill="black" fill-opacity="0.25"/>
</g>
<defs>
<clipPath id="clip0_106_66">
<rect width="50" height="50" fill="white"/>
</clipPath>
</defs>
</svg>
