<svg width="49" height="32" viewBox="0 0 49 32" fill="none" xmlns="http://www.w3.org/2000/svg">
<path fill-rule="evenodd" clip-rule="evenodd" d="M27.8414 17.9157V25.6852H35.7827C37.977 25.6852 39.756 23.9459 39.756 21.8003C39.756 19.655 37.977 17.9157 35.7827 17.9157H27.8414ZM36.9811 6.28556L27.8414 6.30487V11.6108H36.9811C38.5132 11.6108 39.756 10.2962 39.756 8.89704C39.756 7.49774 38.5132 6.28556 36.9811 6.28556ZM0 0H40.4537C45.1655 0 48.9844 3.73391 48.9844 8.34C48.9844 10.643 48.031 12.728 46.4864 14.2374L45.0448 15.1877L46.1846 15.9388C47.9138 17.6306 49.1548 19.1417 48.9844 22.5492C48.9844 27.7122 44.7039 32 39.4222 32L0 31.9901V21.1214H5.75577V25.6852H19.5735V17.9155H14.7036V20.1807H8.94967V9.31218H14.7036V11.6108H19.5735V6.30487H5.75577V10.8687H0V0Z" fill="black" fill-opacity="0.25"/>
</svg>
