<svg width="24" height="24" viewBox="0 0 24 24" fill="none" xmlns="http://www.w3.org/2000/svg">
<path fill-rule="evenodd" clip-rule="evenodd" d="M16.7064 9.29303C16.8939 9.48056 16.9992 9.73487 16.9992 10C16.9992 10.2652 16.8939 10.5195 16.7064 10.707L11.9994 15.414L7.29243 10.707C7.11027 10.5184 7.00948 10.2658 7.01176 10.0036C7.01403 9.74143 7.1192 9.49062 7.30461 9.30521C7.49002 9.1198 7.74083 9.01464 8.00303 9.01236C8.26523 9.01008 8.51783 9.11087 8.70643 9.29303L11.9994 12.586L15.2924 9.29303C15.48 9.10556 15.7343 9.00024 15.9994 9.00024C16.2646 9.00024 16.5189 9.10556 16.7064 9.29303Z" fill="black" fill-opacity="0.5"/>
</svg>
