<svg width="50" height="50" viewBox="0 0 50 50" fill="none" xmlns="http://www.w3.org/2000/svg">
<path d="M46.4638 22.6177L41.8938 15.1149C41.5593 14.5701 41.0892 14.1193 40.5284 13.8057C39.9677 13.492 39.335 13.326 38.6909 13.3234H35.1029V12.7961C35.103 12.0346 34.9511 11.2806 34.6559 10.5774C34.3606 9.87424 33.928 9.2357 33.3827 8.69847C32.2805 7.61139 30.7881 7.00073 29.2321 7.00013H7.87317C6.71068 6.99251 5.57234 7.32841 4.60384 7.96483C3.63534 8.60125 2.88074 9.50924 2.43663 10.5726C2.14278 11.2775 1.99438 12.0335 2.00016 12.7961V31.7659C2.00137 32.6568 2.32867 33.5172 2.92146 34.1876C3.51426 34.858 4.33241 35.2932 5.22443 35.4125C5.21445 35.6031 5.21445 35.793 5.22443 35.9821C5.21682 36.8803 5.39255 37.7707 5.74108 38.6C6.08961 39.4293 6.60376 40.1804 7.2527 40.8082C7.88949 41.4643 8.65173 41.9884 9.49507 42.3501C10.3384 42.7118 11.246 42.904 12.1651 42.9153C13.9994 42.8988 15.7542 42.1721 17.0539 40.8908C18.3523 39.6116 19.0901 37.878 19.1078 36.0647C19.1188 35.8898 19.1188 35.7144 19.1078 35.5396H30.8945C30.8835 35.7144 30.8835 35.8898 30.8945 36.0647C30.8866 36.9632 31.0622 37.8541 31.4107 38.6837C31.7592 39.5134 32.2736 40.2649 32.9228 40.8929C33.56 41.5495 34.323 42.0739 35.1671 42.4356C36.0112 42.7974 36.9196 42.9892 37.8394 43C39.6737 42.9835 41.4286 42.2568 42.7282 40.9755C44.0259 39.6959 44.7629 37.9624 44.78 36.1494C44.7911 35.9738 44.7911 35.7977 44.78 35.6221H46.3975C46.8195 35.6162 47.2227 35.448 47.5217 35.1532C47.8208 34.8584 47.9923 34.4601 48 34.0424V27.9521C48 26.0674 47.4673 24.2208 46.4638 22.6177ZM15.8814 35.98C15.882 36.4641 15.784 36.9433 15.5932 37.3891C15.4025 37.8348 15.1228 38.2378 14.771 38.5741C14.0592 39.2436 13.1148 39.6168 12.133 39.6168C11.1511 39.6168 10.2067 39.2436 9.49493 38.5741C9.14798 38.2315 8.87325 37.824 8.68667 37.3755C8.50009 36.9269 8.40539 36.4461 8.40805 35.961C8.39799 35.4601 8.5003 34.9632 8.70758 34.5062C8.99 33.8433 9.47567 33.2843 10.094 32.9031C10.7264 32.4894 11.4714 32.2766 12.2292 32.2932C12.9524 32.2932 13.6584 32.505 14.2575 32.9031C14.8716 33.2906 15.3551 33.8476 15.6482 34.5062C15.8579 34.9614 15.9691 35.4591 15.967 35.961L15.8814 35.98ZM22.822 25.4427H12.1458C11.5806 25.4421 11.0385 25.2202 10.6381 24.8254C10.2376 24.4306 10.0112 23.895 10.0084 23.3356C10.0078 23.0581 10.0627 22.7832 10.1699 22.5268C10.277 22.2704 10.4344 22.0375 10.6328 21.8414C10.8313 21.6454 11.0669 21.4902 11.3262 21.3846C11.5855 21.2791 11.8633 21.2253 12.1437 21.2264H22.822C23.3873 21.2275 23.9291 21.45 24.3291 21.8452C24.7292 22.2404 24.955 22.7762 24.9573 23.3356C24.9576 23.6129 24.9025 23.8876 24.7952 24.1437C24.6879 24.3999 24.5306 24.6326 24.3321 24.8284C24.1337 25.0242 23.8982 25.1792 23.639 25.2847C23.3799 25.3901 23.1022 25.4438 22.822 25.4427ZM22.822 18.1919H12.1458C11.5806 18.1913 11.0385 17.9694 10.6381 17.5746C10.2376 17.1798 10.0112 16.6442 10.0084 16.0848C10.0081 15.8075 10.0632 15.5328 10.1705 15.2767C10.2778 15.0205 10.4352 14.7878 10.6336 14.592C10.832 14.3962 11.0675 14.2412 11.3267 14.1357C11.5858 14.0303 11.8635 13.9766 12.1437 13.9777H22.822C23.3869 13.9789 23.9284 14.201 24.3284 14.5957C24.7284 14.9905 24.9545 15.5257 24.9573 16.0848C24.9576 16.3621 24.9025 16.6368 24.7952 16.8929C24.6879 17.1491 24.5306 17.3818 24.3321 17.5776C24.1337 17.7734 23.8982 17.9284 23.639 18.0339C23.3799 18.1393 23.1022 18.193 22.822 18.1919ZM41.5087 35.98C41.509 36.4643 41.4107 36.9436 41.2195 37.3893C41.0284 37.835 40.7483 38.238 40.3961 38.5741C39.6844 39.2429 38.7405 39.6158 37.7592 39.6158C36.7778 39.6158 35.8339 39.2429 35.1222 38.5741C34.7749 38.2317 34.4997 37.8243 34.3128 37.3757C34.1258 36.9271 34.0308 36.4462 34.0332 35.961C34.0241 35.1931 34.2724 34.444 34.7392 33.8306C35.2655 33.1382 36.0208 32.6447 36.8745 32.4393H37.4093C37.5071 32.4163 37.609 32.4163 37.7067 32.4393H38.1346C38.7829 32.5135 39.4012 32.7527 39.9276 33.136C40.456 33.5193 40.869 34.036 41.1236 34.6332C41.3354 35.0885 41.4445 35.5861 41.4445 36.0859L41.5087 35.98Z" fill="#FD375F"/>
<path d="M37.4167 32.1542C37.3208 32.1312 37.2209 32.1312 37.125 32.1542H37.4167Z" fill="#FD375F"/>
</svg>
