<svg width="48" height="58" viewBox="0 0 48 58" fill="none" xmlns="http://www.w3.org/2000/svg">
<path fill-rule="evenodd" clip-rule="evenodd" d="M23.6387 0.811279C37.1655 0.811279 45.0862 4.61785 46.37 5.28533V17.3645C46.37 23.95 44.8189 30.5103 41.7619 36.867C35.0704 50.751 25.0016 56.2027 23.5933 56.9141C22.1839 56.2027 12.1075 50.751 5.41787 36.867C2.36085 30.5103 0.810181 23.95 0.810181 17.3645V5.28678C2.10555 4.62003 10.1094 0.811279 23.6387 0.811279Z" fill="white"/>
<path fill-rule="evenodd" clip-rule="evenodd" d="M0.20444 4.68831L-1.52588e-05 4.80416V17.3645C-1.52588e-05 24.0734 1.57716 30.7529 4.68793 37.2167C11.9906 52.3783 23.3123 57.6822 23.4256 57.7341L23.5933 57.8108L23.7608 57.7341C23.8751 57.6822 35.1874 52.3769 42.4897 37.2167C45.6019 30.7529 47.1794 24.0734 47.1794 17.3645V4.80525L46.9772 4.68904C46.8936 4.64292 38.6188 0 23.6387 0C8.65974 0 0.287602 4.64183 0.20444 4.68831ZM23.6387 0.811284C37.1655 0.811284 45.0862 4.61786 46.37 5.28534V17.3645C46.37 23.95 44.8189 30.5103 41.7619 36.867C35.0704 50.7511 25.0016 56.2027 23.5933 56.9141C22.1839 56.2027 12.1075 50.7511 5.41787 36.867C2.36084 30.5103 0.81018 23.95 0.81018 17.3645V5.28679C2.10555 4.62004 10.1095 0.811284 23.6387 0.811284Z" fill="black" fill-opacity="0.25"/>
<path fill-rule="evenodd" clip-rule="evenodd" d="M27.1817 45.209C27.5746 45.4806 27.2895 45.9524 26.9986 46.0261C26.6958 46.1085 26.4368 45.7722 26.2901 46.1408C26.2077 46.3388 26.4314 47.8382 27.9653 47.8382C29.3973 47.8382 30.0804 45.9999 30.2151 45.7232C30.3505 45.4472 30.4377 45.095 30.3022 45.095C29.674 45.095 29.491 45.4679 29.491 45.4679C29.491 45.4679 29.4434 45.1091 29.7557 44.8382C30.0132 44.617 30.3509 44.6708 30.4729 44.6708C30.7289 44.6708 30.6886 44.4801 30.8433 44.1028C31.196 43.2149 31.4385 43.175 31.6677 42.77C31.8576 42.4403 31.4988 42.311 30.791 42.2446C30.0811 42.177 29.7009 42.2057 29.3838 42.2518C29.0661 42.2972 28.7498 42.4261 28.5526 42.912C28.4469 43.1753 28.6404 43.4346 29.0123 43.3674C29.3838 43.2981 29.7415 43.017 29.7415 43.017C29.7415 43.017 29.5741 43.6823 29.0196 43.8199C28.5054 43.9463 27.8982 43.6362 27.9799 43.1158C28.0863 42.4407 28.5529 41.946 29.4042 41.7794C30.2568 41.6076 31.1066 41.7391 31.8645 41.9253C32.6199 42.116 33.1759 42.0005 33.8782 41.9595C35.3926 41.8785 36.3309 41.5212 36.3309 41.5212C36.3309 41.5212 35.6486 42.075 34.7026 42.331C33.7566 42.5892 32.9129 42.4821 32.6399 42.5892C32.4194 42.6836 32.1078 43.1212 31.8511 43.6213C31.615 44.081 31.3637 44.6109 31.4723 44.6109C32.3519 44.6443 32.674 44.4518 32.674 44.4518C32.674 44.4518 32.5 44.8313 32.081 45.0107C31.7901 45.1284 31.2966 45.1284 31.2966 45.1284C31.2966 45.1284 31.0747 45.6902 30.8248 46.1971C30.5732 46.7037 30.161 47.495 29.419 47.8865C28.6742 48.2773 27.2499 48.7646 26.3529 47.4743C25.404 46.1209 26.2701 44.5811 27.1817 45.209ZM16.169 45.3855C16.3441 45.8336 15.9722 46.0671 15.7561 46.0671C15.5393 46.0671 15.2695 45.9062 15.2132 46.1771C15.1616 46.4459 15.7888 47.832 17.248 47.832C18.7078 47.832 19.3844 46.9873 19.2816 46.2305C19.1672 45.3858 17.8254 45.0503 16.7559 44.4878C16.2326 44.2132 15.0498 44.0295 15.0498 42.9222C15.0498 40.5581 18.6476 42.0681 18.6476 42.0681C18.6476 42.0681 18.6552 41.7725 18.8226 41.7587C18.9036 41.751 19.0663 41.7191 19.1204 41.9864C19.1738 42.2558 19.4116 43.6757 19.4116 43.6757C19.4116 43.6757 18.8829 42.5946 17.4317 42.1225C17.175 42.0325 16.0525 41.8189 16.059 42.7076C16.0724 43.2352 16.7156 43.472 17.8305 43.9049C19.2958 44.4794 20.0464 45.0143 19.7003 46.5548C19.371 48.034 17.9249 48.2773 17.2218 48.2773C16.5202 48.2773 14.9056 47.7852 14.9056 46.1623C14.9056 45.0147 16.0314 45.0416 16.169 45.3855ZM23.8566 36.4962L24.4475 36.7762C24.7881 36.908 25.0056 36.8499 25.0837 36.8172C25.1662 36.7816 25.4781 36.4468 25.546 36.1617C25.578 36.0455 25.5609 35.9446 25.4992 35.8701C25.2693 35.5978 24.8622 34.3467 24.7111 33.6705C24.6552 33.4196 24.7231 32.727 24.7758 32.1696C24.8219 31.691 24.8502 31.3935 24.8262 31.3169C24.7859 31.1985 24.6091 31.0841 24.4057 30.9552L24.0836 30.7359C23.9118 30.5953 23.9042 30.4039 23.8948 30.1984L23.8606 29.8792C23.7858 29.5821 22.274 28.038 22.0398 28.0238C21.7002 28.0017 21.612 28.3743 21.5902 28.5983C21.5768 28.7294 21.7282 29.3148 21.8647 29.8338L22.0154 30.4595C22.1701 31.4433 23.216 33.1759 23.662 33.9153L23.8737 34.2748C23.9652 34.4832 23.9296 34.6478 23.7669 34.74C23.609 34.8308 22.2497 34.6888 21.6004 34.5392C21.3215 34.4753 20.9772 34.3362 20.6413 34.2C20.2567 34.0467 19.8921 33.8978 19.6815 33.8873C19.4356 33.8746 19.319 33.9244 19.2286 33.9661L19.0812 34.0072L18.9344 33.9603C18.7543 33.8808 18.4177 33.7355 17.4985 33.6523C16.1589 33.5267 16.0583 33.7962 16.0038 33.9418C15.9373 34.127 16.7563 34.9978 16.9026 35.1144C17.0889 35.2647 17.6914 35.4939 18.0592 35.4329C18.4798 35.3653 19.1654 35.2804 19.2504 35.2974L19.3884 35.3817L19.5166 35.4725C19.6328 35.52 20.3816 35.5611 20.6079 35.5731C20.869 35.5872 21.5546 35.7292 22.0557 35.8342L22.6157 35.9471C22.8351 35.9874 23.4001 36.2663 23.8566 36.4962Z" fill="black" fill-opacity="0.25"/>
<path fill-rule="evenodd" clip-rule="evenodd" d="M37.7153 19.1218C37.6855 19.0852 37.6608 19.083 37.6452 19.087C37.631 19.0917 37.6118 19.1051 37.6063 19.1487C37.5817 19.3354 37.3474 19.8151 37.1615 19.8859C36.7849 20.0315 36.5899 20.4731 36.4486 20.7949C36.3763 20.9608 36.3059 21.1192 36.25 21.1214C36.226 21.1232 36.1995 21.0974 36.1704 21.0436C35.9384 20.6435 36.0684 20.0315 36.1726 19.5384L36.1966 19.4174C36.2816 19.0016 36.7682 18.4191 37.0591 18.0698L37.1876 17.9151C37.3855 17.6681 37.4353 16.8314 37.3983 16.7686C37.3863 16.765 37.3783 16.7719 37.3736 16.7791C37.369 16.7828 37.3652 16.7872 37.3623 16.7922L37.3579 16.7915V16.7958C37.346 16.8089 37.3358 16.8104 37.326 16.8525C37.2741 17.114 36.7961 17.6453 35.9798 18.3512C35.8124 18.4961 35.6217 18.758 35.4656 18.9682C35.365 19.1062 35.2469 19.2653 35.2157 19.2729C35.0134 18.1936 35.3795 17.5766 35.5534 17.2785L35.6344 17.127C35.9798 16.1872 36.8691 15.4754 36.8786 15.4689C36.8906 15.4416 36.8906 15.4126 36.8688 15.3941C36.8346 15.3679 36.7722 15.3792 36.6738 15.4286L36.62 15.4554C36.3099 15.6061 35.3744 16.0619 34.8006 17.1594C34.3884 17.9496 34.229 18.8328 34.229 19.4988C34.229 19.8387 34.2701 20.1205 34.3398 20.3072C34.5413 20.8446 34.8943 22.1803 35.0029 22.7047C35.0704 23.0297 35.081 24.1457 35.081 24.8451C35.081 25.1869 35.0795 25.4262 35.0795 25.4353C35.0773 25.4353 34.9016 26.0025 34.9016 26.0025C34.9009 26.0083 34.8159 26.4514 34.0917 27.1918C33.3625 27.9367 32.5505 28.1734 32.5433 28.1763C32.2171 28.2018 31.9197 28.1883 31.9092 28.1458C31.9092 27.2946 30.4515 25.3143 29.7056 24.661C28.9444 23.9939 28.3361 23.516 27.3026 22.887C26.2502 22.2464 25.0797 19.5609 25.0663 19.5347L24.965 19.172C24.965 19.172 24.9083 18.4475 24.8927 18.259C24.9308 18.2808 24.9806 18.3116 24.9806 18.3116L25.3394 18.5205L25.7516 18.6788C25.7552 18.6799 26.2912 18.7848 26.2912 18.7848C26.2912 18.7859 26.5912 18.9395 26.5912 18.9395L26.8694 19.1204L27.3019 19.4327L27.746 19.6662C27.7551 19.6687 28.2795 19.6956 28.2795 19.6956L28.2915 19.6524C28.2915 19.6524 27.6843 19.3673 27.6828 19.3673C27.6828 19.3586 27.4642 18.9846 27.4642 18.9846C27.3792 18.8625 27.2943 18.7404 27.2096 18.6181C27.2013 18.6123 26.894 18.4289 26.894 18.4289C26.764 18.4091 26.6337 18.3907 26.5033 18.3737C26.5033 18.3705 26.4267 18.3047 26.3871 18.2692C26.4212 18.2492 26.4855 18.2092 26.4855 18.2092C26.4855 18.214 26.9039 18.2623 26.9053 18.2623C26.9053 18.2666 27.2775 18.5197 27.2775 18.5197L27.6839 18.8328C27.6904 18.836 28.0685 18.9827 28.0685 18.9827L28.1182 19.0024L27.9523 18.5706C27.8485 18.4712 27.7441 18.3725 27.6389 18.2746L27.1784 17.8831C27.1748 17.8799 26.8167 17.6954 26.8167 17.6954C26.8131 17.6946 26.431 17.5657 26.431 17.5657C26.431 17.565 26.0268 17.3072 26.0268 17.3072C26.0268 17.3072 26.0312 17.2796 26.0341 17.256C26.0853 17.2756 26.5937 17.4797 26.5937 17.4797C26.5966 17.48 27.0811 17.6118 27.0811 17.6118C27.0803 17.61 27.4874 17.7673 27.4874 17.7673C27.486 17.7658 28.0718 18.0516 28.0718 18.0516C28.0768 18.0542 28.562 18.1595 28.562 18.1595C28.5704 18.1598 29.1605 18.0542 29.1605 18.0542C29.1681 18.0505 29.7306 17.6591 29.7306 17.6591C29.7372 17.6485 29.8407 17.4157 29.8407 17.4157L29.8628 17.362L29.682 17.4368C29.6805 17.4368 29.1714 17.6954 29.1707 17.6954L28.818 17.7742C28.818 17.7724 28.42 17.6943 28.4193 17.6943H28.42C28.42 17.6896 28.0972 17.3892 28.0972 17.3892L27.6389 16.9455L27.2245 16.7334C27.2187 16.7308 26.7343 16.6524 26.7343 16.6524C26.7343 16.6513 26.4394 16.5013 26.4343 16.4988C26.4357 16.4988 26.4365 16.4933 26.4365 16.4857C26.4365 16.4501 26.4274 16.3724 26.4238 16.3361L27.0331 16.3873L27.7006 16.3335C27.7006 16.3354 28.0765 16.412 28.0765 16.412L28.4567 16.5689L28.846 16.6215L28.9161 16.631L28.4821 16.2159C28.4778 16.2137 28.0445 15.9007 28.0445 15.9007C28.0394 15.8981 27.6814 15.767 27.6814 15.767C27.6748 15.7656 27.0778 15.7151 27.0658 15.714C27.0709 15.7136 27.0716 15.7035 27.0716 15.6886C27.0716 15.6523 27.0658 15.6007 27.0625 15.5742L27.3447 15.5263C27.3447 15.5281 27.7965 15.6298 27.7965 15.6298C27.7965 15.6312 28.2243 15.888 28.2243 15.888L28.6866 16.0459C28.7 16.0463 29.3617 15.9424 29.3617 15.9424L29.4013 15.937L29.1997 15.6708C29.1884 15.6621 28.8558 15.5586 28.8551 15.5586C28.8551 15.5568 28.5805 15.3538 28.5805 15.3538L28.1713 15.0661C28.1654 15.0629 27.86 14.959 27.86 14.959C27.8549 14.9572 27.3734 14.8802 27.372 14.8798C27.372 14.8748 27.1352 14.6569 27.1301 14.6532C27.1374 14.6518 27.1522 14.5759 27.1577 14.5414L27.4123 14.6126L27.7398 14.7687L28.205 14.9162L28.1023 14.711L27.9214 14.5221L27.7631 14.318L27.8317 14.301C27.8317 14.3071 28.3267 14.5595 28.3267 14.5595L28.7124 14.691C28.7124 14.6932 29.0101 14.9724 29.0101 14.9724C29.0145 14.9761 29.5781 15.2942 29.5781 15.2942L29.6348 15.3262L29.532 15.0509C29.5291 15.0447 29.2233 14.6536 29.2233 14.6536L28.9687 14.2135C28.9666 14.2084 28.5057 13.7395 28.5057 13.7395C28.5014 13.7352 27.9149 13.4218 27.9134 13.4218C27.9134 13.4192 27.6901 13.1661 27.6901 13.1661C27.5534 13.0271 27.417 12.8877 27.2808 12.7481C27.2808 12.7427 27.239 12.5996 27.2176 12.527C27.287 12.5491 27.6149 12.6581 27.6149 12.6581L28.0739 12.7877C28.0739 12.7888 28.4015 12.9929 28.4015 12.9929C28.4015 12.9951 28.6746 13.3266 28.6746 13.3266C28.6844 13.3343 29.1195 13.5173 29.1195 13.5173L30.2282 13.6611L30.2928 13.6691L29.9885 13.3488C29.9808 13.343 29.3933 13.0819 29.3933 13.0819L29.0406 12.8248C29.0406 12.82 28.8435 12.4663 28.8435 12.4663L28.6379 12.1017C28.6343 12.0963 28.3024 11.7836 28.3024 11.7836C28.2973 11.78 27.8887 11.5454 27.8887 11.5454L27.4845 11.2091C27.4845 11.2058 27.3872 11.0043 27.3251 10.8699L27.6058 11.1405L28.1422 11.61C28.1487 11.614 28.558 11.7967 28.558 11.7967L28.9085 12.0799L29.3156 12.4954C29.3297 12.5019 29.966 12.5916 29.966 12.5916L30.0455 12.6032L29.3994 12.0436C29.3994 12.0334 29.2535 11.585 29.2535 11.585C29.1417 11.4762 29.0289 11.3686 28.915 11.2621L28.7392 11.0555C28.7392 11.05 28.5642 10.5166 28.5642 10.5166C28.4439 10.3913 28.3226 10.267 28.2003 10.1436C28.2003 10.1407 27.6167 9.59632 27.6153 9.59414V9.59306C27.6153 9.5847 27.5946 9.50154 27.5826 9.4467C27.6273 9.46922 27.6883 9.50154 27.6883 9.50154L28.2239 9.81349C28.229 9.81603 28.8667 9.99833 28.8667 9.99833L29.532 10.1559L30.3008 10.2787L30.1199 9.91299C30.1072 9.90137 29.7248 9.74558 29.7248 9.74558L29.37 9.53858C29.3664 9.53749 28.9332 9.35446 28.9332 9.35446L28.5515 9.19831C28.5515 9.19468 28.3038 8.8751 28.1658 8.69861C28.2984 8.78758 28.5028 8.92667 28.5028 8.92667C28.5126 8.92994 28.8467 8.95645 28.8467 8.95645L29.8944 8.95681C29.8944 8.95971 30.3186 9.18887 30.3186 9.18959C30.3186 9.19104 30.6803 9.58107 30.6803 9.58107L30.7279 9.63228L30.6839 9.19213C30.6796 9.17942 30.4497 8.89217 30.4497 8.89217C30.4431 8.88709 29.8291 8.5479 29.8291 8.5479L29.341 8.36414C29.3373 8.36305 28.602 8.23304 28.5983 8.23304V8.23196C28.5983 8.22506 28.4578 8.05764 28.4578 8.05764C28.4549 8.05619 27.9196 7.56085 27.9196 7.56085C27.8331 7.51564 27.7463 7.47097 27.6592 7.42685C27.6592 7.42539 27.5775 7.3415 27.5267 7.28848H27.8019C27.8019 7.29284 28.2239 7.54632 28.2239 7.54632C28.2275 7.54886 28.7908 7.73044 28.7908 7.73044L29.5095 7.83539H29.5088C29.5088 7.84302 29.7753 8.14153 29.7753 8.14153L30.1639 8.38012C30.3113 8.40732 30.4588 8.43359 30.6066 8.45893L30.6683 8.46873L29.759 7.35458C29.7532 7.34913 29.3185 7.1149 29.3185 7.1149C29.3148 7.11272 28.805 6.9562 28.805 6.9562C28.805 6.95075 28.3561 6.44161 28.3561 6.44161C28.351 6.43616 27.7889 6.09807 27.7889 6.09807C27.653 6.06368 27.5168 6.03051 27.3803 5.99856C27.4057 5.95753 27.4903 5.81808 27.4903 5.81735C27.4918 5.82134 27.9407 5.61834 27.9407 5.61834C27.9407 5.61943 28.5987 5.48979 28.5987 5.48979C28.6165 5.47453 28.6662 5.31729 28.6662 5.31729C28.6579 5.29078 28.3768 5.10847 28.3768 5.10847C28.2647 5.07206 28.1523 5.03623 28.0398 5.00098C28.0191 5.00352 27.8411 5.10775 27.8411 5.10847C27.8411 5.1052 27.2906 5.13026 27.2906 5.13026C27.2906 5.1299 26.6326 4.9752 26.6326 4.97447C26.6326 4.9712 25.9546 4.40614 25.9546 4.40614C25.8508 4.3527 25.7468 4.29968 25.6426 4.24707C25.635 4.24562 24.515 4.11452 24.5121 4.11452C24.5121 4.10036 24.2488 3.70743 24.2488 3.70743L23.8886 3.31377C23.8871 3.31159 23.4299 2.89905 23.4299 2.89905L23.4158 2.92919L23.2625 3.26838C23.2632 3.26511 23.1114 3.4997 23.1114 3.4997V3.50551C23.1114 3.54873 23.1329 3.77534 23.1329 3.77534C23.1394 3.7895 23.2876 3.9413 23.2908 3.94566C23.2832 3.94566 23.2349 4.18171 23.2349 4.18352C23.2335 4.16718 22.6205 4.19224 22.6194 4.19224C22.6194 4.18933 22.1186 3.95946 22.1186 3.95946C22.1153 3.95728 21.7315 3.82727 21.7315 3.82727C21.7238 3.82473 20.8308 3.85233 20.8308 3.85233C20.8112 3.86249 20.6598 4.09709 20.6598 4.09709L20.6395 4.12796L21.0324 4.18461C21.0324 4.18606 21.0905 4.22311 21.1228 4.24381L21.0222 4.32588C21.0222 4.32079 20.4757 4.29574 20.4757 4.29574C20.4666 4.29719 20.082 4.45298 20.082 4.45298L20.0421 4.47005L20.2327 4.59824C20.2447 4.6026 21.0614 4.62838 21.0614 4.62838L21.6679 4.78454V4.78527C21.6679 4.79362 21.7834 4.95849 21.7834 4.95849C21.7834 4.95849 21.8655 5.07434 21.8963 5.11973L21.6367 5.26281C21.6399 5.26245 20.8987 5.57513 20.8987 5.57513L19.3666 6.43544C19.3651 6.43398 18.3578 6.58433 18.3578 6.58433C18.3501 6.58687 17.9634 6.80222 17.9634 6.80222C17.955 6.80803 17.6445 7.23837 17.6445 7.23837C17.6413 7.24382 17.4655 7.77947 17.4655 7.77947C17.4517 8.68953 17.488 8.71059 17.5011 8.71786C17.5312 8.73674 17.7941 8.88563 17.9975 8.77669C18.2278 8.6514 18.7206 8.52829 18.9766 8.47382C19.103 8.44803 19.1621 8.49343 19.1727 8.54027C19.1865 8.59148 19.1483 8.6612 19.0539 8.68699L19.0009 8.7026C18.5557 8.82353 18.1014 8.96988 18.1163 9.14166L18.1947 9.27275C18.3934 9.41765 18.9098 9.34902 19.1839 9.28692L19.4701 9.20666C19.717 9.13149 19.9978 9.0476 20.2374 9.07447C20.3758 9.09045 20.4978 9.15001 20.642 9.21792C20.8374 9.31234 21.0607 9.41947 21.3937 9.44126C21.949 9.47975 22.3281 9.59197 22.3579 9.62465C22.4323 9.77608 22.3844 10.0002 22.347 10.1803L22.3183 10.3433C22.1629 11.7527 20.5893 13.3462 19.8311 14.1107C19.6263 14.3177 19.4908 14.4542 19.4617 14.5112L19.3746 14.7128C19.3009 14.8998 19.241 15.0611 19.0005 15.1577C18.8615 15.2118 18.5372 15.4558 18.1609 15.7376C17.6177 16.1429 16.944 16.6469 16.7584 16.6252C16.4479 16.5885 14.9979 15.5902 14.9369 15.5288C13.5246 14.1623 12.9337 14.4426 12.58 14.6097L12.5241 14.6358C12.1028 14.8275 11.6605 16.0209 11.6205 16.2769L11.4499 17.0119L11.3188 17.5519C11.2799 17.7346 11.106 18.1834 10.94 18.6171L10.5994 19.5613C10.5431 19.7799 10.4065 20.0871 10.2954 20.3355L10.1447 20.7034C10.0397 21.1352 10.0379 23.5 10.2206 23.7092L10.2286 23.7179L10.2645 23.7284C10.4479 23.7096 10.8416 23.3039 11.0304 23.1082L11.074 23.0628C11.2338 22.9023 11.4034 22.4737 11.4034 22.2936C11.4034 22.1171 11.3209 21.7482 11.2883 21.6476C11.0326 20.8668 11.1292 20.1227 11.1757 19.7661L11.1942 19.607C11.2076 19.4414 11.3736 19.258 11.5348 19.0823L11.7386 18.8466C11.8504 18.6977 11.9746 18.6483 12.0854 18.6043L12.2673 18.5005L12.2956 18.4711C12.4162 18.3501 12.6185 18.146 12.7071 17.873L12.88 17.1252L12.9177 16.9255C12.9264 16.8855 12.9468 16.8634 12.9806 16.8561C13.0492 16.8409 13.152 16.8953 13.1959 16.9538L14.4459 18.4042C14.7662 18.677 15.0952 19.0024 15.0952 19.0739L15.0948 19.0801C15.0948 19.079 15.0872 19.0804 15.0872 19.0804C14.9122 19.0986 14.0315 18.9108 13.8852 18.8691C12.6886 18.5183 12.1424 18.58 11.7211 19.1073C11.241 19.7112 11.3921 21.5608 11.4902 21.7634C11.5802 21.9472 12.0182 24.2005 12.0378 24.5009C12.0574 24.7954 12.1714 25.322 12.2906 25.4429L12.3232 25.4763C12.4707 25.6223 12.8593 26.0127 12.9279 26.3976C13.002 26.8167 13.8921 27.9388 14.2316 28.0394C14.2571 28.0468 14.2839 28.048 14.3099 28.043C14.3359 28.0379 14.3604 28.0267 14.3812 28.0104C14.6402 27.8266 14.7578 26.9285 14.772 26.5494C14.7887 26.077 14.6191 25.8485 14.439 25.6041L14.37 25.5086C14.2374 25.3278 14.0039 25.262 13.8499 25.2188C13.7842 25.2003 13.6941 25.1785 13.6941 25.1582C13.6941 25.1513 13.676 24.4591 13.4552 24.3255C13.2834 24.2198 13.1077 23.5519 13.087 23.2977C13.067 23.0453 12.9693 22.436 12.8382 22.1683C12.7056 21.8996 12.5942 21.4043 12.6508 21.0222C12.6744 20.8581 12.7913 20.8065 12.8865 20.7916C13.0506 20.7655 13.2402 20.8363 13.2696 20.8937C13.335 21.0251 14.5969 21.7863 15.0226 21.9497C15.2869 22.0499 15.6446 22.3521 15.9606 22.6215C16.1854 22.81 16.3786 22.9724 16.4991 23.0301C16.6618 23.1085 17.123 23.1176 17.4935 23.1249C17.6899 23.1281 17.894 23.1329 17.9216 23.1492C17.7713 23.2095 17.7731 23.4731 17.7854 23.5581C17.939 24.6487 21.9065 27.6443 22.2134 27.8125C22.5685 28.0031 23.8425 29.3333 23.954 29.5142C24.0694 29.6929 24.1817 29.8872 24.1602 30.0368C24.1297 30.2579 24.2183 30.5107 24.3956 30.717C24.5651 30.9091 24.7863 31.0249 24.9908 31.0249C25.168 31.0249 25.2864 30.8659 25.3739 30.7511L25.3924 30.7271C25.6292 30.4137 25.9804 29.9547 26.0257 29.2367C26.074 28.5006 26.4103 28.2083 26.52 28.1891C26.569 28.18 26.605 28.1949 26.618 28.2272C26.6315 28.2606 26.6151 28.3165 26.5487 28.3605C26.4034 28.4589 26.3126 28.7846 26.2131 29.1329C26.2124 29.1358 26.1761 29.4884 26.1761 29.4884C26.1677 29.7517 26.1576 30.0502 25.8946 30.3396C25.501 30.766 25.0492 31.749 24.9323 32.9903C24.8615 33.738 25.1981 34.8151 25.9324 36.1879L25.9836 36.2859L26.1823 36.6193C26.3831 36.9421 26.7186 37.4789 26.703 37.6045C26.6816 37.7817 26.6649 37.9208 26.3591 38.3047C26.0228 38.7267 24.7957 40.1546 24.6759 40.1771C24.4319 40.1771 24.3908 40.2083 24.1944 40.3572L23.9874 40.5148C23.7608 40.6757 23.7212 40.7963 23.683 40.9027C23.6551 40.9829 23.6286 41.053 23.5233 41.1318L23.4445 41.1849C23.4281 41.199 23.3838 41.2615 22.8906 41.755C22.3252 42.3139 22.0728 42.9465 22.16 43.5751C22.1879 43.7716 22.3572 43.8402 22.859 43.8631C23.3602 43.8864 24.5092 43.0823 24.5604 42.8205L24.5782 42.7206C24.6222 42.4846 24.6959 42.0866 24.8259 42.0292C24.9828 41.9606 25.2515 41.6504 25.4487 41.4249L25.4868 41.3824C25.5918 41.2611 25.6172 41.1406 25.6423 41.0258C25.6637 40.935 25.6833 40.8435 25.7428 40.76C25.7897 40.699 25.8583 40.6655 25.9379 40.6289C26.0904 40.5559 26.2825 40.4629 26.4209 40.1154C26.5585 39.7747 27.3799 39.1853 27.9799 38.7565C28.2864 38.5386 28.5268 38.3642 28.5842 38.2876C28.663 38.1848 28.7113 37.9869 28.7113 37.777C28.7113 37.5279 28.6444 37.2628 28.4879 37.1154C28.2602 36.904 28.046 36.275 27.9821 36.0778V36.0735C27.9821 35.9918 27.9744 35.8421 27.9621 35.5636C27.9606 35.5509 27.9606 35.5375 27.9606 35.5255C27.9606 34.7886 29.0559 34.0678 29.5287 33.7573L29.7444 33.6084C31.4589 32.0962 31.7944 30.9465 31.858 30.6309L31.8929 30.2529C31.9034 29.991 31.9121 29.7415 32.0701 29.7088C32.1318 29.6969 32.2346 29.7466 32.297 29.8211C32.3326 29.8614 32.3849 29.9453 32.3501 30.0422C32.272 30.2543 32.2458 32.3864 32.2451 32.475C32.2509 32.4899 32.4296 32.7005 32.4296 32.7005L32.4623 32.7386L32.4721 32.6889C32.4743 32.6642 32.5727 32.0831 32.5727 31.8776C32.5727 31.6477 32.9424 30.6632 33.0317 30.6461C33.0317 30.6491 33.0375 30.6574 33.0375 30.6574C33.0807 30.7936 33.1359 31.1299 33.1359 31.4843C33.1359 31.8326 33.0833 32.1986 32.914 32.4107C32.6573 32.7285 32.4528 33.2314 32.3196 33.5634L32.1961 33.8455C32.1822 33.8846 32.1761 33.9261 32.1783 33.9675C32.1783 34.2377 32.3174 34.8137 32.4089 34.9208C32.4329 34.9462 32.4521 34.9462 32.4655 34.9415C32.4953 34.9303 32.5222 34.8918 32.5222 34.6655C32.5222 33.8038 33.2463 33.1788 33.255 33.1741C33.8935 32.6675 34.0326 31.728 34.0326 31.0122C34.0326 30.4704 33.953 30.0567 33.9508 30.0455C33.8499 29.8958 33.7477 29.7469 33.6443 29.5988C33.6592 29.6061 33.7424 29.5378 33.77 29.5156C33.7976 29.5512 34.0885 29.9369 34.0885 29.9369C34.1375 30.0055 34.2617 30.2056 34.2617 30.2852C34.2617 30.7286 34.33 31.0322 34.3786 31.2548L34.3906 31.3075C34.4418 31.5435 34.761 32.2978 34.7752 32.3301L34.8093 32.4096L34.8199 32.3232C34.8199 32.3196 34.8703 31.9252 34.8199 31.5878C34.7908 31.3986 34.8271 31.1665 34.8638 30.916L34.9219 30.3407C34.9219 29.8734 34.8551 29.5781 34.6884 29.3094L34.6034 29.1805C34.57 29.1278 34.5373 29.0762 34.541 29.0657L34.6034 29.0388C35.9518 28.5813 36.5793 27.5884 36.835 27.0386C37.103 26.4561 37.1172 25.5591 37.1172 25.3866C37.1172 25.1618 37.1074 23.9961 36.9116 23.3972C36.7969 23.0439 36.8336 22.6644 36.872 22.2548L36.9138 21.5535C36.9138 21.0738 37.1662 20.7175 37.411 20.3733L37.7026 19.9215C37.8932 19.5453 37.7919 19.2159 37.7153 19.1218Z" fill="black" fill-opacity="0.25"/>
<path fill-rule="evenodd" clip-rule="evenodd" d="M22.6223 4.10653C22.6448 4.10798 22.9313 3.9718 22.9313 3.9718C22.944 3.94601 22.8776 3.67474 22.8776 3.67474C22.6708 3.42946 22.4629 3.18505 22.254 2.94153L22.2232 2.90558L22.2126 2.95061L22.1458 3.2444C22.1462 3.24149 21.9479 3.71577 21.9479 3.71577L21.9388 3.73575L22.3564 3.94928L22.6223 4.10653Z" fill="black" fill-opacity="0.25"/>
<path fill-rule="evenodd" clip-rule="evenodd" d="M22.7465 5.98876C22.8126 6.01346 22.9124 6.00256 23.0068 5.96044C23.1514 5.89253 23.2367 5.77632 23.2 5.69315L23.1336 5.63324C23.0682 5.60818 22.9684 5.61943 22.8754 5.66229C22.7515 5.71749 22.6724 5.80936 22.6724 5.88744C22.6724 5.9016 22.6764 5.91686 22.6811 5.92884L22.7465 5.98876ZM25.241 4.95922L25.3601 5.0235C25.3696 5.04412 25.3837 5.06233 25.4012 5.07679C25.4188 5.09124 25.4393 5.10158 25.4614 5.10703C25.4868 5.11233 25.513 5.11182 25.5382 5.10553C25.5634 5.09924 25.5868 5.08733 25.6067 5.07071C25.6386 5.04565 25.6462 4.9988 25.6259 4.93961C25.5939 4.8412 25.4912 4.7337 25.3804 4.7337C25.2377 4.7337 25.1073 4.75005 25.1073 4.85536C25.1077 4.91455 25.1756 4.93707 25.241 4.95922ZM25.3837 5.38012C25.3285 5.42079 25.3042 5.47563 25.3198 5.53119L25.331 5.57731C25.3452 5.63178 25.3503 5.64304 25.4004 5.64885L25.4912 5.66519C25.6074 5.69497 25.7911 5.6227 25.8329 5.52974C25.8471 5.49959 25.8583 5.44113 25.7792 5.38593C25.643 5.29514 25.4752 5.31475 25.3837 5.38012ZM25.7552 6.99651C25.7218 6.98053 25.7359 6.92751 25.7617 6.85052C25.7824 6.7877 25.8013 6.72742 25.769 6.69437C25.7407 6.66713 25.6902 6.66931 25.6045 6.70127C25.2958 6.81239 25.2486 7.12688 25.2145 7.35676L25.2039 7.42758C25.1861 7.52998 25.2388 7.56485 25.2715 7.57647C25.3779 7.61424 25.57 7.51764 25.6132 7.44392C25.6615 7.36439 25.9281 7.29176 26.1223 7.23874L26.1968 7.2184C26.2868 7.1937 26.333 7.15921 26.3395 7.11236C26.3493 7.05099 26.2814 6.99506 26.2211 6.95911C26.1652 6.92606 26.082 6.94967 25.9949 6.97472C25.9084 6.99833 25.8155 7.02266 25.7552 6.99651ZM22.4926 7.11454C22.5609 7.10764 22.6143 7.08113 22.648 7.03246C22.7465 6.88575 22.7515 6.67803 22.656 6.48955C22.5638 6.30979 22.4058 6.19467 22.2446 6.18886L22.2468 6.18959L22.2115 6.18486L21.9145 6.20811C21.7576 6.24297 21.612 6.35881 21.5767 6.47284C21.559 6.53059 21.5691 6.58324 21.6087 6.62283C21.8469 6.87522 22.2584 7.13233 22.4926 7.11454ZM19.5674 6.87558C19.603 6.9631 19.7661 6.97291 20.0054 6.90173L20.058 6.88575L20.4869 6.71797L21.1083 6.30943C21.1264 6.29526 21.2888 6.17324 21.2554 6.09517C21.2318 6.04396 21.1508 6.05304 21.0923 6.06393C20.9209 6.09517 20.7527 6.1776 20.5737 6.26476L20.321 6.38206L20.2095 6.42781C19.8249 6.58688 19.5097 6.72959 19.5674 6.87558ZM18.2608 7.33025C18.1315 7.33025 18.0734 7.40034 18.0262 7.46244L17.9685 7.52781C17.869 7.61315 17.8384 7.81942 17.8508 7.9763C17.8559 8.04167 17.8744 8.16006 17.9387 8.19782C18.0618 8.27372 18.1206 8.22034 18.2463 8.10086L18.3436 8.01734C18.4671 7.91384 18.6105 7.79654 18.6283 7.61605C18.637 7.53979 18.6189 7.47696 18.5764 7.42975C18.5008 7.34768 18.3628 7.33025 18.2608 7.33025ZM18.9755 7.38727C18.9384 7.37928 18.9163 7.3909 18.9047 7.40288C18.8673 7.43956 18.8825 7.518 18.8941 7.58083L18.9014 7.62477L18.8938 7.65128C18.8854 7.67379 18.876 7.70248 18.8938 7.72681C18.9097 7.75115 18.9486 7.76168 19.0147 7.76168C19.0986 7.7624 19.1069 7.75369 19.1353 7.67888L19.1578 7.62114C19.1781 7.5703 19.1785 7.52454 19.1592 7.48822C19.1247 7.42431 19.039 7.39998 18.9755 7.38727ZM19.6666 8.50723C19.7104 8.50521 19.7518 8.48636 19.7821 8.45461C19.8125 8.42285 19.8294 8.38064 19.8294 8.33673C19.8294 8.29283 19.8125 8.25061 19.7821 8.21886C19.7518 8.1871 19.7104 8.16825 19.6666 8.16623C19.6444 8.16637 19.6225 8.1709 19.602 8.17955C19.5816 8.1882 19.5631 8.2008 19.5476 8.21663C19.5321 8.23246 19.5198 8.25121 19.5116 8.27179C19.5033 8.29237 19.4992 8.31438 19.4995 8.33655C19.4995 8.4306 19.574 8.50723 19.6666 8.50723ZM22.7799 8.09178C22.7559 8.08732 22.7311 8.08949 22.7083 8.09807C22.6854 8.10665 22.6654 8.1213 22.6502 8.14045C22.6041 8.19419 22.3234 8.38666 22.1182 8.52757L21.8535 8.71568L21.832 8.73638C21.799 8.76761 21.7827 8.78686 21.8041 8.8515L21.8364 8.8969L21.9061 8.88273L22.0093 8.8446L22.1578 8.82136C22.3041 8.80248 22.4643 8.78069 22.5398 8.70333L22.6382 8.54246L22.7846 8.3075C22.8547 8.23014 22.8583 8.17712 22.8485 8.14698C22.8428 8.13262 22.8335 8.11997 22.8215 8.11029C22.8095 8.10062 22.7951 8.09424 22.7799 8.09178ZM23.0875 9.04107C23.0875 9.12786 23.1307 9.162 23.155 9.17398C23.2207 9.20884 23.3152 9.17507 23.3715 9.09663L23.5617 8.93103C23.6649 8.85695 23.78 8.77342 23.882 8.64378C23.9765 8.52212 23.9358 8.44731 23.902 8.41535C23.8374 8.35216 23.7045 8.33764 23.6594 8.37468L23.6046 8.41208C23.48 8.49307 23.1852 8.68445 23.1111 8.91723C23.0964 8.95693 23.0885 8.99877 23.0875 9.04107ZM24.3273 8.94737C24.2884 8.89072 24.2216 8.86712 24.1718 8.89145L24.0378 8.99313C23.9434 9.07012 23.8258 9.16781 23.7237 9.1965C23.476 9.26295 23.1401 9.37371 23.1194 9.54367L23.1191 9.56582C23.1191 9.61267 23.1401 9.64063 23.1605 9.65625C23.2545 9.73287 23.4829 9.68748 23.6482 9.62502C23.9017 9.53132 24.0556 9.41693 24.2546 9.23608C24.377 9.12459 24.3716 9.0131 24.3273 8.94737ZM23.3642 10.9048L23.2836 10.8957C23.0751 10.9513 22.7192 11.5643 22.4694 12.0211L22.4247 12.1003L21.6759 13.5057L21.4409 13.9531C21.4148 13.9938 21.4239 14.0533 21.4631 14.0922C21.4994 14.1285 21.5629 14.1485 21.6399 14.0998C21.7649 14.0166 22.2206 13.5645 22.432 13.2093L22.7134 12.8211C22.8939 12.5854 23.0994 12.3218 23.22 12.0077L23.2625 11.8994C23.5483 11.1583 23.593 11.0449 23.3642 10.9048ZM26.1801 8.20327C26.1588 8.20279 26.1376 8.20651 26.1177 8.21423C26.0978 8.22194 26.0796 8.2335 26.0642 8.24824C26.0488 8.26297 26.0365 8.2806 26.0279 8.30012C26.0193 8.31963 26.0146 8.34065 26.0141 8.36197C26.0141 8.44949 26.0886 8.52067 26.1801 8.52067C26.2716 8.52067 26.3446 8.44949 26.3446 8.36197C26.3443 8.34073 26.3397 8.31977 26.3313 8.30028C26.3228 8.2808 26.3106 8.26318 26.2953 8.24843C26.28 8.23369 26.262 8.22211 26.2422 8.21436C26.2224 8.20661 26.2013 8.20284 26.1801 8.20327ZM26.1013 8.8653C26.1013 8.95318 26.1757 9.02436 26.2672 9.02436C26.2883 9.0246 26.3093 9.02067 26.3289 9.01281C26.3485 9.00494 26.3663 8.99328 26.3814 8.97851C26.3965 8.96373 26.4085 8.94613 26.4168 8.9267C26.425 8.90728 26.4294 8.88641 26.4296 8.8653C26.4291 8.8227 26.4117 8.78202 26.3813 8.7522C26.3509 8.72238 26.3098 8.70585 26.2672 8.70624C26.2242 8.70555 26.1826 8.72188 26.1516 8.75166C26.1205 8.78144 26.1024 8.82227 26.1013 8.8653ZM26.2538 9.2172C26.1503 9.2172 26.0646 9.28583 26.0646 9.3679C26.0646 9.45107 26.1503 9.51898 26.2538 9.51898C26.3588 9.51898 26.4437 9.45143 26.4437 9.3679C26.4441 9.28583 26.3588 9.2172 26.2538 9.2172ZM26.2462 9.65734C26.1271 9.65734 26.0319 9.73251 26.0319 9.82512C26.0319 9.91699 26.1271 9.99217 26.2462 9.99217C26.3653 9.99217 26.459 9.91663 26.459 9.82512C26.459 9.73251 26.3653 9.65734 26.2462 9.65734ZM26.2538 10.2159C26.1227 10.2159 26.0141 10.2939 26.0141 10.3924C26.0141 10.4893 26.1227 10.5674 26.2538 10.5674C26.3856 10.5674 26.492 10.4893 26.492 10.3924C26.492 10.2939 26.3856 10.2159 26.2538 10.2159ZM26.1728 11.1521C26.3217 11.139 26.431 11.0573 26.4227 10.9629L26.3758 10.8772C26.3246 10.834 26.2353 10.8122 26.1445 10.8205C26.0007 10.8336 25.8943 10.9113 25.8943 11.0003L25.895 11.0094L25.9433 11.0947C25.9956 11.139 26.0809 11.1608 26.1728 11.1521ZM26.1645 11.74C26.3312 11.7153 26.4488 11.6238 26.4354 11.5294L26.3864 11.451C26.3282 11.4063 26.224 11.3885 26.1176 11.4041C25.9538 11.427 25.8333 11.5203 25.8467 11.6147L25.8972 11.6928C25.956 11.7378 26.0581 11.7549 26.1645 11.74ZM25.8837 12.0236C25.8837 12.1264 26.0087 12.2085 26.1725 12.2085C26.3355 12.2085 26.459 12.1264 26.459 12.0236C26.459 11.9209 26.3355 11.8399 26.1725 11.8399C26.0083 11.8403 25.8837 11.9209 25.8837 12.0236ZM26.3943 12.6247C26.3943 12.5157 26.2454 12.4326 26.0552 12.4326C25.867 12.4326 25.7181 12.5157 25.7181 12.6247C25.7181 12.7329 25.867 12.8175 26.0552 12.8175C26.2454 12.8175 26.3943 12.7329 26.3943 12.6247ZM26.1779 13.132C26.1779 13.0256 26.0664 12.9395 25.9317 12.9395C25.7948 12.9395 25.6833 13.0256 25.6833 13.132C25.6833 13.2384 25.7948 13.3248 25.9317 13.3248C26.0668 13.3248 26.1779 13.2384 26.1779 13.132ZM26.0617 13.7664C26.0617 13.6469 25.944 13.5485 25.7977 13.5485C25.6531 13.5485 25.5358 13.6469 25.5358 13.7664C25.5358 13.887 25.6528 13.9839 25.7977 13.9839C25.944 13.9839 26.0617 13.887 26.0617 13.7664ZM25.8474 14.3838C25.8474 14.2763 25.7508 14.1909 25.6332 14.1909C25.5162 14.1909 25.4175 14.2759 25.4175 14.3838C25.4175 14.4895 25.5159 14.5759 25.6332 14.5759C25.7508 14.5763 25.8474 14.4895 25.8474 14.3838ZM25.4763 14.7491C25.363 14.7491 25.2693 14.8352 25.2693 14.9419C25.2693 15.0476 25.363 15.1337 25.4763 15.1337C25.5892 15.1337 25.6818 15.0473 25.6818 14.9419C25.6822 14.8352 25.5892 14.7491 25.4763 14.7491ZM25.3012 15.6755C25.4175 15.6755 25.5162 15.6007 25.5162 15.5081C25.5162 15.4155 25.4178 15.3418 25.3012 15.3418C25.1843 15.3418 25.0884 15.4159 25.0884 15.5081C25.0884 15.6003 25.1843 15.6755 25.3012 15.6755ZM25.1041 16.0812C25.2119 16.0812 25.3005 16.0183 25.3005 15.9392C25.3005 15.8604 25.2134 15.7979 25.1041 15.7979C24.9911 15.7979 24.9054 15.86 24.9054 15.9392C24.9054 16.0183 24.994 16.0812 25.1041 16.0812ZM24.9127 16.4712C25.0154 16.4712 25.1026 16.4076 25.1026 16.3288C25.1026 16.2508 25.0154 16.1872 24.9127 16.1872C24.807 16.1872 24.7235 16.2508 24.7235 16.3288C24.7231 16.4076 24.807 16.4712 24.9127 16.4712ZM19.3136 16.1258L19.3477 16.1324L19.6063 16.0859C19.8358 16.035 20.1815 15.9577 20.6068 15.9464C20.9176 15.9381 21.2546 16.0467 21.4994 16.1266C21.7216 16.2006 21.8324 16.2326 21.8745 16.1868C21.901 16.1567 21.8847 16.1128 21.8702 16.0819C21.8034 15.9377 21.5107 15.4638 20.5556 15.442C19.9349 15.4278 19.4291 15.8498 19.3208 16.0281C19.2994 16.0645 19.2936 16.0913 19.3045 16.1113L19.3136 16.1258ZM22.8652 17.9213C22.9259 17.8824 22.952 17.8138 22.948 17.7154C22.9277 17.329 22.8242 17.285 22.611 17.285C22.3949 17.285 22.2388 17.5018 22.2388 17.6144C22.2388 17.7201 22.3165 17.8127 22.4672 17.8882C22.5525 17.9332 22.749 17.9975 22.8652 17.9213ZM25.7955 22.6448C26.1035 22.7886 26.2117 22.8398 26.2578 22.854C26.2592 22.854 26.2607 22.8583 26.2607 22.8583C26.2607 22.8583 26.2629 22.8565 26.2629 22.8558C26.2843 22.8623 26.2912 22.8598 26.2963 22.8525C26.2934 22.8503 26.2814 22.8322 26.2749 22.8271C26.2785 22.8242 26.2821 22.8166 26.2821 22.8166C26.2821 22.8166 26.2629 22.8086 26.2614 22.8068C26.0577 22.5496 24.831 20.8054 24.5699 19.6575C24.5288 19.4683 24.4805 19.2922 24.3571 19.2217C24.2877 19.1829 24.2002 19.1799 24.0938 19.2155H24.093C24.0683 19.2228 24.0505 19.2431 24.0393 19.2729C24.0287 19.3052 24.0242 19.3392 24.0259 19.3731C24.0259 19.7831 24.4627 20.9118 24.6054 21.1439C25.3949 22.4254 25.7806 22.6361 25.7955 22.6448ZM35.8229 23.1434L35.776 23.1525C35.7775 23.1597 35.788 23.5022 35.788 23.942C35.788 24.5833 35.7659 25.4385 35.6548 25.8228C35.5647 26.134 35.1518 26.7299 34.8184 27.2067C34.8184 27.2067 34.4306 27.7885 34.4306 27.7892C34.4195 27.8087 34.4138 27.8308 34.4142 27.8531C34.4142 27.9105 34.4433 27.9646 34.4945 27.9984C34.5333 28.0253 34.6739 28.0943 34.8696 27.8608L35.1173 27.5989C35.4478 27.2692 35.8585 26.8599 36.1479 25.9564C36.4653 24.9646 35.8283 23.1605 35.8229 23.1434ZM25.4915 26.3747C25.5213 26.4045 25.5696 26.4129 25.6201 26.3947C25.659 26.3813 25.6931 26.3568 25.7183 26.3243C25.7435 26.2918 25.7587 26.2527 25.7621 26.2117C25.7741 26.0875 25.8605 25.9208 25.9891 25.7784C26.0561 25.7023 26.0909 25.6031 26.0863 25.5018C26.0817 25.4005 26.038 25.3049 25.9644 25.2352L25.7999 25.1694C25.6942 25.1731 25.6154 25.2577 25.611 25.2602C25.5559 25.5241 25.502 25.7882 25.4494 26.0526V26.0519C25.4338 26.0958 25.4196 26.3057 25.4915 26.3747ZM30.8408 29.2996L30.8324 29.296L30.8241 29.2996C30.8175 29.3047 30.6795 29.3689 30.6403 29.5037C30.6135 29.5945 30.6636 29.6733 30.7028 29.7383L30.7489 29.8247L30.7689 29.9972L30.8001 30.251C30.8079 30.2773 30.8243 30.3001 30.8467 30.3158C30.8692 30.3315 30.8963 30.3392 30.9236 30.3375C30.9882 30.3353 31.0634 30.2855 31.0881 30.185C31.1215 30.0488 31.1378 29.8643 31.1378 29.6188C31.1371 29.3947 30.8535 29.3025 30.8408 29.2996ZM22.5384 27.2343C22.5199 27.2129 20.5588 25.0848 20.135 24.5274C19.7032 23.9561 19.497 23.9129 19.2856 24.0299C19.27 24.0388 19.2568 24.0513 19.2472 24.0664C19.2375 24.0815 19.2316 24.0988 19.23 24.1167C19.1995 24.3487 19.6894 24.9101 20.1183 25.3223C20.7179 25.8994 22.489 27.2558 22.5071 27.2692L22.5384 27.2343ZM14.8522 20.9536C14.4549 20.707 13.7671 20.5701 13.7602 20.5672L13.7421 20.609L14.5051 21.1842C14.6307 21.2873 15.186 21.632 15.3654 21.4911C15.377 21.4823 15.3863 21.4708 15.3925 21.4577C15.3987 21.4445 15.4016 21.4301 15.401 21.4155C15.3951 21.312 15.2027 21.1737 14.8522 20.9536ZM14.6659 17.6979L14.7197 17.675C14.7883 17.5977 14.6303 17.378 14.4382 17.2004C14.265 17.0406 14.0889 16.9375 13.9966 16.9426L13.9444 16.9651C13.9331 16.9787 13.9274 16.9961 13.9284 17.0137C13.9284 17.114 14.0656 17.2912 14.2251 17.4401C14.3987 17.5999 14.5762 17.7037 14.6659 17.6979ZM16.7047 17.4201L16.6266 17.4248C16.4784 17.4869 16.2431 17.8635 16.0554 18.3403C15.9232 18.677 15.8233 19.0441 15.8233 19.2653C15.8233 19.3702 15.8458 19.4414 15.8959 19.4625L15.9729 19.4578C16.1211 19.3946 16.3557 19.0173 16.5456 18.5419C16.6774 18.2045 16.7762 17.8374 16.7762 17.6158C16.7762 17.5116 16.7548 17.4401 16.7047 17.4201ZM13.0347 15.0945C12.8433 15.0945 12.6907 15.1853 12.6907 15.3C12.6907 15.414 12.8433 15.5037 13.0347 15.5037C13.2289 15.5037 13.38 15.414 13.38 15.3C13.38 15.1853 13.2289 15.0945 13.0347 15.0945ZM11.8141 17.6355L11.8737 17.63C11.9771 17.5792 12.1337 17.2977 12.2517 16.9466C12.3766 16.5729 12.4449 16.1716 12.324 16.1287L12.2655 16.1349C12.1602 16.1868 12.004 16.4676 11.8871 16.8184C11.76 17.1924 11.6957 17.5937 11.8141 17.6355ZM12.1337 19.5685C12.2354 19.4323 12.2557 19.2791 12.1802 19.2217L12.0923 19.2028C12.0189 19.2123 11.9314 19.274 11.866 19.3652C11.7643 19.5013 11.744 19.6542 11.8192 19.7105L11.9074 19.7312C11.9804 19.72 12.069 19.6589 12.1337 19.5685ZM12.0167 21.6857L12.0084 21.6806L11.9702 21.6766C11.833 21.7086 11.9296 22.3063 12.0004 22.6208C12.101 23.0599 12.2372 23.4143 12.3316 23.4731L12.3396 23.479L12.377 23.483C12.5164 23.451 12.4177 22.8503 12.3472 22.5388C12.2473 22.0972 12.1126 21.7449 12.0167 21.6857ZM10.6338 22.4883C10.5231 22.4883 10.4337 22.5703 10.4337 22.6728C10.4337 22.7701 10.5231 22.8522 10.6338 22.8522C10.7439 22.8522 10.8361 22.7701 10.8361 22.6728C10.8365 22.5703 10.7442 22.4883 10.6338 22.4883ZM14.0315 26.8272C13.9702 26.8269 13.9113 26.8509 13.8676 26.8938C13.8239 26.9367 13.7989 26.9951 13.798 27.0564C13.798 27.1799 13.903 27.2819 14.0315 27.2819C14.0925 27.283 14.1514 27.2598 14.1954 27.2176C14.2393 27.1753 14.2648 27.1174 14.2661 27.0564C14.2652 26.9949 14.2401 26.9363 14.1961 26.8934C14.1521 26.8504 14.093 26.8267 14.0315 26.8272ZM25.5177 32.8723C25.525 32.8835 25.546 32.9213 25.578 32.9177L25.5914 32.917L25.6161 32.8799L25.8267 32.2379L25.9912 31.8101L26.1318 31.4847C26.175 31.3754 26.175 31.3024 26.1325 31.2599C26.065 31.1981 25.9255 31.2508 25.9084 31.257C25.8972 31.2661 25.5126 31.9081 25.5126 31.9081C25.4374 32.0229 25.4091 32.1776 25.4091 32.3366C25.4091 32.5632 25.4658 32.7895 25.5177 32.8723ZM26.4786 36.0797L26.4862 36.015C26.4913 35.9769 26.6068 35.0839 26.3322 34.7389C26.3042 34.7015 26.2687 34.6704 26.2279 34.6476C26.1871 34.6247 26.142 34.6107 26.0955 34.6063C26.013 34.5987 25.9564 34.6227 25.9251 34.6746C25.7577 34.9484 26.4147 35.9798 26.4437 36.0245L26.4786 36.0797ZM28.0165 37.7785C27.9852 37.7781 27.9541 37.7839 27.925 37.7956C27.8959 37.8072 27.8694 37.8245 27.847 37.8465C27.8246 37.8684 27.8067 37.8945 27.7944 37.9234C27.7822 37.9522 27.7757 37.9832 27.7754 38.0145C27.7754 38.1471 27.8833 38.2499 28.0165 38.2499C28.0791 38.2499 28.139 38.225 28.1832 38.1808C28.2274 38.1366 28.2522 38.0767 28.2522 38.0142C28.2522 37.9517 28.2274 37.8917 28.1832 37.8475C28.139 37.8033 28.0791 37.7785 28.0165 37.7785ZM24.3955 34.9023C24.2826 34.9023 24.1864 34.9902 24.1864 35.0988C24.1864 35.2103 24.283 35.296 24.3955 35.296C24.511 35.296 24.604 35.2103 24.604 35.0988C24.604 34.9902 24.511 34.9023 24.3955 34.9023ZM27.0342 38.385L27.0088 38.3791C26.8839 38.3791 26.411 38.7928 26.0079 39.2053C25.9724 39.2431 25.0972 40.1408 25.213 40.2577L25.2195 40.265L25.2479 40.2708C25.3742 40.2708 25.8463 39.8557 26.2473 39.4454C26.285 39.4072 27.1617 38.5128 27.0422 38.3915L27.0342 38.385ZM24.4061 40.8119C24.3331 40.8119 24.2187 40.8802 24.1166 40.9822C23.9946 41.1042 23.906 41.2731 23.9714 41.3425L24.036 41.3657C24.1105 41.3657 24.2252 41.2989 24.3269 41.1947C24.446 41.0712 24.5375 40.906 24.4696 40.8359L24.4061 40.8119ZM23.2531 42.4733C23.1634 42.4733 23.0366 42.5471 22.9259 42.6593C22.81 42.7755 22.7436 42.904 22.7436 42.9934C22.7436 43.0275 22.7526 43.0551 22.7741 43.0744L22.8558 43.1056C22.944 43.1056 23.0744 43.034 23.183 42.9211C23.3439 42.7566 23.4085 42.5805 23.3355 42.5042L23.2531 42.4733ZM17.2251 34.1052C17.0522 34.1052 16.9117 34.2036 16.9117 34.3278C16.9117 34.4513 17.0526 34.5464 17.2251 34.5464C17.3994 34.5464 17.5385 34.4513 17.5385 34.3278C17.5388 34.2036 17.3994 34.1052 17.2251 34.1052ZM19.778 34.2839C19.6553 34.2839 19.5598 34.35 19.5598 34.4371C19.5598 34.5188 19.6553 34.586 19.778 34.586C19.8964 34.586 19.9945 34.5185 19.9945 34.4371C19.9945 34.3518 19.8964 34.2839 19.778 34.2839ZM22.8939 35.3265L22.9128 35.2974C22.948 35.1507 22.213 34.9216 21.8201 34.8221C21.3483 34.7015 20.7876 34.6049 20.6638 34.6793L20.6551 34.6851L20.6351 34.7157C20.5995 34.8638 21.3342 35.0901 21.7278 35.1928C22.1992 35.3112 22.7599 35.4049 22.8856 35.3312L22.8939 35.3265Z" fill="white"/>
</svg>
