<svg width="70" height="70" viewBox="0 0 70 70" fill="none" xmlns="http://www.w3.org/2000/svg">
<path fill-rule="evenodd" clip-rule="evenodd" d="M58.5945 7.39318V8.60938L34.999 4.47415L11.4053 8.60938V7.39318L34.999 3.23071L58.5945 7.39318Z" fill="white"/>
<path fill-rule="evenodd" clip-rule="evenodd" d="M35.0444 8.81201C48.5711 8.81201 56.4918 12.6186 57.7756 13.2861V25.3653C57.7756 31.9507 56.2246 38.5111 53.1675 44.8677C46.4761 58.7518 36.4073 64.2034 34.999 64.9149C33.5896 64.2034 23.5132 58.7518 16.8235 44.8677C13.7665 38.5111 12.2158 31.9507 12.2158 25.3653V13.2875C13.5112 12.6208 21.5151 8.81201 35.0444 8.81201Z" fill="white"/>
<path fill-rule="evenodd" clip-rule="evenodd" d="M11.6107 12.689L11.4062 12.8049V25.3653C11.4062 32.0742 12.9834 38.7537 16.0942 45.2174C23.3968 60.3791 34.7185 65.6829 34.8318 65.7349L34.9996 65.8115L35.167 65.7349C35.2814 65.6829 46.5936 60.3776 53.8959 45.2174C57.0082 38.7537 58.5857 32.0742 58.5857 25.3653V12.806L58.3834 12.6898C58.2999 12.6436 50.0251 8.00073 35.045 8.00073C20.066 8.00073 11.6939 12.6426 11.6107 12.689ZM35.045 8.81202C48.5717 8.81202 56.4925 12.6186 57.7762 13.2861V25.3653C57.7762 31.9507 56.2252 38.5111 53.1682 44.8677C46.4767 58.7518 36.4079 64.2034 34.9996 64.9149C33.5902 64.2034 23.5138 58.7518 16.8241 44.8677C13.7671 38.5111 12.2164 31.9507 12.2164 25.3653V13.2875C13.5118 12.6208 21.5157 8.81202 35.045 8.81202Z" fill="black" fill-opacity="0.25"/>
<path fill-rule="evenodd" clip-rule="evenodd" d="M35.2629 46.5971L35.8538 46.8771C36.1944 47.0089 36.4119 46.9508 36.49 46.9181C36.5724 46.8825 36.8844 46.5477 36.9523 46.2626C36.9843 46.1464 36.9672 46.0455 36.9055 45.971C36.6756 45.6987 36.2685 44.4476 36.1174 43.7714C36.0615 43.5205 36.1294 42.8279 36.1821 42.2705C36.2282 41.7918 36.2565 41.4944 36.2325 41.4178C36.1922 41.2994 36.0154 41.185 35.812 41.0561L35.4899 40.8368C35.3181 40.6962 35.3105 40.5048 35.301 40.2993L35.2669 39.9801C35.1921 39.683 33.6803 38.1389 33.4461 38.1247C33.1065 38.1026 33.0183 38.4752 32.9965 38.6992C32.983 38.8303 33.1345 39.4157 33.271 39.9347L33.4217 40.5604C33.5764 41.5442 34.6223 43.2768 35.0683 44.0162L35.28 44.3757C35.3715 44.5841 35.3359 44.7486 35.1732 44.8409C35.0152 44.9317 33.656 44.7897 33.0066 44.6401C32.7277 44.5761 32.3835 44.4371 32.0475 44.3009C31.663 44.1476 31.2984 43.9987 31.0877 43.9882C30.8419 43.9755 30.7253 44.0252 30.6349 44.067L30.4874 44.108L30.3407 44.0612C30.1606 43.9817 29.824 43.8364 28.9048 43.7532C27.5651 43.6276 27.4646 43.897 27.4101 44.0427C27.3436 44.2279 28.1625 45.0987 28.3089 45.2153C28.4952 45.3656 29.0977 45.5948 29.4655 45.5338C29.8861 45.4662 30.5717 45.3813 30.6567 45.3983L30.7947 45.4826L30.9229 45.5734C31.0391 45.6209 31.7879 45.662 32.0141 45.674C32.2752 45.6881 32.9609 45.8301 33.462 45.9351L34.022 46.048C34.2414 46.0883 34.8064 46.3672 35.2629 46.5971Z" fill="black" fill-opacity="0.25"/>
<path fill-rule="evenodd" clip-rule="evenodd" d="M49.1208 29.2228C49.0911 29.1861 49.0664 29.1839 49.0508 29.1879C49.0366 29.1926 49.0173 29.2061 49.0119 29.2497C48.9872 29.4363 48.753 29.916 48.567 29.9869C48.1904 30.1325 47.9954 30.5741 47.8542 30.8958C47.7819 31.0618 47.7114 31.2201 47.6555 31.2223C47.6315 31.2241 47.605 31.1983 47.576 31.1446C47.3439 30.7444 47.4739 30.1325 47.5782 29.6393L47.6021 29.5184C47.6871 29.1026 48.1737 28.5201 48.4646 28.1707L48.5932 28.016C48.7911 27.7691 48.8409 26.9324 48.8038 26.8696C48.7918 26.8659 48.7838 26.8728 48.7791 26.8801C48.7746 26.8837 48.7708 26.8881 48.7679 26.8932L48.7635 26.8924V26.8968C48.7515 26.9099 48.7413 26.9113 48.7315 26.9534C48.6796 27.2149 48.2017 27.7462 47.3853 28.4522C47.2179 28.5971 47.0273 28.8589 46.8711 29.0692C46.7705 29.2072 46.6525 29.3662 46.6213 29.3739C46.419 28.2946 46.785 27.6776 46.959 27.3794L47.04 27.228C47.3853 26.2881 48.2747 25.5764 48.2841 25.5698C48.2961 25.5426 48.2961 25.5135 48.2743 25.495C48.2402 25.4689 48.1777 25.4801 48.0793 25.5295L48.0256 25.5564C47.7154 25.7071 46.78 26.1629 46.2062 27.2603C45.794 28.0505 45.6346 28.9337 45.6346 29.5997C45.6346 29.9397 45.6756 30.2215 45.7453 30.4081C45.9469 30.9456 46.2999 32.2813 46.4084 32.8057C46.476 33.1307 46.4865 34.2467 46.4865 34.9461C46.4865 35.2878 46.4851 35.5271 46.4851 35.5362C46.4829 35.5362 46.3071 36.1035 46.3071 36.1035C46.3064 36.1093 46.2214 36.5523 45.4973 37.2928C44.7681 38.0376 43.9561 38.2744 43.9488 38.2773C43.6227 38.3027 43.3253 38.2893 43.3147 38.2468C43.3147 37.3956 41.857 35.4153 41.1111 34.762C40.35 34.0949 39.7417 33.6169 38.7081 32.988C37.6557 32.3474 36.4853 29.6618 36.4718 29.6357L36.3705 29.2729C36.3705 29.2729 36.3139 28.5484 36.2983 28.3599C36.3364 28.3817 36.3861 28.4126 36.3861 28.4126L36.7449 28.6214L37.1571 28.7797C37.1607 28.7808 37.6968 28.8858 37.6968 28.8858C37.6968 28.8869 37.9967 29.0405 37.9967 29.0405L38.2749 29.2213L38.7074 29.5336L39.1516 29.7672C39.1606 29.7697 39.685 29.7966 39.685 29.7966L39.697 29.7534C39.697 29.7534 39.0898 29.4683 39.0884 29.4683C39.0884 29.4596 38.8697 29.0855 38.8697 29.0855C38.7847 28.9635 38.6999 28.8413 38.6152 28.7191C38.6068 28.7133 38.2996 28.5299 38.2996 28.5299C38.1695 28.5101 38.0393 28.4917 37.9088 28.4747C37.9088 28.4714 37.8322 28.4057 37.7926 28.3701C37.8268 28.3501 37.891 28.3102 37.891 28.3102C37.891 28.3149 38.3094 28.3632 38.3109 28.3632C38.3109 28.3676 38.6831 28.6207 38.6831 28.6207L39.0895 28.9337C39.096 28.937 39.474 29.0837 39.474 29.0837L39.5238 29.1033L39.3578 28.6715C39.2541 28.5721 39.1496 28.4735 39.0444 28.3756L38.5839 27.9841C38.5803 27.9808 38.2222 27.7963 38.2222 27.7963C38.2186 27.7956 37.8366 27.6667 37.8366 27.6667C37.8366 27.666 37.4324 27.4081 37.4324 27.4081C37.4324 27.4081 37.4367 27.3805 37.4396 27.3569C37.4909 27.3765 37.9993 27.5806 37.9993 27.5806C38.0022 27.581 38.4866 27.7128 38.4866 27.7128C38.4859 27.711 38.893 27.8682 38.893 27.8682C38.8915 27.8668 39.4773 28.1526 39.4773 28.1526C39.4824 28.1551 39.9676 28.2604 39.9676 28.2604C39.9759 28.2608 40.566 28.1551 40.566 28.1551C40.5737 28.1515 41.1362 27.76 41.1362 27.76C41.1427 27.7495 41.2462 27.5167 41.2462 27.5167L41.2684 27.4629L41.0875 27.5378C41.0861 27.5378 40.5769 27.7963 40.5762 27.7963L40.2236 27.8751C40.2236 27.8733 39.8256 27.7952 39.8248 27.7952H39.8256C39.8256 27.7905 39.5027 27.4902 39.5027 27.4902L39.0444 27.0464L38.6301 26.8343C38.6243 26.8318 38.1398 26.7533 38.1398 26.7533C38.1398 26.7523 37.8449 26.6023 37.8398 26.5997C37.8413 26.5997 37.842 26.5943 37.842 26.5867C37.842 26.5511 37.8329 26.4734 37.8293 26.437L38.4387 26.4882L39.1062 26.4345C39.1062 26.4363 39.482 26.5129 39.482 26.5129L39.8622 26.6698L40.2515 26.7225L40.3216 26.7319L39.8877 26.3168C39.8833 26.3147 39.4501 26.0016 39.4501 26.0016C39.445 25.9991 39.0869 25.868 39.0869 25.868C39.0804 25.8665 38.4834 25.816 38.4714 25.815C38.4764 25.8146 38.4772 25.8044 38.4772 25.7895C38.4772 25.7532 38.4714 25.7017 38.4681 25.6751L38.7503 25.6272C38.7503 25.629 39.202 25.7307 39.202 25.7307C39.202 25.7322 39.6298 25.9889 39.6298 25.9889L40.0921 26.1469C40.1056 26.1472 40.7672 26.0434 40.7672 26.0434L40.8068 26.0379L40.6053 25.7717C40.594 25.763 40.2613 25.6595 40.2606 25.6595C40.2606 25.6577 39.9861 25.4547 39.9861 25.4547L39.5768 25.1671C39.571 25.1638 39.2656 25.06 39.2656 25.06C39.2605 25.0581 38.779 24.9812 38.7775 24.9808C38.7775 24.9757 38.5407 24.7578 38.5356 24.7542C38.5429 24.7527 38.5578 24.6768 38.5632 24.6423L38.8178 24.7135L39.1454 24.8697L39.6106 25.0171L39.5078 24.8119L39.327 24.6231L39.1686 24.419L39.2373 24.4019C39.2373 24.4081 39.7322 24.6605 39.7322 24.6605L40.1179 24.792C40.1179 24.7941 40.4157 25.0734 40.4157 25.0734C40.42 25.077 40.9837 25.3952 40.9837 25.3952L41.0403 25.4271L40.9375 25.1518C40.9346 25.1457 40.6289 24.7546 40.6289 24.7546L40.3743 24.3144C40.3721 24.3093 39.9113 23.8405 39.9113 23.8405C39.9069 23.8361 39.3204 23.5227 39.319 23.5227C39.319 23.5202 39.0956 23.2671 39.0956 23.2671C38.9589 23.128 38.8225 22.9887 38.6864 22.8491C38.6864 22.8436 38.6446 22.7006 38.6232 22.6279C38.6925 22.6501 39.0205 22.759 39.0205 22.759L39.4795 22.8887C39.4795 22.8898 39.807 23.0938 39.807 23.0938C39.807 23.096 40.0801 23.4276 40.0801 23.4276C40.0899 23.4352 40.525 23.6182 40.525 23.6182L41.6337 23.7621L41.6983 23.77L41.394 23.4497C41.3864 23.4439 40.7988 23.1828 40.7988 23.1828L40.4462 22.9257C40.4462 22.921 40.249 22.5673 40.249 22.5673L40.0435 22.2027C40.0398 22.1972 39.7079 21.8845 39.7079 21.8845C39.7028 21.8809 39.2943 21.6463 39.2943 21.6463L38.8901 21.31C38.8901 21.3068 38.7928 21.1052 38.7307 20.9709L39.0114 21.2414L39.5478 21.711C39.5543 21.715 39.9636 21.8976 39.9636 21.8976L40.314 22.1809L40.7211 22.5963C40.7353 22.6029 41.3715 22.6926 41.3715 22.6926L41.451 22.7042L40.805 22.1446C40.805 22.1344 40.659 21.6859 40.659 21.6859C40.5472 21.5772 40.4344 21.4696 40.3205 21.3631L40.1448 21.1564C40.1448 21.151 39.9697 20.6175 39.9697 20.6175C39.8494 20.4922 39.7281 20.3679 39.6059 20.2445C39.6059 20.2416 39.0223 19.6973 39.0208 19.6951V19.694C39.0208 19.6857 39.0001 19.6025 38.9881 19.5477C39.0328 19.5702 39.0938 19.6025 39.0938 19.6025L39.6295 19.9144C39.6345 19.917 40.2722 20.0993 40.2722 20.0993L40.9375 20.2569L41.7063 20.3796L41.5255 20.0139C41.5128 20.0023 41.1304 19.8465 41.1304 19.8465L40.7756 19.6395C40.7719 19.6384 40.3387 19.4554 40.3387 19.4554L39.957 19.2993C39.957 19.2956 39.7094 18.9761 39.5714 18.7996C39.7039 18.8885 39.9084 19.0276 39.9084 19.0276C39.9182 19.0309 40.2523 19.0574 40.2523 19.0574L41.3 19.0578C41.3 19.0607 41.7241 19.2898 41.7241 19.2905C41.7241 19.292 42.0858 19.682 42.0858 19.682L42.1334 19.7332L42.0895 19.2931C42.0851 19.2804 41.8552 18.9931 41.8552 18.9931C41.8487 18.988 41.2346 18.6489 41.2346 18.6489L40.7465 18.4651C40.7429 18.464 40.0075 18.334 40.0039 18.334V18.3329C40.0039 18.326 39.8633 18.1586 39.8633 18.1586C39.8604 18.1571 39.3251 17.6618 39.3251 17.6618C39.2386 17.6166 39.1518 17.5719 39.0648 17.5278C39.0648 17.5263 38.983 17.4425 38.9322 17.3894H39.2075C39.2075 17.3938 39.6295 17.6473 39.6295 17.6473C39.6331 17.6498 40.1963 17.8314 40.1963 17.8314L40.915 17.9363H40.9143C40.9143 17.944 41.1809 18.2425 41.1809 18.2425L41.5694 18.4811C41.7168 18.5083 41.8644 18.5345 42.0121 18.5599L42.0738 18.5697L41.1645 17.4555C41.1587 17.4501 40.724 17.2158 40.724 17.2158C40.7204 17.2137 40.2105 17.0571 40.2105 17.0571C40.2105 17.0517 39.7616 16.5426 39.7616 16.5426C39.7566 16.5371 39.1944 16.199 39.1944 16.199C39.0585 16.1646 38.9223 16.1315 38.7859 16.0995C38.8113 16.0585 38.8959 15.919 38.8959 15.9183C38.8973 15.9223 39.3462 15.7193 39.3462 15.7193C39.3462 15.7204 40.0042 15.5907 40.0042 15.5907C40.022 15.5755 40.0718 15.4182 40.0718 15.4182C40.0634 15.3917 39.7824 15.2094 39.7824 15.2094C39.6702 15.173 39.5579 15.1372 39.4453 15.1019C39.4246 15.1045 39.2467 15.2087 39.2467 15.2094C39.2467 15.2062 38.6962 15.2312 38.6962 15.2312C38.6962 15.2309 38.0381 15.0761 38.0381 15.0754C38.0381 15.0722 37.3601 14.5071 37.3601 14.5071C37.2563 14.4537 37.1524 14.4006 37.0482 14.348C37.0405 14.3466 35.9206 14.2155 35.9177 14.2155C35.9177 14.2013 35.6544 13.8084 35.6544 13.8084L35.2941 13.4147C35.2927 13.4125 34.8355 13 34.8355 13L34.8213 13.0301L34.6681 13.3693C34.6688 13.3661 34.517 13.6007 34.517 13.6007V13.6065C34.517 13.6497 34.5384 13.8763 34.5384 13.8763C34.545 13.8905 34.6931 14.0423 34.6964 14.0466C34.6888 14.0466 34.6405 14.2827 34.6405 14.2845C34.639 14.2681 34.026 14.2932 34.0249 14.2932C34.0249 14.2903 33.5241 14.0604 33.5241 14.0604C33.5209 14.0582 33.137 13.9282 33.137 13.9282C33.1294 13.9257 32.2364 13.9533 32.2364 13.9533C32.2168 13.9634 32.0653 14.198 32.0653 14.198L32.045 14.2289L32.4379 14.2856C32.4379 14.287 32.496 14.3241 32.5284 14.3448L32.4278 14.4268C32.4278 14.4217 31.8812 14.3967 31.8812 14.3967C31.8721 14.3981 31.4876 14.5539 31.4876 14.5539L31.4476 14.571L31.6383 14.6992C31.6503 14.7036 32.467 14.7293 32.467 14.7293L33.0735 14.8855V14.8862C33.0735 14.8946 33.1889 15.0594 33.1889 15.0594C33.1889 15.0594 33.271 15.1753 33.3019 15.2207L33.0422 15.3638C33.0455 15.3634 32.3043 15.6761 32.3043 15.6761L30.7722 16.5364C30.7707 16.5349 29.7633 16.6853 29.7633 16.6853C29.7557 16.6878 29.3689 16.9032 29.3689 16.9032C29.3606 16.909 29.0501 17.3393 29.0501 17.3393C29.0468 17.3448 28.871 17.8804 28.871 17.8804C28.8572 18.7905 28.8936 18.8115 28.9066 18.8188C28.9368 18.8377 29.1997 18.9866 29.4031 18.8776C29.6333 18.7524 30.1261 18.6292 30.3821 18.5748C30.5085 18.549 30.5677 18.5944 30.5782 18.6412C30.592 18.6924 30.5539 18.7622 30.4595 18.7879L30.4065 18.8036C29.9612 18.9245 29.5069 19.0708 29.5218 19.2426L29.6003 19.3737C29.7989 19.5186 30.3153 19.45 30.5895 19.3879L30.8757 19.3076C31.1226 19.2324 31.4033 19.1486 31.643 19.1754C31.7814 19.1914 31.9034 19.251 32.0475 19.3189C32.2429 19.4133 32.4663 19.5204 32.7993 19.5422C33.3545 19.5807 33.7337 19.6929 33.7634 19.7256C33.8379 19.877 33.79 20.1011 33.7526 20.2812L33.7239 20.4443C33.5684 21.8537 31.9949 23.4472 31.2366 24.2116C31.0318 24.4186 30.8963 24.5552 30.8673 24.6122L30.7801 24.8137C30.7064 25.0008 30.6465 25.162 30.4061 25.2586C30.267 25.3127 29.9427 25.5568 29.5665 25.8386C29.0232 26.2438 28.3496 26.7479 28.164 26.7261C27.8535 26.6894 26.4034 25.6911 26.3424 25.6297C24.9301 24.2632 24.3393 24.5436 23.9855 24.7106L23.9296 24.7368C23.5084 24.9285 23.066 26.1218 23.0261 26.3778L22.8554 27.1129L22.7243 27.6529C22.6855 27.8355 22.5115 28.2844 22.3455 28.718L22.0049 29.6622C21.9486 29.8808 21.8121 30.1881 21.7009 30.4364L21.5502 30.8043C21.4453 31.2361 21.4435 33.601 21.6261 33.8101L21.6341 33.8189L21.6701 33.8294C21.8535 33.8105 22.2471 33.4049 22.436 33.2091L22.4795 33.1637C22.6393 33.0032 22.8089 32.5747 22.8089 32.3946C22.8089 32.2181 22.7265 31.8491 22.6938 31.7485C22.4381 30.9677 22.5347 30.2236 22.5812 29.867L22.5997 29.708C22.6132 29.5424 22.7791 29.359 22.9404 29.1832L23.1441 28.9475C23.256 28.7986 23.3802 28.7492 23.4909 28.7053L23.6729 28.6014L23.7012 28.572C23.8218 28.4511 24.024 28.247 24.1126 27.9739L24.2855 27.2262L24.3233 27.0264C24.332 26.9865 24.3523 26.9643 24.3861 26.9571C24.4547 26.9418 24.5575 26.9963 24.6014 27.0548L25.8514 28.5052C26.1717 28.7779 26.5007 29.1033 26.5007 29.1749L26.5004 29.181C26.5004 29.1799 26.4928 29.1814 26.4928 29.1814C26.3177 29.1995 25.4371 29.0118 25.2907 28.97C24.0941 28.6192 23.5479 28.681 23.1267 29.2083C22.6466 29.8122 22.7977 31.6617 22.8957 31.8644C22.9858 32.0481 23.4237 34.3015 23.4434 34.6018C23.463 34.8963 23.577 35.4229 23.6961 35.5438L23.7288 35.5772C23.8762 35.7232 24.2648 36.1136 24.3334 36.4986C24.4075 36.9176 25.2976 38.0398 25.6372 38.1404C25.6626 38.1478 25.6895 38.149 25.7155 38.1439C25.7415 38.1389 25.7659 38.1277 25.7868 38.1113C26.0457 37.9276 26.1634 37.0295 26.1775 36.6504C26.1942 36.1779 26.0246 35.9495 25.8445 35.7051L25.7755 35.6096C25.643 35.4287 25.4095 35.363 25.2555 35.3198C25.1898 35.3013 25.0997 35.2795 25.0997 35.2591C25.0997 35.2522 25.0815 34.5601 24.8607 34.4264C24.689 34.3207 24.5132 33.6529 24.4925 33.3987C24.4725 33.1463 24.3748 32.5369 24.2437 32.2693C24.1112 32.0006 23.9997 31.5052 24.0564 31.1232C24.08 30.959 24.1969 30.9075 24.292 30.8926C24.4562 30.8664 24.6458 30.9372 24.6752 30.9946C24.7405 31.1261 26.0025 31.8872 26.4281 32.0507C26.6925 32.1509 27.0502 32.453 27.3661 32.7225C27.5909 32.911 27.7841 33.0733 27.9047 33.131C28.0674 33.2095 28.5286 33.2186 28.899 33.2258C29.0955 33.2291 29.2996 33.2338 29.3272 33.2502C29.1768 33.3104 29.1786 33.5741 29.191 33.6591C29.3446 34.7496 33.312 37.7453 33.6189 37.9134C33.9741 38.1041 35.248 39.4343 35.3595 39.6152C35.475 39.7938 35.5872 39.9881 35.5658 40.1377C35.5353 40.3589 35.6239 40.6116 35.8011 40.8179C35.9707 41.01 36.1919 41.1259 36.3963 41.1259C36.5735 41.1259 36.6919 40.9668 36.7794 40.852L36.798 40.8281C37.0347 40.5147 37.3859 40.0557 37.4313 39.3377C37.4796 38.6016 37.8159 38.3092 37.9255 38.29C37.9746 38.2809 38.0105 38.2958 38.0236 38.3281C38.037 38.3615 38.0207 38.4175 37.9542 38.4614C37.809 38.5598 37.7182 38.8856 37.6187 39.2338C37.618 39.2367 37.5816 39.5894 37.5816 39.5894C37.5733 39.8527 37.5631 40.1512 37.3002 40.4406C36.9065 40.8669 36.4548 41.85 36.3378 43.0913C36.267 43.839 36.6037 44.9161 37.338 46.2888L37.3892 46.3869L37.5878 46.7202C37.7886 47.0431 38.1242 47.5798 38.1086 47.7055C38.0872 47.8827 38.0704 48.0218 37.7647 48.4056C37.4284 48.8276 36.2013 50.2555 36.0815 50.2781C35.8374 50.2781 35.7964 50.3093 35.5999 50.4582L35.3929 50.6158C35.1663 50.7767 35.1267 50.8972 35.0886 51.0036C35.0606 51.0839 35.0341 51.154 34.9288 51.2328L34.85 51.2858C34.8337 51.3 34.7894 51.3624 34.2962 51.856C33.7308 52.4149 33.4784 53.0475 33.5655 53.6761C33.5935 53.8726 33.7627 53.9412 34.2646 53.9641C34.7657 53.9873 35.9148 53.1833 35.966 52.9215L35.9838 52.8216C36.0277 52.5855 36.1014 52.1875 36.2314 52.1301C36.3883 52.0615 36.6571 51.7514 36.8542 51.5259L36.8924 51.4834C36.9973 51.3621 37.0227 51.2415 37.0478 51.1267C37.0692 51.036 37.0888 50.9444 37.1484 50.8609C37.1952 50.7999 37.2639 50.7665 37.3434 50.7298C37.4959 50.6568 37.688 50.5639 37.8264 50.2163C37.964 49.8757 38.7855 49.2863 39.3854 48.8574C39.6919 48.6395 39.9323 48.4652 39.9897 48.3886C40.0685 48.2858 40.1168 48.0879 40.1168 47.878C40.1168 47.6289 40.05 47.3638 39.8935 47.2163C39.6658 47.005 39.4515 46.376 39.3876 46.1788V46.1744C39.3876 46.0927 39.38 45.9431 39.3676 45.6646C39.3662 45.6518 39.3662 45.6384 39.3662 45.6264C39.3662 44.8896 40.4614 44.1687 40.9343 43.8582L41.15 43.7093C42.8644 42.1972 43.2 41.0474 43.2635 40.7318L43.2984 40.3538C43.3089 40.092 43.3176 39.8425 43.4756 39.8098C43.5374 39.7978 43.6401 39.8476 43.7026 39.922C43.7382 39.9623 43.7905 40.0462 43.7556 40.1432C43.6775 40.3553 43.6514 42.4873 43.6507 42.5759C43.6565 42.5908 43.8351 42.8015 43.8351 42.8015L43.8678 42.8396L43.8776 42.7898C43.8798 42.7651 43.9782 42.1841 43.9782 41.9786C43.9782 41.7487 44.3479 40.7642 44.4372 40.7471C44.4372 40.75 44.4431 40.7584 44.4431 40.7584C44.4863 40.8945 44.5415 41.2308 44.5415 41.5853C44.5415 41.9335 44.4888 42.2996 44.3196 42.5117C44.0628 42.8294 43.8584 43.3324 43.7251 43.6643L43.6016 43.9465C43.5877 43.9856 43.5816 44.0271 43.5838 44.0685C43.5838 44.3387 43.7229 44.9146 43.8144 45.0218C43.8384 45.0472 43.8577 45.0472 43.8711 45.0425C43.9009 45.0312 43.9277 44.9927 43.9277 44.7665C43.9277 43.9047 44.6519 43.2797 44.6606 43.275C45.299 42.7684 45.4381 41.8289 45.4381 41.1132C45.4381 40.5713 45.3586 40.1577 45.3564 40.1464C45.2554 39.9967 45.1533 39.8478 45.0499 39.6998C45.0648 39.707 45.1479 39.6388 45.1755 39.6166C45.2031 39.6522 45.494 40.0379 45.494 40.0379C45.5431 40.1065 45.6672 40.3066 45.6672 40.3861C45.6672 40.8295 45.7355 41.1331 45.7842 41.3557L45.7962 41.4084C45.8474 41.6445 46.1666 42.3987 46.1807 42.431L46.2149 42.5106L46.2254 42.4241C46.2254 42.4205 46.2759 42.0261 46.2254 41.6888C46.1964 41.4996 46.2327 41.2675 46.2694 41.0169L46.3275 40.4417C46.3275 39.9743 46.2606 39.6791 46.094 39.4103L46.009 39.2814C45.9756 39.2288 45.9429 39.1772 45.9465 39.1667L46.009 39.1398C47.3574 38.6822 47.9849 37.6893 48.2406 37.1395C48.5086 36.557 48.5227 35.66 48.5227 35.4875C48.5227 35.2628 48.5129 34.097 48.3172 33.4982C48.2024 33.1448 48.2391 32.7654 48.2776 32.3557L48.3194 31.6545C48.3194 31.1747 48.5717 30.8185 48.8165 30.4742L49.1081 30.0225C49.2988 29.6462 49.1975 29.3168 49.1208 29.2228Z" fill="black" fill-opacity="0.25"/>
<path fill-rule="evenodd" clip-rule="evenodd" d="M34.0282 14.2073C34.0507 14.2087 34.3372 14.0726 34.3372 14.0726C34.3499 14.0468 34.2835 13.7755 34.2835 13.7755C34.0767 13.5302 33.8688 13.2858 33.6599 13.0423L33.6291 13.0063L33.6185 13.0514L33.5517 13.3452C33.5521 13.3423 33.3538 13.8165 33.3538 13.8165L33.3447 13.8365L33.7624 14.0501L34.0282 14.2073Z" fill="black" fill-opacity="0.25"/>
</svg>
