<svg width="48" height="58" viewBox="0 0 48 58" fill="none" xmlns="http://www.w3.org/2000/svg">
<path fill-rule="evenodd" clip-rule="evenodd" d="M24.0444 0.812012C37.5711 0.812012 45.4918 4.61859 46.7756 5.28606V17.3653C46.7756 23.9507 45.2246 30.5111 42.1675 36.8677C35.4761 50.7518 25.4073 56.2034 23.999 56.9149C22.5896 56.2034 12.5132 50.7518 5.82351 36.8677C2.76649 30.5111 1.21582 23.9507 1.21582 17.3653V5.28751C2.51119 4.62076 10.5151 0.812012 24.0444 0.812012Z" fill="white"/>
<path fill-rule="evenodd" clip-rule="evenodd" d="M0.610705 4.68904L0.40625 4.80489V17.3653C0.40625 24.0742 1.98343 30.7537 5.0942 37.2174C12.3968 52.3791 23.7185 57.6829 23.8318 57.7349L23.9996 57.8115L24.167 57.7349C24.2814 57.6829 35.5936 52.3776 42.8959 37.2174C46.0082 30.7537 47.5857 24.0742 47.5857 17.3653V4.80598L47.3834 4.68977C47.2999 4.64365 39.0251 0.000732422 24.045 0.000732422C9.06601 0.000732422 0.693867 4.64256 0.610705 4.68904ZM24.045 0.812017C37.5717 0.812017 45.4925 4.61859 46.7762 5.28607V17.3653C46.7762 23.9507 45.2252 30.5111 42.1682 36.8677C35.4767 50.7518 25.4079 56.2034 23.9996 56.9149C22.5902 56.2034 12.5138 50.7518 5.82414 36.8677C2.76711 30.5111 1.21644 23.9507 1.21644 17.3653V5.28752C2.51181 4.62077 10.5157 0.812017 24.045 0.812017Z" fill="black" fill-opacity="0.25"/>
<path fill-rule="evenodd" clip-rule="evenodd" d="M24.2629 38.5971L24.8538 38.8771C25.1944 39.0089 25.4119 38.9508 25.49 38.9181C25.5724 38.8825 25.8844 38.5477 25.9523 38.2626C25.9843 38.1464 25.9672 38.0455 25.9055 37.971C25.6756 37.6987 25.2685 36.4476 25.1174 35.7714C25.0615 35.5205 25.1294 34.8279 25.1821 34.2705C25.2282 33.7918 25.2565 33.4944 25.2325 33.4178C25.1922 33.2994 25.0154 33.185 24.812 33.0561L24.4899 32.8368C24.3181 32.6962 24.3105 32.5048 24.301 32.2993L24.2669 31.9801C24.1921 31.683 22.6803 30.1389 22.4461 30.1247C22.1065 30.1026 22.0183 30.4752 21.9965 30.6992C21.983 30.8303 22.1345 31.4157 22.271 31.9347L22.4217 32.5604C22.5764 33.5442 23.6223 35.2768 24.0683 36.0162L24.28 36.3757C24.3715 36.5841 24.3359 36.7486 24.1732 36.8409C24.0152 36.9317 22.656 36.7897 22.0066 36.6401C21.7277 36.5761 21.3835 36.4371 21.0475 36.3009C20.663 36.1476 20.2984 35.9987 20.0877 35.9882C19.8419 35.9755 19.7253 36.0252 19.6349 36.067L19.4874 36.108L19.3407 36.0612C19.1606 35.9817 18.824 35.8364 17.9048 35.7532C16.5651 35.6276 16.4646 35.897 16.4101 36.0427C16.3436 36.2279 17.1625 37.0987 17.3089 37.2153C17.4952 37.3656 18.0977 37.5948 18.4655 37.5338C18.8861 37.4662 19.5717 37.3813 19.6567 37.3983L19.7947 37.4826L19.9229 37.5734C20.0391 37.6209 20.7879 37.662 21.0141 37.674C21.2752 37.6881 21.9609 37.8301 22.462 37.9351L23.022 38.048C23.2414 38.0883 23.8064 38.3672 24.2629 38.5971Z" fill="black" fill-opacity="0.25"/>
<path fill-rule="evenodd" clip-rule="evenodd" d="M38.1208 21.2228C38.0911 21.1861 38.0664 21.1839 38.0508 21.1879C38.0366 21.1926 38.0173 21.2061 38.0119 21.2497C37.9872 21.4363 37.753 21.916 37.567 21.9869C37.1904 22.1325 36.9954 22.5741 36.8542 22.8958C36.7819 23.0618 36.7114 23.2201 36.6555 23.2223C36.6315 23.2241 36.605 23.1983 36.576 23.1446C36.3439 22.7444 36.4739 22.1325 36.5782 21.6393L36.6021 21.5184C36.6871 21.1026 37.1737 20.5201 37.4646 20.1707L37.5932 20.016C37.7911 19.7691 37.8409 18.9324 37.8038 18.8696C37.7918 18.8659 37.7838 18.8728 37.7791 18.8801C37.7746 18.8837 37.7708 18.8881 37.7679 18.8932L37.7635 18.8924V18.8968C37.7515 18.9099 37.7413 18.9113 37.7315 18.9534C37.6796 19.2149 37.2017 19.7462 36.3853 20.4522C36.2179 20.5971 36.0273 20.8589 35.8711 21.0692C35.7705 21.2072 35.6525 21.3662 35.6213 21.3739C35.419 20.2946 35.785 19.6776 35.959 19.3794L36.04 19.228C36.3853 18.2881 37.2747 17.5764 37.2841 17.5698C37.2961 17.5426 37.2961 17.5135 37.2743 17.495C37.2402 17.4689 37.1777 17.4801 37.0793 17.5295L37.0256 17.5564C36.7154 17.7071 35.78 18.1629 35.2062 19.2603C34.794 20.0505 34.6346 20.9337 34.6346 21.5997C34.6346 21.9397 34.6756 22.2215 34.7453 22.4081C34.9469 22.9456 35.2999 24.2813 35.4084 24.8057C35.476 25.1307 35.4865 26.2467 35.4865 26.9461C35.4865 27.2878 35.4851 27.5271 35.4851 27.5362C35.4829 27.5362 35.3071 28.1035 35.3071 28.1035C35.3064 28.1093 35.2214 28.5523 34.4973 29.2928C33.7681 30.0376 32.9561 30.2744 32.9488 30.2773C32.6227 30.3027 32.3253 30.2893 32.3147 30.2468C32.3147 29.3956 30.857 27.4153 30.1111 26.762C29.35 26.0949 28.7417 25.6169 27.7081 24.988C26.6557 24.3474 25.4853 21.6618 25.4718 21.6357L25.3705 21.2729C25.3705 21.2729 25.3139 20.5484 25.2983 20.3599C25.3364 20.3817 25.3861 20.4126 25.3861 20.4126L25.7449 20.6214L26.1571 20.7797C26.1607 20.7808 26.6968 20.8858 26.6968 20.8858C26.6968 20.8869 26.9967 21.0405 26.9967 21.0405L27.2749 21.2213L27.7074 21.5336L28.1516 21.7672C28.1606 21.7697 28.685 21.7966 28.685 21.7966L28.697 21.7534C28.697 21.7534 28.0898 21.4683 28.0884 21.4683C28.0884 21.4596 27.8697 21.0855 27.8697 21.0855C27.7847 20.9635 27.6999 20.8413 27.6152 20.7191C27.6068 20.7133 27.2996 20.5299 27.2996 20.5299C27.1695 20.5101 27.0393 20.4917 26.9088 20.4747C26.9088 20.4714 26.8322 20.4057 26.7926 20.3701C26.8268 20.3501 26.891 20.3102 26.891 20.3102C26.891 20.3149 27.3094 20.3632 27.3109 20.3632C27.3109 20.3676 27.6831 20.6207 27.6831 20.6207L28.0895 20.9337C28.096 20.937 28.474 21.0837 28.474 21.0837L28.5238 21.1033L28.3578 20.6715C28.2541 20.5721 28.1496 20.4735 28.0444 20.3756L27.5839 19.9841C27.5803 19.9808 27.2222 19.7963 27.2222 19.7963C27.2186 19.7956 26.8366 19.6667 26.8366 19.6667C26.8366 19.666 26.4324 19.4081 26.4324 19.4081C26.4324 19.4081 26.4367 19.3805 26.4396 19.3569C26.4909 19.3765 26.9993 19.5806 26.9993 19.5806C27.0022 19.581 27.4866 19.7128 27.4866 19.7128C27.4859 19.711 27.893 19.8682 27.893 19.8682C27.8915 19.8668 28.4773 20.1526 28.4773 20.1526C28.4824 20.1551 28.9676 20.2604 28.9676 20.2604C28.9759 20.2608 29.566 20.1551 29.566 20.1551C29.5737 20.1515 30.1362 19.76 30.1362 19.76C30.1427 19.7495 30.2462 19.5167 30.2462 19.5167L30.2684 19.4629L30.0875 19.5378C30.0861 19.5378 29.5769 19.7963 29.5762 19.7963L29.2236 19.8751C29.2236 19.8733 28.8256 19.7952 28.8248 19.7952H28.8256C28.8256 19.7905 28.5027 19.4902 28.5027 19.4902L28.0444 19.0464L27.6301 18.8343C27.6243 18.8318 27.1398 18.7533 27.1398 18.7533C27.1398 18.7523 26.8449 18.6023 26.8398 18.5997C26.8413 18.5997 26.842 18.5943 26.842 18.5867C26.842 18.5511 26.8329 18.4734 26.8293 18.437L27.4387 18.4882L28.1062 18.4345C28.1062 18.4363 28.482 18.5129 28.482 18.5129L28.8622 18.6698L29.2515 18.7225L29.3216 18.7319L28.8877 18.3168C28.8833 18.3147 28.4501 18.0016 28.4501 18.0016C28.445 17.9991 28.0869 17.868 28.0869 17.868C28.0804 17.8665 27.4834 17.816 27.4714 17.815C27.4765 17.8146 27.4772 17.8044 27.4772 17.7895C27.4772 17.7532 27.4714 17.7017 27.4681 17.6751L27.7503 17.6272C27.7503 17.629 28.202 17.7307 28.202 17.7307C28.202 17.7322 28.6298 17.9889 28.6298 17.9889L29.0921 18.1469C29.1056 18.1472 29.7672 18.0434 29.7672 18.0434L29.8068 18.0379L29.6053 17.7717C29.594 17.763 29.2613 17.6595 29.2606 17.6595C29.2606 17.6577 28.9861 17.4547 28.9861 17.4547L28.5768 17.1671C28.571 17.1638 28.2656 17.06 28.2656 17.06C28.2605 17.0581 27.779 16.9812 27.7775 16.9808C27.7775 16.9757 27.5407 16.7578 27.5356 16.7542C27.5429 16.7527 27.5578 16.6768 27.5632 16.6423L27.8178 16.7135L28.1454 16.8697L28.6106 17.0171L28.5078 16.8119L28.327 16.6231L28.1686 16.419L28.2373 16.4019C28.2373 16.4081 28.7322 16.6605 28.7322 16.6605L29.1179 16.792C29.1179 16.7941 29.4157 17.0734 29.4157 17.0734C29.42 17.077 29.9837 17.3952 29.9837 17.3952L30.0403 17.4271L29.9375 17.1518C29.9346 17.1457 29.6289 16.7546 29.6289 16.7546L29.3743 16.3144C29.3721 16.3093 28.9113 15.8405 28.9113 15.8405C28.9069 15.8361 28.3204 15.5227 28.319 15.5227C28.319 15.5202 28.0956 15.2671 28.0956 15.2671C27.9589 15.128 27.8225 14.9887 27.6864 14.8491C27.6864 14.8436 27.6446 14.7006 27.6232 14.6279C27.6925 14.6501 28.0205 14.759 28.0205 14.759L28.4795 14.8887C28.4795 14.8898 28.807 15.0938 28.807 15.0938C28.807 15.096 29.0801 15.4276 29.0801 15.4276C29.0899 15.4352 29.525 15.6182 29.525 15.6182L30.6337 15.7621L30.6983 15.77L30.394 15.4497C30.3864 15.4439 29.7988 15.1828 29.7988 15.1828L29.4462 14.9257C29.4462 14.921 29.249 14.5673 29.249 14.5673L29.0435 14.2027C29.0398 14.1972 28.7079 13.8845 28.7079 13.8845C28.7028 13.8809 28.2943 13.6463 28.2943 13.6463L27.8901 13.31C27.8901 13.3068 27.7928 13.1052 27.7307 12.9709L28.0114 13.2414L28.5478 13.711C28.5543 13.715 28.9636 13.8976 28.9636 13.8976L29.314 14.1809L29.7211 14.5963C29.7353 14.6029 30.3715 14.6926 30.3715 14.6926L30.451 14.7042L29.805 14.1446C29.805 14.1344 29.659 13.6859 29.659 13.6859C29.5472 13.5772 29.4344 13.4696 29.3205 13.3631L29.1448 13.1564C29.1448 13.151 28.9697 12.6175 28.9697 12.6175C28.8494 12.4922 28.7281 12.3679 28.6059 12.2445C28.6059 12.2416 28.0223 11.6973 28.0208 11.6951V11.694C28.0208 11.6857 28.0001 11.6025 27.9881 11.5477C28.0328 11.5702 28.0938 11.6025 28.0938 11.6025L28.6295 11.9144C28.6345 11.917 29.2722 12.0993 29.2722 12.0993L29.9375 12.2569L30.7063 12.3796L30.5255 12.0139C30.5128 12.0023 30.1304 11.8465 30.1304 11.8465L29.7756 11.6395C29.7719 11.6384 29.3387 11.4554 29.3387 11.4554L28.957 11.2993C28.957 11.2956 28.7094 10.9761 28.5714 10.7996C28.7039 10.8885 28.9084 11.0276 28.9084 11.0276C28.9182 11.0309 29.2523 11.0574 29.2523 11.0574L30.3 11.0578C30.3 11.0607 30.7241 11.2898 30.7241 11.2905C30.7241 11.292 31.0858 11.682 31.0858 11.682L31.1334 11.7332L31.0895 11.2931C31.0851 11.2804 30.8552 10.9931 30.8552 10.9931C30.8487 10.988 30.2346 10.6489 30.2346 10.6489L29.7465 10.4651C29.7429 10.464 29.0075 10.334 29.0039 10.334V10.3329C29.0039 10.326 28.8633 10.1586 28.8633 10.1586C28.8604 10.1571 28.3251 9.6618 28.3251 9.6618C28.2386 9.61659 28.1518 9.57192 28.0648 9.5278C28.0648 9.52634 27.983 9.44246 27.9322 9.38944H28.2075C28.2075 9.39379 28.6295 9.64727 28.6295 9.64727C28.6331 9.64982 29.1963 9.83139 29.1963 9.83139L29.915 9.93634H29.9143C29.9143 9.94397 30.1809 10.2425 30.1809 10.2425L30.5694 10.4811C30.7168 10.5083 30.8644 10.5345 31.0121 10.5599L31.0738 10.5697L30.1645 9.45553C30.1587 9.45008 29.724 9.21585 29.724 9.21585C29.7204 9.21367 29.2105 9.05715 29.2105 9.05715C29.2105 9.0517 28.7616 8.54256 28.7616 8.54256C28.7566 8.53711 28.1944 8.19902 28.1944 8.19902C28.0585 8.16463 27.9223 8.13146 27.7859 8.09951C27.8113 8.05848 27.8959 7.91903 27.8959 7.9183C27.8973 7.9223 28.3462 7.71929 28.3462 7.71929C28.3462 7.72038 29.0042 7.59074 29.0042 7.59074C29.022 7.57548 29.0718 7.41824 29.0718 7.41824C29.0634 7.39173 28.7824 7.20943 28.7824 7.20943C28.6702 7.17301 28.5579 7.13718 28.4453 7.10193C28.4246 7.10447 28.2467 7.2087 28.2467 7.20943C28.2467 7.20616 27.6962 7.23121 27.6962 7.23121C27.6962 7.23085 27.0381 7.07615 27.0381 7.07542C27.0381 7.07215 26.3601 6.50709 26.3601 6.50709C26.2563 6.45365 26.1524 6.40063 26.0482 6.34803C26.0405 6.34657 24.9206 6.21547 24.9177 6.21547C24.9177 6.20131 24.6544 5.80838 24.6544 5.80838L24.2941 5.41472C24.2927 5.41254 23.8355 5 23.8355 5L23.8213 5.03014L23.6681 5.36933C23.6688 5.36606 23.517 5.60066 23.517 5.60066V5.60647C23.517 5.64968 23.5384 5.87629 23.5384 5.87629C23.545 5.89045 23.6931 6.04225 23.6964 6.04661C23.6888 6.04661 23.6405 6.28266 23.6405 6.28447C23.639 6.26813 23.026 6.29319 23.0249 6.29319C23.0249 6.29028 22.5241 6.06041 22.5241 6.06041C22.5209 6.05823 22.137 5.92822 22.137 5.92822C22.1294 5.92568 21.2364 5.95328 21.2364 5.95328C21.2168 5.96345 21.0653 6.19804 21.0653 6.19804L21.045 6.22891L21.4379 6.28556C21.4379 6.28702 21.496 6.32406 21.5284 6.34476L21.4278 6.42683C21.4278 6.42175 20.8812 6.39669 20.8812 6.39669C20.8721 6.39814 20.4876 6.55393 20.4876 6.55393L20.4476 6.571L20.6383 6.6992C20.6503 6.70355 21.467 6.72934 21.467 6.72934L22.0735 6.88549V6.88622C22.0735 6.89457 22.1889 7.05944 22.1889 7.05944C22.1889 7.05944 22.271 7.17529 22.3019 7.22068L22.0422 7.36377C22.0455 7.3634 21.3043 7.67608 21.3043 7.67608L19.7722 8.53639C19.7707 8.53494 18.7633 8.68528 18.7633 8.68528C18.7557 8.68782 18.3689 8.90317 18.3689 8.90317C18.3606 8.90898 18.0501 9.33932 18.0501 9.33932C18.0468 9.34477 17.871 9.88042 17.871 9.88042C17.8572 10.7905 17.8936 10.8115 17.9066 10.8188C17.9368 10.8377 18.1997 10.9866 18.4031 10.8776C18.6333 10.7524 19.1261 10.6292 19.3821 10.5748C19.5085 10.549 19.5677 10.5944 19.5782 10.6412C19.592 10.6924 19.5539 10.7622 19.4595 10.7879L19.4065 10.8036C18.9612 10.9245 18.5069 11.0708 18.5218 11.2426L18.6003 11.3737C18.7989 11.5186 19.3153 11.45 19.5895 11.3879L19.8757 11.3076C20.1226 11.2324 20.4033 11.1486 20.643 11.1754C20.7814 11.1914 20.9034 11.251 21.0475 11.3189C21.2429 11.4133 21.4663 11.5204 21.7993 11.5422C22.3545 11.5807 22.7337 11.6929 22.7634 11.7256C22.8379 11.877 22.79 12.1011 22.7526 12.2812L22.7239 12.4443C22.5684 13.8537 20.9949 15.4472 20.2366 16.2116C20.0318 16.4186 19.8963 16.5552 19.8673 16.6122L19.7801 16.8137C19.7064 17.0008 19.6465 17.162 19.4061 17.2586C19.267 17.3127 18.9427 17.5568 18.5665 17.8386C18.0232 18.2438 17.3496 18.7479 17.164 18.7261C16.8535 18.6894 15.4034 17.6911 15.3424 17.6297C13.9301 16.2632 13.3393 16.5436 12.9855 16.7106L12.9296 16.7368C12.5084 16.9285 12.066 18.1218 12.0261 18.3778L11.8554 19.1129L11.7243 19.6529C11.6855 19.8355 11.5115 20.2844 11.3455 20.718L11.0049 21.6622C10.9486 21.8808 10.8121 22.1881 10.7009 22.4364L10.5502 22.8043C10.4453 23.2361 10.4435 25.601 10.6261 25.8101L10.6341 25.8189L10.6701 25.8294C10.8535 25.8105 11.2471 25.4049 11.436 25.2091L11.4795 25.1637C11.6393 25.0032 11.8089 24.5747 11.8089 24.3946C11.8089 24.2181 11.7265 23.8491 11.6938 23.7485C11.4381 22.9677 11.5347 22.2236 11.5812 21.867L11.5997 21.708C11.6132 21.5424 11.7791 21.359 11.9404 21.1832L12.1441 20.9475C12.256 20.7986 12.3802 20.7492 12.4909 20.7053L12.6729 20.6014L12.7012 20.572C12.8218 20.4511 13.024 20.247 13.1126 19.9739L13.2855 19.2262L13.3233 19.0264C13.332 18.9865 13.3523 18.9643 13.3861 18.9571C13.4547 18.9418 13.5575 18.9963 13.6014 19.0548L14.8514 20.5052C15.1717 20.7779 15.5007 21.1033 15.5007 21.1749L15.5004 21.181C15.5004 21.1799 15.4928 21.1814 15.4928 21.1814C15.3177 21.1995 14.4371 21.0118 14.2907 20.97C13.0941 20.6192 12.5479 20.681 12.1267 21.2083C11.6466 21.8122 11.7977 23.6617 11.8957 23.8644C11.9858 24.0481 12.4237 26.3015 12.4434 26.6018C12.463 26.8963 12.577 27.4229 12.6961 27.5438L12.7288 27.5772C12.8762 27.7232 13.2648 28.1136 13.3334 28.4986C13.4075 28.9176 14.2976 30.0398 14.6372 30.1404C14.6626 30.1478 14.6895 30.149 14.7155 30.1439C14.7415 30.1389 14.7659 30.1277 14.7868 30.1113C15.0457 29.9276 15.1634 29.0295 15.1775 28.6504C15.1942 28.1779 15.0246 27.9495 14.8445 27.7051L14.7755 27.6096C14.643 27.4287 14.4095 27.363 14.2555 27.3198C14.1898 27.3012 14.0997 27.2795 14.0997 27.2591C14.0997 27.2522 14.0815 26.5601 13.8607 26.4264C13.689 26.3207 13.5132 25.6529 13.4925 25.3987C13.4725 25.1463 13.3748 24.5369 13.2437 24.2693C13.1112 24.0006 12.9997 23.5052 13.0564 23.1232C13.08 22.959 13.1969 22.9075 13.292 22.8926C13.4562 22.8664 13.6458 22.9372 13.6752 22.9946C13.7405 23.1261 15.0025 23.8872 15.4281 24.0507C15.6925 24.1509 16.0502 24.453 16.3661 24.7225C16.5909 24.911 16.7841 25.0733 16.9047 25.131C17.0674 25.2095 17.5286 25.2186 17.899 25.2258C18.0955 25.2291 18.2996 25.2338 18.3272 25.2502C18.1768 25.3104 18.1786 25.5741 18.191 25.6591C18.3446 26.7496 22.312 29.7453 22.6189 29.9134C22.9741 30.1041 24.248 31.4343 24.3595 31.6151C24.475 31.7938 24.5872 31.9881 24.5658 32.1377C24.5353 32.3589 24.6239 32.6116 24.8011 32.8179C24.9707 33.01 25.1919 33.1259 25.3963 33.1259C25.5735 33.1259 25.6919 32.9668 25.7794 32.852L25.798 32.8281C26.0347 32.5147 26.3859 32.0557 26.4313 31.3377C26.4796 30.6016 26.8159 30.3092 26.9255 30.29C26.9746 30.2809 27.0105 30.2958 27.0236 30.3281C27.037 30.3615 27.0207 30.4175 26.9542 30.4614C26.809 30.5598 26.7182 30.8856 26.6187 31.2338C26.618 31.2367 26.5816 31.5894 26.5816 31.5894C26.5733 31.8527 26.5631 32.1512 26.3002 32.4406C25.9065 32.8669 25.4548 33.85 25.3378 35.0913C25.267 35.839 25.6037 36.9161 26.338 38.2888L26.3892 38.3869L26.5878 38.7202C26.7886 39.0431 27.1242 39.5798 27.1086 39.7055C27.0872 39.8827 27.0704 40.0218 26.7647 40.4056C26.4284 40.8276 25.2013 42.2555 25.0815 42.2781C24.8374 42.2781 24.7964 42.3093 24.5999 42.4582L24.3929 42.6158C24.1663 42.7767 24.1267 42.8972 24.0886 43.0036C24.0606 43.0839 24.0341 43.154 23.9288 43.2328L23.85 43.2858C23.8337 43.3 23.7894 43.3624 23.2962 43.856C22.7308 44.4149 22.4784 45.0475 22.5655 45.6761C22.5935 45.8726 22.7627 45.9412 23.2646 45.9641C23.7657 45.9873 24.9148 45.1833 24.966 44.9215L24.9838 44.8216C25.0277 44.5855 25.1014 44.1875 25.2314 44.1301C25.3883 44.0615 25.6571 43.7514 25.8542 43.5259L25.8924 43.4834C25.9973 43.3621 26.0227 43.2415 26.0478 43.1267C26.0692 43.036 26.0888 42.9444 26.1484 42.8609C26.1952 42.7999 26.2639 42.7665 26.3434 42.7298C26.4959 42.6568 26.688 42.5639 26.8264 42.2163C26.964 41.8757 27.7855 41.2863 28.3854 40.8574C28.6919 40.6395 28.9323 40.4652 28.9897 40.3886C29.0685 40.2858 29.1168 40.0879 29.1168 39.878C29.1168 39.6289 29.05 39.3638 28.8935 39.2163C28.6658 39.005 28.4515 38.376 28.3876 38.1788V38.1744C28.3876 38.0927 28.38 37.9431 28.3676 37.6646C28.3662 37.6518 28.3662 37.6384 28.3662 37.6264C28.3662 36.8896 29.4614 36.1687 29.9343 35.8582L30.15 35.7093C31.8644 34.1972 32.2 33.0474 32.2635 32.7318L32.2984 32.3538C32.3089 32.092 32.3176 31.8425 32.4756 31.8098C32.5374 31.7978 32.6401 31.8476 32.7026 31.922C32.7382 31.9623 32.7905 32.0462 32.7556 32.1432C32.6775 32.3553 32.6514 34.4873 32.6507 34.5759C32.6565 34.5908 32.8351 34.8015 32.8351 34.8015L32.8678 34.8396L32.8776 34.7898C32.8798 34.7651 32.9782 34.1841 32.9782 33.9786C32.9782 33.7487 33.3479 32.7642 33.4372 32.7471C33.4372 32.75 33.4431 32.7584 33.4431 32.7584C33.4863 32.8945 33.5415 33.2308 33.5415 33.5853C33.5415 33.9335 33.4888 34.2996 33.3196 34.5117C33.0628 34.8294 32.8584 35.3324 32.7251 35.6643L32.6016 35.9465C32.5877 35.9856 32.5817 36.0271 32.5838 36.0685C32.5838 36.3387 32.7229 36.9146 32.8144 37.0218C32.8384 37.0472 32.8577 37.0472 32.8711 37.0425C32.9009 37.0312 32.9277 36.9927 32.9277 36.7665C32.9277 35.9047 33.6519 35.2797 33.6606 35.275C34.299 34.7684 34.4381 33.8289 34.4381 33.1132C34.4381 32.5713 34.3586 32.1577 34.3564 32.1464C34.2554 31.9967 34.1533 31.8478 34.0499 31.6998C34.0648 31.707 34.1479 31.6388 34.1755 31.6166C34.2031 31.6522 34.494 32.0379 34.494 32.0379C34.5431 32.1065 34.6672 32.3066 34.6672 32.3861C34.6672 32.8295 34.7355 33.1331 34.7842 33.3557L34.7962 33.4084C34.8474 33.6445 35.1666 34.3987 35.1807 34.431L35.2149 34.5106L35.2254 34.4241C35.2254 34.4205 35.2759 34.0261 35.2254 33.6888C35.1964 33.4996 35.2327 33.2675 35.2694 33.0169L35.3275 32.4417C35.3275 31.9743 35.2606 31.6791 35.094 31.4103L35.009 31.2814C34.9756 31.2288 34.9429 31.1772 34.9465 31.1667L35.009 31.1398C36.3574 30.6822 36.9849 29.6893 37.2406 29.1395C37.5086 28.557 37.5227 27.66 37.5227 27.4875C37.5227 27.2628 37.5129 26.097 37.3172 25.4982C37.2024 25.1448 37.2391 24.7654 37.2776 24.3557L37.3194 23.6545C37.3194 23.1747 37.5717 22.8185 37.8165 22.4742L38.1081 22.0225C38.2988 21.6462 38.1975 21.3168 38.1208 21.2228Z" fill="black" fill-opacity="0.25"/>
<path fill-rule="evenodd" clip-rule="evenodd" d="M23.0282 6.2073C23.0507 6.20875 23.3372 6.07257 23.3372 6.07257C23.3499 6.04678 23.2835 5.77551 23.2835 5.77551C23.0767 5.53023 22.8688 5.28582 22.6599 5.0423L22.6291 5.00635L22.6185 5.05138L22.5517 5.34517C22.5521 5.34226 22.3538 5.81654 22.3538 5.81654L22.3447 5.83652L22.7624 6.05005L23.0282 6.2073Z" fill="black" fill-opacity="0.25"/>
</svg>
