<svg width="50" height="50" viewBox="0 0 50 50" fill="none" xmlns="http://www.w3.org/2000/svg">
<g clip-path="url(#clip0_293_113)">
<path d="M46.3745 6.97917C46.1789 6.75049 45.9361 6.5669 45.6628 6.44102C45.3895 6.31515 45.0921 6.24998 44.7912 6.25H26.0412C25.7454 6.25037 25.4531 6.31374 25.1836 6.43587C24.9142 6.558 24.6739 6.73611 24.4787 6.95833C24.283 7.18126 24.1371 7.4434 24.0509 7.72724C23.9647 8.01107 23.94 8.31005 23.9787 8.60417L26.062 24.2292C26.0976 24.5028 26.1867 24.7667 26.3242 25.0058C26.4618 25.245 26.6451 25.4547 26.8637 25.623C27.0823 25.7913 27.3319 25.9149 27.5983 25.9867C27.8647 26.0586 28.1426 26.0772 28.4162 26.0417C28.6898 26.0061 28.9537 25.917 29.1928 25.7794C29.432 25.6419 29.6417 25.4586 29.81 25.24C29.9783 25.0214 30.1019 24.7717 30.1737 24.5054C30.2456 24.239 30.2643 23.9611 30.2287 23.6875L28.5412 11C28.5294 10.9288 28.5346 10.8559 28.5563 10.7871C28.578 10.7183 28.6157 10.6557 28.6662 10.6042C28.7099 10.5511 28.7637 10.5072 28.8245 10.475C28.8853 10.4428 28.9519 10.423 29.0204 10.4167H41.6662C41.7426 10.4124 41.8188 10.4273 41.8879 10.4601C41.9571 10.4928 42.0169 10.5424 42.062 10.6042C42.1129 10.6597 42.1506 10.726 42.1722 10.7982C42.1938 10.8703 42.1989 10.9465 42.187 11.0208L39.9162 24.7083C39.825 25.2609 39.9571 25.827 40.2833 26.2822C40.6095 26.7373 41.1032 27.0442 41.6558 27.1354C41.9294 27.1806 42.2092 27.1714 42.4792 27.1084C42.7492 27.0454 43.0042 26.9298 43.2296 26.7683C43.6848 26.4421 43.9917 25.9484 44.0828 25.3958L46.8745 8.72917C46.929 8.41865 46.9123 8.09981 46.8257 7.79668C46.7391 7.49354 46.5848 7.21402 46.3745 6.97917Z" fill="#FD375F"/>
<path d="M39.5833 29.1667H27.0833C26.9864 29.1702 26.8907 29.1442 26.8088 29.0921C26.727 29.04 26.6629 28.9643 26.625 28.875L24.625 25C24.5494 24.8425 24.4353 24.7064 24.2933 24.6045C24.1514 24.5025 23.986 24.438 23.8125 24.4167C23.6374 24.3966 23.46 24.4203 23.2964 24.4857C23.1327 24.5512 22.9879 24.6563 22.875 24.7917L18.9583 29.6042C18.6361 29.9457 18.1975 30.1539 17.7292 30.1875H15.6458C15.5055 30.1847 15.3661 30.2103 15.2359 30.2627C15.1057 30.315 14.9875 30.3932 14.8882 30.4924C14.789 30.5917 14.7108 30.7099 14.6584 30.8401C14.606 30.9703 14.5805 31.1097 14.5833 31.25V43.75C14.5799 43.9123 14.6161 44.073 14.6887 44.2182C14.7613 44.3634 14.8681 44.4887 15 44.5834C19.7917 48.1875 23.5 50 26.0417 50H37.6042C38.5113 50.1535 39.4425 49.948 40.2008 49.4269C40.959 48.9059 41.4847 48.1102 41.6667 47.2084C42.6817 42.2862 43.3776 37.3036 43.75 32.2917C43.75 30.7292 42.3125 29.1667 39.5833 29.1667ZM10.0625 28.125H3.64583C3.5077 28.125 3.37522 28.1799 3.27755 28.2776C3.17987 28.3753 3.125 28.5077 3.125 28.6459V47.3959C3.125 47.534 3.17987 47.6665 3.27755 47.7642C3.37522 47.8618 3.5077 47.9167 3.64583 47.9167H10.0625C10.2367 47.9372 10.4133 47.9208 10.5808 47.8685C10.7482 47.8162 10.9028 47.7293 11.0345 47.6134C11.1662 47.4974 11.2719 47.3551 11.345 47.1956C11.418 47.0361 11.4566 46.863 11.4583 46.6875V29.3542C11.4566 29.1788 11.418 29.0057 11.345 28.8462C11.2719 28.6867 11.1662 28.5443 11.0345 28.4284C10.9028 28.3125 10.7482 28.2255 10.5808 28.1733C10.4133 28.121 10.2367 28.1046 10.0625 28.125ZM32.2917 18.75C32.2917 19.5789 32.6209 20.3737 33.207 20.9598C33.793 21.5458 34.5879 21.875 35.4167 21.875C36.2455 21.875 37.0403 21.5458 37.6264 20.9598C38.2124 20.3737 38.5417 19.5789 38.5417 18.75C38.5417 17.9212 38.2124 17.1264 37.6264 16.5403C37.0403 15.9543 36.2455 15.6251 35.4167 15.6251C34.5879 15.6251 33.793 15.9543 33.207 16.5403C32.6209 17.1264 32.2917 17.9212 32.2917 18.75ZM20.8333 22.9167C21.1374 22.9206 21.4386 22.858 21.7158 22.7331C21.9931 22.6082 22.2396 22.4241 22.4381 22.1938C22.6367 21.9635 22.7824 21.6926 22.8651 21.4C22.9477 21.1074 22.9653 20.8002 22.9167 20.5L20.2708 4.77088C20.2195 4.63673 20.2195 4.48837 20.2708 4.35422C20.3344 4.26947 20.4223 4.20611 20.5228 4.17261C20.6233 4.13911 20.7316 4.13705 20.8333 4.16672H37.5C38.0525 4.16672 38.5824 3.94722 38.9731 3.55652C39.3638 3.16582 39.5833 2.63592 39.5833 2.08338C39.5833 1.53085 39.3638 1.00095 38.9731 0.610245C38.5824 0.219545 38.0525 5.1206e-05 37.5 5.1206e-05H17.7083C17.4043 -0.00387016 17.1031 0.058809 16.8258 0.183688C16.5486 0.308567 16.3021 0.492619 16.1035 0.72292C15.905 0.953222 15.7593 1.22419 15.6766 1.5168C15.5939 1.80941 15.5763 2.11657 15.625 2.41672L18.75 21.1667C18.8299 21.6597 19.0841 22.1076 19.4665 22.4288C19.8489 22.75 20.334 22.9231 20.8333 22.9167Z" fill="#FD375F"/>
</g>
<defs>
<clipPath id="clip0_293_113">
<rect width="50" height="50" fill="white"/>
</clipPath>
</defs>
</svg>
