<svg width="44" height="50" viewBox="0 0 44 50" fill="none" xmlns="http://www.w3.org/2000/svg">
<g clip-path="url(#clip0_106_132)">
<path d="M20.6253 48.7016C19.9378 48.3173 17.9738 46.8146 16.4141 45.4794C13.8254 43.2633 11.5554 40.8226 9.52439 38.0717C5.15352 32.1517 2.4506 25.2648 1.26877 17.0369C0.704868 13.111 0.486109 7.62738 0.844578 6.4037C1.07151 5.62902 1.58781 4.90771 2.24072 4.45316C2.94646 3.96183 5.20056 3.07708 7.22243 2.49782C11.507 1.2703 16.2392 0.682222 21.8547 0.679453C29.0134 0.675923 34.8723 1.62676 39.8152 3.59426C41.5799 4.29668 42.2329 4.80037 42.7424 5.85228L43.0772 6.54337L43.0693 9.5668C43.0473 17.9689 41.143 26.1366 37.6699 32.725C36.7847 34.4042 34.6921 37.6522 33.6567 38.9539C31.7409 41.3626 29.526 43.6737 27.3283 45.5574C25.8442 46.8294 23.6481 48.4876 23.0393 48.7958C22.2911 49.1747 21.4101 49.1403 20.6253 48.7016ZM22.1106 48.4857C21.9958 48.4552 21.8079 48.4552 21.6931 48.4857C21.5782 48.5161 21.6722 48.541 21.9018 48.541C22.1315 48.541 22.2254 48.5161 22.1106 48.4857ZM17.3685 45.4999C17.3685 45.4748 17.2746 45.3796 17.1597 45.2883C16.9705 45.1379 16.9663 45.1421 17.1147 45.334C17.2705 45.5354 17.3685 45.5995 17.3685 45.4999ZM16.6527 44.9015C16.6527 44.8798 16.5051 44.7302 16.3247 44.5689L15.9966 44.2757L16.2858 44.6083C16.5561 44.9192 16.6527 44.9964 16.6527 44.9015ZM14.9825 43.3083C14.5599 42.8759 14.1872 42.5222 14.1544 42.5222C14.1215 42.5222 14.4406 42.8759 14.8633 43.3083C15.2859 43.7406 15.6586 44.0943 15.6914 44.0943C15.7242 44.0943 15.4052 43.7406 14.9825 43.3083ZM13.1931 41.4942C12.7704 41.0618 12.3977 40.7081 12.3649 40.7081C12.3321 40.7081 12.6511 41.0618 13.0738 41.4942C13.4965 41.9265 13.8692 42.2803 13.902 42.2803C13.9348 42.2803 13.6158 41.9265 13.1931 41.4942ZM12.1194 40.3059C12.1194 40.2842 11.9718 40.1346 11.7913 39.9733L11.4633 39.6801L11.7525 40.0127C12.0228 40.3236 12.1194 40.4008 12.1194 40.3059ZM11.4036 39.457C11.4036 39.4341 11.2828 39.3116 11.1352 39.1849L10.8668 38.9545L11.094 39.2266C11.3076 39.4823 11.4036 39.5538 11.4036 39.457ZM10.9264 38.8523C10.9264 38.8294 10.8056 38.7069 10.658 38.5802L10.3896 38.3498L10.6168 38.6219C10.8304 38.8777 10.9264 38.9491 10.9264 38.8523ZM10.4492 38.2437C10.4492 38.2186 10.3553 38.1233 10.2405 38.0321C10.0512 37.8816 10.047 37.8859 10.1954 38.0777C10.3513 38.2792 10.4492 38.3432 10.4492 38.2437ZM10.0913 37.76C10.0913 37.7348 9.99739 37.6396 9.88257 37.5483C9.69335 37.3979 9.68913 37.4022 9.83752 37.594C9.99337 37.7954 10.0913 37.8595 10.0913 37.76ZM9.73344 37.2762C9.73344 37.2511 9.6395 37.1559 9.52467 37.0646C9.33546 36.9141 9.33124 36.9184 9.47963 37.1102C9.63548 37.3117 9.73344 37.3757 9.73344 37.2762ZM8.06327 34.7822C7.99304 34.6492 7.90874 34.5403 7.87593 34.5403C7.84312 34.5403 7.87375 34.6492 7.94398 34.7822C8.01421 34.9152 8.09851 35.0241 8.13132 35.0241C8.16412 35.0241 8.1335 34.9152 8.06327 34.7822ZM7.70538 34.1775C7.63515 34.0445 7.55085 33.9356 7.51804 33.9356C7.48523 33.9356 7.51586 34.0445 7.58608 34.1775C7.65631 34.3105 7.74062 34.4194 7.77342 34.4194C7.80623 34.4194 7.77561 34.3105 7.70538 34.1775ZM7.34749 33.5728C7.27726 33.4398 7.19295 33.3309 7.16014 33.3309C7.12734 33.3309 7.15796 33.4398 7.22819 33.5728C7.29842 33.7058 7.38272 33.8147 7.41553 33.8147C7.44834 33.8147 7.41771 33.7058 7.34749 33.5728ZM6.24832 31.4614C5.90703 30.7657 5.60877 30.2157 5.58553 30.2393C5.53271 30.2929 6.73182 32.7263 6.81102 32.7263C6.84284 32.7263 6.58962 32.1571 6.24832 31.4614ZM5.21469 29.2584C5.07405 29.0132 5.04009 29.0917 5.15521 29.3958C5.19613 29.5039 5.25473 29.5668 5.28545 29.5357C5.31616 29.5046 5.28437 29.3798 5.21469 29.2584ZM16.6751 8.33528C16.589 8.30034 16.4861 8.30464 16.4464 8.34483C16.4068 8.38501 16.4773 8.4136 16.603 8.40835C16.742 8.40254 16.7703 8.37388 16.6751 8.33528ZM42.3018 6.13349C42.3018 6.07434 42.1905 5.89747 42.0545 5.74044L41.8072 5.45493L42.0205 5.84798C42.2418 6.25556 42.3018 6.31644 42.3018 6.13349ZM14.0505 4.34435C13.9644 4.30942 13.8615 4.31372 13.8219 4.3539C13.7822 4.39409 13.8527 4.42267 13.9785 4.41742C14.1174 4.41162 14.1457 4.38296 14.0505 4.34435ZM19.2176 4.18509C19.3364 4.05206 19.4067 3.94322 19.3739 3.94322C19.3411 3.94322 19.2171 4.05206 19.0983 4.18509C18.9796 4.31812 18.9092 4.42697 18.942 4.42697C18.9749 4.42697 19.0989 4.31812 19.2176 4.18509ZM16.1979 4.10248C16.1118 4.06754 16.0089 4.07184 15.9692 4.11203C15.9296 4.15221 16.0001 4.1808 16.1258 4.17555C16.2648 4.16974 16.2931 4.14109 16.1979 4.10248ZM30.5136 1.80467C30.4275 1.76974 30.3246 1.77404 30.285 1.81422C30.2453 1.85441 30.3158 1.88299 30.4416 1.87774C30.5805 1.87194 30.6088 1.84328 30.5136 1.80467ZM29.5593 1.68374C29.4731 1.6488 29.3702 1.6531 29.3306 1.69329C29.291 1.73347 29.3614 1.76206 29.4872 1.7568C29.6262 1.751 29.6544 1.72234 29.5593 1.68374ZM28.6123 1.56532C28.5303 1.53177 28.3961 1.53177 28.3141 1.56532C28.2321 1.59887 28.2992 1.62632 28.4632 1.62632C28.6272 1.62632 28.6943 1.59887 28.6123 1.56532ZM16.7944 1.44186C16.7083 1.40693 16.6054 1.41122 16.5657 1.45141C16.5261 1.4916 16.5965 1.52018 16.7223 1.51493C16.8613 1.50913 16.8896 1.48047 16.7944 1.44186ZM27.2381 1.44067C27.1221 1.41001 26.961 1.41203 26.8802 1.44515C26.7995 1.47828 26.8944 1.50337 27.0913 1.50091C27.2881 1.49844 27.3542 1.47134 27.2381 1.44067ZM19.0664 1.31589C18.8519 1.28898 18.5298 1.28953 18.3506 1.31713C18.1713 1.34472 18.3467 1.36674 18.7404 1.36607C19.1341 1.36538 19.2808 1.34281 19.0664 1.31589ZM25.3892 1.31589C25.1747 1.28898 24.8526 1.28953 24.6734 1.31713C24.4941 1.34472 24.6695 1.36674 25.0632 1.36607C25.4569 1.36538 25.6036 1.34281 25.3892 1.31589Z" fill="#999999" fill-opacity="0.44"/>
<path d="M20.7811 48.7491C18.645 47.612 13.6551 43.1121 11.0597 39.9823C4.45463 32.0172 1.15923 22.3932 0.711904 9.76232C0.601065 6.63264 0.806159 5.82153 1.97856 4.75296C3.47641 3.38776 9.37506 1.68996 14.625 1.11294C24.3748 0.0413492 33.7344 1.04733 40.4195 3.88536C42.288 4.67858 43.013 5.73462 43.1113 7.8061C43.1758 9.16486 42.964 13.2273 42.7149 15.4101C41.1807 28.8552 35.6317 39.0324 25.4891 47.0029C23.3633 48.6735 22.8571 48.9697 22.0433 49.019C21.4951 49.0522 21.2536 49.0006 20.7811 48.7491ZM23.5354 47.846C27.3936 45.1923 31.3694 41.2643 34.2469 37.2632C38.0548 31.9683 40.5655 25.6918 41.8187 18.3346C42.5535 14.0202 42.8651 7.8006 42.4215 6.30134C42.1602 5.41843 41.3557 4.78607 39.6053 4.08787C34.5055 2.05364 27.5274 1.00522 20.411 1.20401C13.9389 1.3848 8.71213 2.31414 4.2289 4.08125C2.94726 4.58641 2.6218 4.77075 2.06446 5.30717C1.42208 5.92544 1.40538 5.9587 1.25891 6.91148C1.08619 8.03504 1.24657 12.3706 1.56515 15.1902C3.11228 28.8828 8.7664 39.0938 19.2263 47.0854C20.8663 48.3384 21.2846 48.5689 21.9184 48.5689C22.4132 48.5689 22.6166 48.4779 23.5354 47.846ZM20.7069 47.9451C20.1512 47.6025 18.5837 46.3978 17.3689 45.3797C10.8758 39.938 6.40079 33.3145 3.83019 25.341C2.84137 22.2739 2.09718 18.668 1.68384 14.9411C1.48378 13.1372 1.24802 7.96483 1.33965 7.38977C1.48513 6.4768 1.49006 6.4676 1.75662 6.61222C2.1355 6.81778 2.30471 6.57434 2.05331 6.18538C1.89852 5.94589 1.88237 5.82013 1.98213 5.63116C2.63525 4.39402 8.61238 2.50166 13.9689 1.83615C16.557 1.5146 18.5892 1.40399 21.9147 1.40368C28.3392 1.40309 33.1852 2.08274 37.8285 3.63558C39.927 4.3374 41.1922 4.89867 41.5309 5.27809C41.742 5.5145 41.7425 5.54035 41.5427 5.88321C41.2815 6.33144 41.369 6.48275 41.8894 6.48275C42.3219 6.48275 42.3136 6.46919 42.4727 7.43229C42.5707 8.02603 42.3297 13.2937 42.1177 15.1902C41.1406 23.9311 38.4011 31.378 33.901 37.5256C31.2497 41.1476 27.1768 45.1464 23.5851 47.6537L22.7306 48.2502L22.5388 47.9725C22.3758 47.7367 22.2737 47.7048 21.8603 47.761C21.5927 47.7974 21.3143 47.9096 21.2417 48.0103C21.1255 48.1713 21.0613 48.1635 20.7069 47.9451ZM18.1358 32.8989C18.3457 32.686 18.3868 32.3633 18.204 32.3633C18.1384 32.3633 18.0847 32.4167 18.0847 32.4819C18.0847 32.5472 17.9505 32.6347 17.7864 32.6764C17.4878 32.7524 17.4187 32.8572 17.5677 33.0083C17.7018 33.1442 17.9389 33.0985 18.1358 32.8989ZM14.9829 31.3282C14.9829 31.2989 14.9293 31.2749 14.8636 31.2749C14.798 31.2749 14.7443 31.3325 14.7443 31.4029C14.7443 31.4734 14.798 31.4974 14.8636 31.4563C14.9293 31.4152 14.9829 31.3575 14.9829 31.3282ZM23.3196 30.3027C23.1193 29.9727 22.9364 29.7027 22.9131 29.7027C22.8899 29.7027 23.0153 29.9936 23.1918 30.3492C23.3683 30.7049 23.5512 30.9749 23.5983 30.9493C23.6453 30.9237 23.5199 30.6327 23.3196 30.3027ZM25.3021 28.2516C25.3444 28.1821 25.2607 28.1436 25.1048 28.1609C24.8908 28.1846 24.8171 28.1147 24.7541 27.8281C24.6796 27.4896 24.6734 27.486 24.6602 27.7737C24.6388 28.2403 25.0998 28.5835 25.3021 28.2516ZM22.6066 26.3928C23.1435 26.29 23.3338 26.1139 23.3338 25.7201C23.3338 25.3663 22.9866 24.7703 22.9797 25.1121C22.9776 25.2147 22.7388 25.5345 22.449 25.8228C22.1593 26.1111 21.8946 26.4539 21.8608 26.5847C21.8059 26.7977 21.8204 26.8041 22 26.6465C22.1102 26.5497 22.3832 26.4356 22.6066 26.3928ZM26.4326 26.1985C25.6423 26.0951 25.3682 25.9585 24.9572 25.4633C24.4456 24.847 24.5865 24.1387 25.2818 23.8321L25.6601 23.6653L25.2352 23.6606C23.9842 23.6466 23.9641 25.3984 25.2077 26.0637C25.5247 26.2333 25.8743 26.3026 26.3759 26.2952L27.0917 26.2847L26.4326 26.1985ZM29.7665 25.0466C29.7613 24.9136 29.73 24.8727 29.6969 24.9559C29.6638 25.039 29.5338 25.1071 29.408 25.1071C29.2823 25.1071 29.1794 25.1479 29.1794 25.1978C29.1794 25.2477 29.3136 25.2885 29.4776 25.2885C29.6995 25.2885 29.7735 25.2265 29.7665 25.0466ZM17.0657 24.3457C17.2653 24.036 17.5541 23.747 17.7076 23.7034C18.0339 23.6108 18.8393 23.8456 19.3064 24.1695C19.7755 24.4949 20.3837 24.5728 20.5803 24.3328C20.6673 24.2265 20.8795 24.1378 21.0519 24.1357C21.3533 24.132 21.3564 24.125 21.1338 23.9543C20.9901 23.8442 20.6278 23.7761 20.1794 23.775C19.302 23.7728 18.919 23.5937 18.6753 23.0719L18.4905 22.6761L18.2644 22.9294C17.9438 23.2885 17.5647 23.2005 17.4868 22.7488L17.4242 22.386L17.0554 22.9302C16.533 23.7012 16.2952 24.2036 16.2952 24.5367C16.2952 25.1758 16.5757 25.1063 17.0657 24.3457ZM24.2584 22.9373C24.3804 22.9083 24.2442 22.1075 24.0523 21.7262C23.8725 21.369 23.7235 21.2389 23.426 21.1793C22.2525 20.9441 21.9625 20.5846 22.0706 19.4989C22.1529 18.6722 22.1447 18.6529 21.5063 18.1703C21.2558 17.9809 20.9922 17.6955 20.9205 17.536C20.7499 17.1565 20.578 17.1699 19.7577 17.6271C18.7954 18.1634 18.7067 18.3492 19.1442 18.9123C19.3385 19.1623 19.5302 19.5911 19.5753 19.8765C19.6207 20.1636 19.7225 20.3905 19.8058 20.3905C20.0261 20.3905 20.232 20.9348 20.232 21.5169C20.232 21.9472 20.3143 22.1227 20.7563 22.6348L21.2805 23.2423L22.7545 23.0933C23.5652 23.0114 24.2419 22.9412 24.2584 22.9373ZM26.8466 22.0175C26.6849 21.582 26.39 20.5888 26.1912 19.8103C25.9812 18.9879 25.6022 17.9265 25.2863 17.2764C24.7707 16.215 24.621 16.0263 24.4792 16.2588C24.4005 16.3879 25.0261 17.9512 25.4763 18.7505C25.6658 19.0871 25.9626 19.934 26.1357 20.6324C26.3169 21.3635 26.5807 22.0946 26.7575 22.3557C26.9263 22.6052 27.0816 22.8093 27.1026 22.8093C27.1235 22.8093 27.0083 22.4529 26.8466 22.0175ZM24.0198 15.7558C23.4013 15.2425 23.7156 14.8651 24.4709 15.214C24.7119 15.3253 24.7717 15.4251 24.73 15.6464C24.6949 15.8323 24.7167 15.8926 24.7914 15.8169C25.0054 15.5999 24.8281 15.2522 24.3934 15.0367C23.6117 14.6492 23.2106 15.1054 23.823 15.6854C24.0271 15.8786 24.2287 16.0348 24.271 16.0324C24.3132 16.03 24.2002 15.9055 24.0198 15.7558ZM29.0065 15.0127C29.1016 14.782 29.1792 14.4691 29.1789 14.3173C29.1783 13.9475 28.78 13.305 28.4402 13.1256L28.1654 12.9805L28.4189 13.269C28.9743 13.9012 29.0776 14.4502 28.7588 15.0753C28.6459 15.2965 28.6256 15.4321 28.7052 15.4321C28.7759 15.4321 28.9115 15.2434 29.0065 15.0127ZM20.2542 12.1634C19.7257 11.8367 19.7629 11.3842 20.3513 10.9826C20.6859 10.7542 20.8934 10.7054 21.3954 10.7368C21.8224 10.7635 22.0218 10.7301 22.0217 10.6319C22.0216 10.5526 22.2765 10.4058 22.5882 10.3056L23.1548 10.1234L22.4391 10.1868C21.343 10.284 20.5651 10.5467 20.0585 10.9906C19.6697 11.3313 19.6105 11.4443 19.678 11.7169C19.7219 11.8945 19.9048 12.1206 20.0844 12.2194C20.5739 12.4886 20.7085 12.4442 20.2542 12.1634ZM4.58707 9.1736C4.54742 6.79846 4.54869 6.78442 4.8142 6.66571C5.21117 6.48823 5.13746 6.35452 4.72332 6.50087L4.36543 6.62735V9.09473C4.36543 10.8032 4.40565 11.5621 4.49619 11.5621C4.58793 11.5621 4.61505 10.8495 4.58707 9.1736ZM24.2684 11.4561C24.3919 11.3767 24.3778 11.3406 24.2053 11.2948C24.083 11.2624 23.9152 11.3093 23.8326 11.399C23.7101 11.5319 23.7219 11.5618 23.8958 11.5603C24.0132 11.5592 24.1809 11.5124 24.2684 11.4561ZM39.0537 6.61523C39.2368 6.68528 39.3271 6.68951 39.2601 6.62488C39.1944 6.56166 39.02 6.47294 38.8723 6.42772L38.6039 6.34551L38.6311 8.8631L38.6583 11.3807L38.6932 8.93566L38.7281 6.49063L39.0537 6.61523ZM6.69174 10.2021C6.76984 10.1246 6.70806 10.1142 6.51279 10.1722C6.04636 10.3107 5.43911 10.5762 5.43911 10.6416C5.43911 10.7302 6.55372 10.3392 6.69174 10.2021ZM7.83621 7.88625C8.34394 5.65858 8.36609 5.59717 8.71736 5.442L9.0777 5.28284L8.76423 5.27811C8.59183 5.27551 8.39702 5.3414 8.33131 5.42455C8.21263 5.57474 7.10238 10.2198 7.11684 10.5056C7.13284 10.8219 7.3343 10.0884 7.83621 7.88625ZM36.829 10.0292C36.6884 9.78406 36.6544 9.86253 36.7695 10.1667C36.8104 10.2747 36.869 10.3377 36.8998 10.3066C36.9305 10.2754 36.8986 10.1506 36.829 10.0292ZM35.2029 5.42371C35.3635 5.45484 35.4666 5.43375 35.4319 5.37684C35.3972 5.31994 35.2378 5.27338 35.0776 5.27338H34.7864L34.8135 7.72235L34.8407 10.1713L34.8757 7.76922L34.9108 5.36711L35.2029 5.42371ZM9.42896 9.45242C9.38405 9.20972 9.32046 9.03836 9.28765 9.07162C9.25484 9.10487 9.26475 9.33066 9.30966 9.57336C9.35458 9.81606 9.41817 9.98743 9.45097 9.95417C9.48378 9.92091 9.47388 9.69513 9.42896 9.45242ZM10.964 7.31173C10.9863 4.98425 10.988 4.97081 11.2549 4.93239C11.4025 4.91113 11.5233 4.83676 11.5233 4.76711C11.5233 4.69481 11.4081 4.67177 11.2549 4.7134C11.1073 4.75351 10.9462 4.78707 10.897 4.78798C10.8478 4.78888 10.8075 5.91434 10.8075 7.28899C10.8075 8.66365 10.8377 9.75778 10.8746 9.7204C10.9114 9.68302 10.9517 8.59912 10.964 7.31173ZM33.5661 4.99694C33.866 4.95075 33.8612 4.94538 33.5039 4.92868L33.1162 4.91056L33.1434 7.35954L33.1705 9.80852L33.2055 7.4278L33.2405 5.04708L33.5661 4.99694ZM12.2505 8.36158C12.0828 7.86883 11.9268 7.48468 11.9038 7.50791C11.8809 7.53114 11.9858 7.98739 12.1369 8.5218C12.2881 9.05621 12.4441 9.44036 12.4836 9.37547C12.5232 9.31058 12.4183 8.85433 12.2505 8.36158ZM31.5337 7.84329C31.5092 7.52734 31.489 7.78584 31.489 8.41774C31.489 9.04964 31.5092 9.30814 31.5337 8.99219C31.5583 8.67624 31.5583 8.15924 31.5337 7.84329ZM13.6707 7.9743C13.6707 7.26481 13.651 6.70698 13.627 6.7347C13.5247 6.85271 13.4633 9.2643 13.5626 9.2643C13.622 9.2643 13.6707 8.6838 13.6707 7.9743ZM15.3408 6.66443V4.3207L15.8758 4.23937C16.1701 4.19464 16.5995 4.18037 16.8301 4.20766C17.0607 4.23495 17.2041 4.21136 17.1487 4.15522C17.0933 4.09908 16.6236 4.0692 16.105 4.08881L15.1619 4.12447L15.1296 6.64259C15.108 8.33225 15.1374 9.13561 15.2191 9.08443C15.2951 9.0368 15.3408 8.12785 15.3408 6.66443ZM29.7486 4.41476L30.0741 4.40271L29.7759 4.31287C29.6118 4.26347 29.4374 4.24489 29.3882 4.2716C29.3389 4.2983 29.3109 5.41898 29.3258 6.76199L29.353 9.20383L29.388 6.81532L29.423 4.42682L29.7486 4.41476ZM37.3848 6.04232C37.7017 6.10845 37.701 6.10621 37.3513 5.94504L36.9934 5.78008L36.9337 7.25008C36.9009 8.05858 36.9009 8.80172 36.9337 8.90149C36.9665 9.00126 37.0085 8.38354 37.0269 7.52877L37.0603 5.97464L37.3848 6.04232ZM19.1141 8.41418C18.7455 7.97019 18.6245 7.42785 18.6366 6.27498C18.6471 5.28613 18.9263 4.39965 19.3141 4.12427C19.4545 4.02461 19.7856 3.94141 20.0498 3.93939C20.4463 3.93635 20.4923 3.91331 20.3129 3.80754C20.014 3.63136 19.5213 3.77701 19.1257 4.15845C18.2849 4.96925 18.2 7.61423 18.9871 8.47523C19.3802 8.90514 19.4812 8.85653 19.1141 8.41418ZM23.3255 3.96101C23.8432 3.98484 24.2044 3.96418 24.1283 3.91509C24.0522 3.866 23.6007 3.825 23.125 3.82398L22.2601 3.82213L22.2873 6.33158L22.3145 8.84102L22.3495 6.37935L22.3844 3.91769L23.3255 3.96101ZM24.1092 8.05493C23.9974 7.71373 23.8791 7.46179 23.8463 7.49504C23.8135 7.5283 23.8781 7.83467 23.9899 8.17587C24.1017 8.51706 24.22 8.76901 24.2528 8.73575C24.2856 8.70249 24.221 8.39612 24.1092 8.05493ZM17.0203 8.22784C17.3027 7.96873 17.327 7.2316 17.0641 6.89891C16.8849 6.67214 16.8828 6.67314 17.0044 6.92831C17.3169 7.58396 17.0166 8.29512 16.4258 8.29866C16.2556 8.29967 16.0357 8.35843 15.9373 8.42923C15.8036 8.5254 15.8889 8.54281 16.2747 8.49809C16.5586 8.46517 16.8941 8.34356 17.0203 8.22784ZM26.0001 8.14563C25.7321 7.62675 25.6401 5.9334 25.8404 5.20801C26.0451 4.46673 26.5624 4.0278 27.1629 4.08585C27.4079 4.10954 27.5829 4.08711 27.5518 4.036C27.5206 3.98488 27.2794 3.94307 27.0158 3.94307C26.4263 3.94307 25.9251 4.39524 25.7317 5.1015C25.5164 5.88731 25.5716 7.43453 25.8358 8.02469C25.9624 8.30739 26.0968 8.53868 26.1345 8.53868C26.1722 8.53868 26.1117 8.36181 26.0001 8.14563ZM8.99691 8.3126C9.12665 8.22921 9.12176 8.10586 8.96942 7.61907L8.78413 7.02696L8.85157 7.57835C8.9118 8.0707 8.88919 8.14428 8.64046 8.26555C8.38748 8.3889 8.38382 8.40195 8.6005 8.4077C8.73173 8.41119 8.91011 8.36839 8.99691 8.3126ZM27.7436 8.18382C27.8115 8.05516 27.8663 7.87829 27.8654 7.79077C27.8644 7.70325 27.7944 7.7677 27.7099 7.93399C27.5858 8.17823 27.4721 8.23374 27.1183 8.22282C26.8775 8.21539 26.709 8.25621 26.744 8.31353C26.8719 8.52335 27.6153 8.42689 27.7436 8.18382ZM20.6196 7.81306C20.7691 7.50973 20.8282 7.09846 20.8282 6.36181C20.8282 5.06934 20.5965 4.50564 20.0429 4.45087C19.8241 4.42923 19.615 4.48763 19.5272 4.59489C19.3978 4.75293 19.4262 4.75744 19.7565 4.6313C20.0966 4.5014 20.1553 4.51447 20.3552 4.7646C20.7875 5.30551 20.8225 7.2538 20.4113 7.89C20.2552 8.13156 20.1354 8.18894 19.8699 8.14943C19.6823 8.12153 19.5579 8.14634 19.5934 8.20457C19.6289 8.26279 19.8274 8.29376 20.0345 8.27339C20.3285 8.24445 20.4567 8.14356 20.6196 7.81306ZM13.6296 4.54668C13.685 4.49367 13.8377 4.42411 13.9689 4.39211C14.1294 4.35298 14.0857 4.32934 13.8352 4.31991L13.463 4.30588L13.0889 5.60595C12.8832 6.32099 12.7182 6.98766 12.7223 7.08743C12.7264 7.18721 12.9095 6.67804 13.1293 5.95595C13.3491 5.23386 13.5742 4.59969 13.6296 4.54668ZM27.9044 6.57164L28.5232 6.52749L27.8373 6.50512C27.1596 6.48302 27.1515 6.48675 27.1676 6.81532C27.181 7.09126 27.1925 7.10259 27.2347 6.88185C27.278 6.656 27.3792 6.60912 27.9044 6.57164ZM17.672 6.61173C17.6288 6.54079 17.5363 6.48275 17.4665 6.48275C17.3874 6.48275 17.3965 6.55214 17.4906 6.66708C17.6542 6.86694 17.8004 6.82234 17.672 6.61173ZM31.5653 5.62308V4.64247L31.8934 4.71972C32.1368 4.77704 32.1753 4.76529 32.0425 4.67422C31.9441 4.6067 31.7696 4.55062 31.6548 4.5496C31.4732 4.54799 31.446 4.67379 31.446 5.51631V6.48486L30.8197 6.43732C30.3322 6.40032 30.2859 6.40968 30.611 6.47957C31.5936 6.69088 31.5653 6.71622 31.5653 5.62308ZM16.8984 6.01784C17.238 5.73905 17.264 5.10707 16.9479 4.8141C16.7443 4.62538 16.7384 4.6252 16.8766 4.81196C17.071 5.07477 17.004 5.76593 16.7724 5.88595C16.674 5.93697 16.4056 6.03214 16.1759 6.09744L15.7584 6.21618L16.1925 6.22853C16.4522 6.23591 16.7359 6.15122 16.8984 6.01784ZM24.1689 5.87806C24.4542 5.58878 24.4805 5.00192 24.22 4.7378C23.9489 4.46297 23.8869 4.50452 24.1025 4.81654C24.5173 5.41694 24.2563 5.8676 23.4129 6.00736L22.9162 6.08966L23.4233 6.1048C23.7854 6.11561 23.9984 6.05084 24.1689 5.87806ZM27.7006 5.06426C27.6609 5.02407 27.6328 5.0955 27.6379 5.22298C27.6437 5.36387 27.6719 5.39253 27.71 5.29605C27.7445 5.20875 27.7402 5.10444 27.7006 5.06426Z" fill="#999999" fill-opacity="0.44"/>
<path d="M20.887 48.775C19.4522 48.0813 15.6966 44.9338 13.1919 42.3258C6.35787 35.2099 2.54457 26.7926 1.14511 15.7344C0.959143 14.2649 0.669103 9.84346 0.667972 8.46072C0.666135 6.21916 1.3709 4.85179 2.90949 4.11172C4.55722 3.31916 7.86237 2.28755 10.3897 1.77697C14.805 0.884993 20.9858 0.489746 25.6599 0.80048C30.8966 1.14862 34.8383 1.88108 38.6358 3.21172C41.3489 4.16239 42.1622 4.7113 42.7657 5.99901C43.075 6.65905 43.0772 6.68459 43.0552 9.32478C42.9646 20.1726 40.1344 29.7414 34.7651 37.3529C32.2418 40.93 28.6654 44.5819 24.8127 47.5155C22.7541 49.083 22.0147 49.3202 20.887 48.775ZM23.482 47.9256C26.294 46.0226 30.7205 41.8748 32.9269 39.0753C35.2934 36.0728 37.8101 31.7394 39.0726 28.4933C41.0137 23.5029 42.1021 18.3952 42.5389 12.2273C42.6848 10.1674 42.6913 7.31008 42.5515 6.69982C42.4812 6.39331 42.4907 6.23755 42.5816 6.20685C42.7565 6.14775 42.3536 5.51526 42.141 5.51526C42.0556 5.51526 41.8555 5.37382 41.6964 5.20094C40.5741 3.98122 34.7998 2.26818 29.5371 1.59367C25.7127 1.10352 19.2792 1.04224 15.4599 1.4596C9.58689 2.10138 3.32311 3.87299 2.05046 5.25226C1.85999 5.45869 1.66475 5.60292 1.61661 5.57276C0.99988 5.18636 1.00729 10.9356 1.62995 15.9159C2.99737 26.8531 6.91859 35.3167 13.9042 42.4088C16.3675 44.9096 19.3632 47.4229 20.9742 48.3402C21.8391 48.8327 22.2393 48.7666 23.482 47.9256ZM21.2295 47.3174C20.9581 47.1573 20.1839 46.6024 19.509 46.0843C18.8342 45.5662 18.2114 45.1423 18.1251 45.1423C18.0388 45.1423 17.793 44.9842 17.5789 44.7909L17.1897 44.4396L17.6371 44.765C18.2387 45.2026 18.2059 45.0802 17.5864 44.5755C17.3124 44.3523 17.1277 44.2343 17.1759 44.3134C17.3746 44.6393 17.0273 44.4225 16.5876 43.9461C16.3283 43.6651 16.2503 43.5422 16.4143 43.673C16.5783 43.8038 15.8251 42.9861 14.7405 41.8559C12.8284 39.8634 11.0001 37.6711 9.79928 35.9309C9.11503 34.9394 8.93446 34.7271 9.13052 35.1449L9.27243 35.4472L9.02794 35.1449C8.89348 34.9786 8.80873 34.7717 8.83962 34.6851C8.87052 34.5985 8.845 34.5594 8.78294 34.5983C8.66363 34.6731 8.26908 34.0092 8.37125 33.9056C8.40409 33.8723 8.16667 33.352 7.84366 32.7494C6.98727 31.1516 6.32733 29.7379 5.56047 27.8585C5.18731 26.9439 4.84988 26.2282 4.81063 26.268C4.77138 26.3078 4.76713 26.2125 4.80118 26.0563C4.84163 25.8707 4.82621 25.8244 4.75673 25.9226C4.60584 26.1359 4.2031 24.9598 4.30348 24.599C4.36589 24.3747 4.35488 24.356 4.24648 24.5024C4.14189 24.6436 4.12855 24.59 4.18626 24.2605C4.24484 23.926 4.23149 23.8753 4.12259 24.0186C4.00577 24.1724 3.99555 24.1664 4.05547 23.9791C4.09434 23.8576 3.99515 23.2318 3.83505 22.5884C3.05901 19.4694 2.24981 13.9192 2.20985 11.4412C2.20371 11.0599 2.17387 10.9674 2.1102 11.1324C2.02604 11.3504 2.01357 11.3459 1.94127 11.0719C1.89834 10.9092 1.86248 10.4903 1.86158 10.1411C1.85911 9.1787 1.6254 9.30256 1.46223 10.3527C1.43639 10.519 1.40876 9.83876 1.40083 8.84103C1.3929 7.8433 1.42585 6.97255 1.47406 6.90603C1.52227 6.83952 1.72202 6.7851 1.91797 6.7851C2.3472 6.7851 2.43433 6.52379 2.17845 6.00384C2.01135 5.66427 2.01858 5.62906 2.31883 5.32022C2.6238 5.00652 3.74776 4.42214 4.36521 4.25624C4.65338 4.17882 4.65237 4.18252 4.33538 4.3658C4.15494 4.47013 4.00731 4.60817 4.00731 4.67256C4.00731 4.8224 4.004 4.82276 4.6038 4.60823C5.20819 4.39206 5.36173 4.3808 5.25204 4.56072C5.19878 4.64808 5.24816 4.66981 5.39412 4.62325C7.96171 3.80419 10.1602 3.25725 12.4775 2.86103C13.5749 2.67339 14.3403 2.4927 14.2073 2.45267C14.0761 2.41318 14.2371 2.40808 14.5652 2.44134C15.0209 2.48754 15.1194 2.47003 14.9827 2.36717C14.8465 2.26468 14.9604 2.24672 15.4599 2.29192C15.8208 2.32459 17.2703 2.30449 18.681 2.24726C23.4373 2.05429 25.422 2.01217 25.2735 2.10734C25.1923 2.15942 25.9224 2.26847 26.896 2.34969C29.059 2.53011 32.3549 3.00724 34.1385 3.39818C34.8674 3.55795 35.5932 3.65955 35.7513 3.62397C35.9864 3.57108 36.0062 3.58469 35.8598 3.69863C35.7124 3.81347 35.7263 3.82509 35.9392 3.76471C36.2477 3.67716 36.8373 3.80745 36.7536 3.9447C36.7211 3.99791 36.8104 4.01075 36.952 3.97322C37.1395 3.92352 37.1841 3.94654 37.1162 4.05792C37.0467 4.17185 37.0914 4.18883 37.2914 4.12448C37.4632 4.06921 37.5327 4.08271 37.4844 4.16196C37.441 4.23306 37.6761 4.37534 38.0361 4.49594C39.2271 4.89492 40.5732 5.53149 40.9108 5.85542C41.6193 6.53518 41.6481 6.67683 41.6216 9.35669C41.601 11.4354 41.3698 15.1301 41.1657 16.6415C41.1016 17.1168 41.1378 17.0354 41.4882 15.9159C41.6236 15.4835 41.7807 15.0708 41.8373 14.9987C41.8939 14.9267 41.9919 14.5729 42.055 14.2126C42.1639 13.5912 42.1666 13.6041 42.1071 14.4646C41.6897 20.5015 39.6286 27.689 36.8594 32.7645C34.503 37.0834 31.0977 41.3592 27.7459 44.2075L26.9722 44.8651L27.5149 44.268C27.8134 43.9396 28.1451 43.4732 28.2519 43.2315C28.3588 42.9898 28.6219 42.5816 28.8365 42.3245L29.2268 41.8569L28.8153 42.2262C28.5889 42.4294 28.0548 42.9157 27.6283 43.307C26.6958 44.1625 24.2798 46.1268 23.1931 46.9129C22.2035 47.6288 21.8728 47.6969 21.2295 47.3174ZM18.2038 32.968C18.7098 32.455 18.4053 32.0917 17.8186 32.5085C17.6039 32.661 17.4073 32.7982 17.3815 32.8135C17.2847 32.8708 17.6433 33.2099 17.8008 33.2099C17.8912 33.2099 18.0725 33.101 18.2038 32.968ZM15.0563 31.1498C15.0661 30.9525 15.0358 30.7911 14.9889 30.7911C14.8269 30.7911 14.5934 31.3803 14.6725 31.5893C14.7869 31.8915 15.0335 31.6092 15.0563 31.1498ZM23.7983 31.0771C24.017 30.9666 24.0392 30.9166 23.9059 30.8343C23.8136 30.7773 23.6237 30.5402 23.4841 30.3074C23.169 29.7822 22.734 29.3026 22.6501 29.3877C22.6154 29.4229 22.7619 29.7277 22.9755 30.0652C23.2959 30.5714 23.3529 30.7613 23.3014 31.1506C23.2325 31.6718 23.3539 31.9415 23.4575 31.497C23.4934 31.3426 23.6468 31.1537 23.7983 31.0771ZM30.1317 30.8818C30.1307 30.7987 30.0837 30.6568 30.0273 30.5666C29.8963 30.3569 29.7236 30.6002 29.821 30.8574C29.9023 31.0723 30.1342 31.0905 30.1317 30.8818ZM25.3616 28.2427C25.3616 28.1857 25.2543 28.0808 25.123 28.0096C24.9918 27.9384 24.8844 27.8004 24.8844 27.703C24.8844 27.6055 24.8308 27.5258 24.7651 27.5258C24.5607 27.5258 24.6308 28.2309 24.8474 28.3538C25.064 28.4766 25.3616 28.4124 25.3616 28.2427ZM15.9695 26.5583L16.0346 25.8932L15.8498 26.3164C15.7482 26.5492 15.6458 27.0118 15.6222 27.3444C15.5801 27.9396 15.582 27.9434 15.742 27.5863C15.8314 27.3867 15.9338 26.9241 15.9695 26.5583ZM22.2356 27.3262C22.2655 27.122 22.3594 27.0864 22.8492 27.0938C23.5183 27.1039 23.8727 26.8564 23.9946 26.294C24.0537 26.0209 24.0119 25.8684 23.8216 25.663C23.6835 25.514 23.3626 24.97 23.1085 24.4542C22.5852 23.3921 22.606 23.3472 23.5772 23.4418C23.9025 23.4735 24.1687 23.4617 24.1687 23.4156C24.1687 23.2569 24.7774 23.0511 25.2469 23.0511C25.5883 23.0511 25.7584 23.1175 25.8665 23.293C25.9485 23.426 26.0965 23.5332 26.1956 23.5312C26.3384 23.5283 26.3324 23.502 26.1669 23.4043C25.7957 23.1851 25.9458 23.0385 26.3334 23.2417C26.6227 23.3933 26.6705 23.4629 26.5422 23.5452C26.4202 23.6235 26.4555 23.6517 26.6739 23.6504C26.9718 23.6487 26.9717 23.6483 26.5826 23.2895C26.2852 23.0152 26.0786 22.9302 25.7098 22.9302C25.4441 22.9302 25.1228 22.8739 24.9959 22.805C24.7129 22.6515 24.6764 22.2651 24.9552 22.3736C25.0597 22.4142 25.2878 22.4783 25.4622 22.5159L25.7792 22.5842L25.4809 22.3184C25.3169 22.1722 25.0351 21.9998 24.8546 21.9353C24.4612 21.7947 24.4266 21.5087 24.7867 21.3736C25.0318 21.2817 25.0266 21.2718 24.6972 21.2025C24.4728 21.1553 24.2728 20.9933 24.1389 20.7501C23.9551 20.4163 23.8871 20.3809 23.5674 20.452C23.1599 20.5428 22.6178 20.2644 22.6178 19.9645C22.6178 19.8662 22.7308 19.6713 22.869 19.5312L23.1201 19.2766L22.8898 18.5335C22.6692 17.822 22.6313 17.7766 21.9991 17.468C21.0196 16.9897 20.9857 16.5898 21.873 15.9786C22.4098 15.6088 22.8308 15.5941 23.4666 15.923C23.9827 16.1899 24.2879 16.719 24.2879 17.3466C24.2879 17.5805 24.5031 17.9923 24.9363 18.5876C25.6085 19.5115 25.8871 20.2172 25.8189 20.8236C25.7865 21.1112 25.7128 21.1866 25.4213 21.2306C25.1067 21.278 25.1283 21.2926 25.6002 21.3515C26.0491 21.4075 26.167 21.4792 26.3199 21.7891C26.5653 22.2866 27.1481 23.0275 27.1498 22.844C27.1505 22.7633 27.0392 22.4096 26.9024 22.0579C26.7656 21.7062 26.4685 20.711 26.2422 19.8463C26.0044 18.9377 25.6184 17.8431 25.3278 17.253C25.0511 16.6913 24.8069 16.1879 24.785 16.1343C24.7632 16.0807 24.8552 16.0368 24.9896 16.0368C25.385 16.0368 26.0568 16.7358 26.5668 17.6778C27.0685 18.6044 27.4725 18.9787 27.9038 18.9165C28.129 18.884 28.1622 18.8094 28.1437 18.3767C28.1189 17.796 27.7292 16.9493 27.3869 16.7326C27.0394 16.5126 27.0986 16.3996 27.5616 16.3996C27.9735 16.3996 28.2096 16.2373 27.9941 16.1022C27.9307 16.0625 27.4797 15.9265 26.9918 15.8C26.504 15.6735 25.5618 15.3177 24.898 15.0092C24.1654 14.6688 23.6032 14.4767 23.4674 14.5204C23.3444 14.56 22.9539 14.8493 22.5998 15.1634C21.6216 16.0309 20.8483 16.5698 19.9932 16.9797C18.5584 17.6676 18.2633 18.1517 17.9182 20.3845C17.8108 21.0797 17.6798 21.6783 17.6271 21.7149C17.4031 21.8703 16.2743 23.4719 16.113 23.8632C15.9009 24.3778 15.8928 24.6342 16.0755 25.0409C16.2481 25.4248 16.6885 25.4505 16.9368 25.0912C17.2128 24.6916 17.4906 24.8762 17.4062 25.4031C17.3614 25.6831 17.3844 25.8327 17.4724 25.8327C17.6837 25.8327 18.0885 25.3688 18.2776 24.9098C18.5041 24.3604 18.724 24.2935 19.2736 24.6066C19.8466 24.9331 20.5172 24.9406 20.913 24.625C21.0787 24.4928 21.2579 24.4121 21.3113 24.4455C21.4412 24.5269 21.6037 24.2574 21.6037 23.9604C21.6037 23.6342 21.9746 23.5834 22.1353 23.8876C22.2315 24.0699 22.227 24.1962 22.118 24.3732C21.907 24.7157 22.0992 24.8332 22.4946 24.6032L22.8331 24.4062L22.8837 24.8454C22.9291 25.2395 22.8757 25.3424 22.3641 25.8476C21.7341 26.4696 21.5633 26.9047 21.7693 27.3628C21.9239 27.7069 22.1828 27.6866 22.2356 27.3262ZM17.6073 24.7968C17.6073 24.4375 17.8022 24.0186 17.9694 24.0186C18.1346 24.0186 18.1116 24.7893 17.9413 24.9619C17.7175 25.1888 17.6073 25.1343 17.6073 24.7968ZM19.2163 23.2138C19.1077 23.1037 18.9705 22.8846 18.9113 22.7269C18.7543 22.3081 18.4749 22.2523 18.1385 22.5727C17.7861 22.9083 17.6495 22.817 17.8195 22.3596C17.8884 22.1746 18.0088 21.5111 18.0873 20.8852C18.3113 19.0982 18.8199 18.8036 19.2274 20.2249C19.3298 20.5819 19.4904 20.9519 19.5841 21.047C19.6779 21.142 19.7546 21.4381 19.7546 21.7048C19.7546 22.0969 19.8461 22.297 20.2318 22.7488C20.4943 23.0562 20.709 23.3316 20.709 23.3608C20.709 23.39 20.4176 23.414 20.0614 23.414C19.6178 23.414 19.3516 23.3509 19.2163 23.2138ZM23.9897 15.6158C23.7023 15.3758 23.6649 15.2947 23.7999 15.2043C24.1303 14.983 24.8643 15.4676 24.6308 15.7528C24.4513 15.9721 24.4044 15.9621 23.9897 15.6158ZM27.529 26.2236C27.6455 26.1055 27.4964 26.0746 26.8111 26.0746C25.5065 26.0746 24.8844 25.6424 24.8844 24.7361C24.8844 23.7389 26.1376 23.4636 26.4564 24.3908C26.5233 24.5852 26.6283 24.7443 26.6898 24.7443C26.7553 24.7443 26.7505 24.6474 26.6781 24.5103C26.4763 24.1281 26.5331 24.0194 26.9423 24.0045C27.2324 23.9939 27.1702 23.9634 26.6955 23.8834C26.3465 23.8245 25.9608 23.722 25.8385 23.6556C25.3514 23.3914 24.5364 23.567 24.2023 24.0082C23.7834 24.5612 24.2716 25.7048 25.123 26.1654C25.5776 26.4112 25.7918 26.4493 26.521 26.4142C26.9945 26.3913 27.4482 26.3055 27.529 26.2236ZM29.9446 25.4534C29.8985 25.3779 29.8551 25.2055 29.8481 25.0704C29.841 24.9353 29.7607 24.7996 29.6696 24.7688C29.569 24.7349 29.5366 24.7666 29.5871 24.8495C29.6382 24.9332 29.5803 24.9861 29.4376 24.9861C29.3095 24.9861 29.1738 25.0678 29.136 25.1675C29.0847 25.3032 29.1549 25.3489 29.4145 25.3489C29.6054 25.3489 29.7947 25.4034 29.8353 25.4699C29.8759 25.5364 29.9359 25.5908 29.9687 25.5908C30.0015 25.5908 29.9906 25.529 29.9446 25.4534ZM29.4645 22.3764C29.5537 22.1408 29.4209 21.2371 29.2971 21.2371C29.1074 21.2371 28.9712 22.3163 29.1394 22.4868C29.27 22.6192 29.3878 22.5792 29.4645 22.3764ZM17.1327 21.7021C17.3937 21.2927 17.6066 20.8981 17.6058 20.8253C17.605 20.7525 17.4718 20.928 17.3097 21.2153C17.1477 21.5027 16.9031 21.8973 16.7662 22.0921C16.6293 22.287 16.549 22.4465 16.5877 22.4465C16.6264 22.4465 16.8717 22.1115 17.1327 21.7021ZM29.8309 19.0339C29.7464 18.5266 29.5649 18.3374 29.4062 18.5912C29.2302 18.873 29.2872 19.5323 29.5072 19.7601C29.7076 19.9675 29.7199 19.9664 29.8115 19.7331C29.864 19.5994 29.8727 19.2848 29.8309 19.0339ZM17.7986 19.2139C17.759 19.1737 17.7308 19.2451 17.736 19.3726C17.7417 19.5135 17.77 19.5422 17.8081 19.4457C17.8425 19.3584 17.8383 19.2541 17.7986 19.2139ZM18.7406 17.488C18.8594 17.355 18.9297 17.2462 18.8969 17.2462C18.8641 17.2462 18.7401 17.355 18.6213 17.488C18.5025 17.6211 18.4322 17.7299 18.465 17.7299C18.4978 17.7299 18.6218 17.6211 18.7406 17.488ZM29.2432 14.6651C29.4008 13.8134 28.6365 12.885 27.6263 12.7011C27.2129 12.6258 27.2135 12.6269 27.7466 12.9101C28.6853 13.4088 29.1078 14.4798 28.6354 15.1635C28.5332 15.3115 28.4881 15.4958 28.5353 15.5731C28.6623 15.7815 29.153 15.152 29.2432 14.6651ZM22.0809 15.3112C22.1997 15.1781 22.27 15.0693 22.2372 15.0693C22.2044 15.0693 22.0804 15.1781 21.9616 15.3112C21.8429 15.4442 21.7726 15.553 21.8054 15.553C21.8382 15.553 21.9622 15.4442 22.0809 15.3112ZM22.8564 14.646C22.9381 14.5462 22.978 14.4646 22.9452 14.4646C22.9124 14.4646 22.8188 14.5462 22.7371 14.646C22.6554 14.7458 22.6154 14.8274 22.6482 14.8274C22.681 14.8274 22.7747 14.7458 22.8564 14.646ZM20.7687 12.3387C19.7385 11.9633 19.6871 11.2631 20.6619 10.8857C21.1341 10.7029 21.4338 10.7084 21.9506 10.9094C22.0766 10.9584 22.1406 10.9168 22.1406 10.786C22.1406 10.5252 22.6094 10.3555 23.3712 10.3407C23.8599 10.3312 23.9271 10.3083 23.6915 10.2318C22.4686 9.83481 20.2121 10.4653 19.698 11.3476L19.4793 11.7229L19.9135 12.1263C20.2513 12.4402 20.4472 12.5277 20.7967 12.5211L21.2459 12.5126L20.7687 12.3387ZM4.6038 9.14917C4.6038 7.12859 4.63201 6.73953 4.78275 6.6809C4.9376 6.62066 4.96169 6.8957 4.96169 8.72389C4.96169 11.0708 4.91787 10.9694 5.79678 10.6551C6.38004 10.4465 6.51257 10.4323 6.51257 10.5784C6.51257 10.636 6.10737 10.833 5.61213 11.0161C5.11689 11.1992 4.73267 11.3703 4.7583 11.3962C4.78394 11.4222 5.21157 11.2952 5.70861 11.114C6.50819 10.8225 6.61795 10.7455 6.6613 10.4461C6.71511 10.0745 6.66586 10.0734 5.81203 10.4277C5.04383 10.7464 5.06678 10.8098 5.1055 8.47807C5.12483 7.31397 5.13523 6.36159 5.12862 6.36167C5.12201 6.36175 4.94753 6.42156 4.7409 6.49459L4.3652 6.62735V9.16234C4.3652 10.8215 4.40642 11.6715 4.4845 11.6226C4.55755 11.5768 4.6038 10.6178 4.6038 9.14917ZM24.3875 11.4561C24.5066 11.3796 24.4776 11.3355 24.2725 11.2811C24.1216 11.2411 23.969 11.2563 23.9333 11.3149C23.8976 11.3736 23.6809 11.4444 23.4518 11.4725C23.1171 11.5134 23.1524 11.5268 23.6318 11.5409C23.9599 11.5505 24.2999 11.5124 24.3875 11.4561ZM38.7478 8.94772L38.713 6.57494L39.0461 6.65834C39.4396 6.75689 39.2872 6.55487 38.8721 6.42773L38.6037 6.34552V8.83288C38.6037 10.2009 38.644 11.3203 38.6932 11.3204C38.7424 11.3204 38.767 10.2527 38.7478 8.94772ZM36.4425 8.91556C36.0378 7.90682 35.6851 7.10329 35.6588 7.12996C35.6325 7.15662 35.8875 7.87905 36.2253 8.73535C36.5632 9.59166 36.8891 10.4223 36.9496 10.5812C37.01 10.74 37.0862 10.8429 37.1189 10.8098C37.1515 10.7767 36.8472 9.9243 36.4425 8.91556ZM7.88304 9.89715C7.996 9.13351 8.04018 9.05405 8.40014 8.96714C8.57583 8.92472 8.80925 8.86309 8.91885 8.83019C9.07796 8.78243 9.14542 8.90371 9.2536 9.43197L9.38909 10.0936L9.75205 9.96529C10.1737 9.81627 10.2021 10.0919 9.46729 7.20058L8.95817 5.19731L8.59119 5.29383C8.24686 5.38438 8.21163 5.44831 8.02038 6.32959C7.90828 6.84618 7.63943 8.03649 7.42294 8.97472L7.02933 10.6806L7.41603 10.5603C7.75708 10.4542 7.81222 10.3759 7.88304 9.89715ZM7.50812 9.92425C7.46926 9.82161 7.46413 9.7106 7.49671 9.67758C7.52929 9.64455 7.58458 9.72853 7.61958 9.8642C7.69392 10.1524 7.61132 10.1969 7.50812 9.92425ZM7.59566 9.33486C7.59049 9.20737 7.61868 9.13594 7.65832 9.17613C7.69796 9.21631 7.7022 9.32062 7.66775 9.40792C7.62967 9.5044 7.60139 9.47574 7.59566 9.33486ZM7.83426 8.24642C7.82908 8.11893 7.85728 8.0475 7.89692 8.08769C7.93656 8.12788 7.9408 8.23219 7.90634 8.31949C7.86826 8.41596 7.83998 8.38731 7.83426 8.24642ZM8.31349 7.96423C8.31978 7.78132 8.38988 7.35955 8.46926 7.02697L8.61359 6.42229L8.76279 7.25749C8.88469 7.93985 8.88347 8.11103 8.75613 8.1929C8.4609 8.38272 8.3019 8.30058 8.31349 7.96423ZM7.95356 7.76267C7.94838 7.63518 7.97657 7.56376 8.01622 7.60394C8.05586 7.64413 8.0601 7.74844 8.02564 7.83574C7.98756 7.93221 7.95928 7.90356 7.95356 7.76267ZM8.13922 7.02697C8.27427 6.21733 8.42764 5.864 8.34919 6.54322C8.31079 6.8758 8.22968 7.22954 8.16895 7.32931C8.09702 7.44748 8.08666 7.34208 8.13922 7.02697ZM8.42316 5.7269C8.42193 5.58471 8.50942 5.51839 8.68975 5.52481C8.86911 5.53118 8.8988 5.55727 8.77923 5.60341C8.68081 5.64139 8.56084 5.73233 8.51263 5.8055C8.45857 5.88756 8.42429 5.85744 8.42316 5.7269ZM35.0248 7.76937V5.42786L35.3528 5.48103C35.6093 5.52258 35.6418 5.50612 35.5019 5.40564C35.4035 5.33494 35.2022 5.27625 35.0546 5.27524L34.7862 5.27338V7.69213C34.7862 9.224 34.8299 10.1109 34.9055 10.1109C34.9809 10.1109 35.0248 9.24974 35.0248 7.76937ZM11.3539 9.62712C11.4906 9.62712 11.5262 9.31964 11.5393 8.0247C11.5483 7.14337 11.5792 6.55834 11.6081 6.72463C11.6918 7.20649 12.3774 9.43582 12.4751 9.54394C12.5239 9.59797 12.5984 9.43471 12.6406 9.18113C12.6828 8.92756 12.9025 8.14866 13.1288 7.45025L13.5403 6.18041L13.4702 7.76424L13.4002 9.34806L13.7693 9.29315L14.1384 9.23823L14.1728 6.77194L14.2073 4.30565L13.8312 4.30577C13.468 4.30588 13.446 4.33608 13.1921 5.18268C13.0475 5.66492 12.8363 6.42973 12.7228 6.88226L12.5165 7.70505L12.0794 6.32289C11.8391 5.5627 11.6424 4.87953 11.6424 4.80472C11.6424 4.65334 11.477 4.6359 11.0757 4.74492C10.8084 4.81754 10.8073 4.8283 10.8073 7.29589C10.8073 9.50586 10.8277 9.76599 10.996 9.70053C11.0998 9.66015 11.2608 9.62712 11.3539 9.62712ZM33.2601 7.37553L33.2253 5.00275L33.5286 5.0799C33.6953 5.12234 33.8318 5.10777 33.8318 5.04754C33.8318 4.98731 33.6707 4.91406 33.4739 4.88478L33.116 4.83153V7.28979C33.116 8.64184 33.1563 9.74812 33.2055 9.74819C33.2547 9.74826 33.2793 8.68056 33.2601 7.37553ZM31.5338 7.66189C31.5097 7.31269 31.49 7.5984 31.49 8.29681C31.49 8.99522 31.5097 9.28094 31.5338 8.93173C31.5579 8.58253 31.5579 8.0111 31.5338 7.66189ZM16.78 8.89174C17.4304 8.72586 17.7568 8.2956 17.8202 7.5204C17.8673 6.94515 17.8377 6.82627 17.5833 6.56837C17.2994 6.28057 17.2976 6.26731 17.5096 6.002C17.8433 5.58416 17.8017 4.73383 17.4289 4.35596C17.1526 4.07585 17.0606 4.05673 16.1465 4.08935L15.1617 4.12448L15.1295 6.6164L15.0973 9.10833L15.726 9.05427C16.0717 9.02454 16.546 8.9514 16.78 8.89174ZM15.8178 7.51072V6.72463H16.2765C16.8269 6.72463 17.1301 7.01134 17.1301 7.53173C17.1301 8.0084 16.8005 8.29681 16.2558 8.29681H15.8178V7.51072ZM15.8654 5.95027C15.8309 5.85926 15.8196 5.54729 15.8401 5.25699C15.8735 4.78472 15.9114 4.7252 16.1996 4.69148C16.7169 4.63096 17.0108 4.85983 17.0108 5.3233C17.0108 5.78818 16.8696 5.93479 16.3203 6.04035C16.0442 6.0934 15.9095 6.06671 15.8654 5.95027ZM29.5371 6.77099C29.5371 4.45815 29.5431 4.4002 29.7757 4.46186C29.9069 4.49665 30.0142 4.48214 30.0142 4.42961C30.0142 4.34412 29.6193 4.19087 29.3879 4.1866C29.3387 4.18569 29.2985 5.30059 29.2985 6.66416C29.2985 8.23634 29.3421 9.14337 29.4178 9.14337C29.4932 9.14337 29.5371 8.27195 29.5371 6.77099ZM37.3844 6.05874C37.7061 6.12077 37.7059 6.11984 37.3511 5.95082L36.9932 5.78033L36.9594 7.17716C36.929 8.43412 36.9081 8.55104 36.7499 8.3447C36.5892 8.13494 36.5848 8.14631 36.6978 8.47822C36.9596 9.24733 36.9942 9.15504 37.0265 7.6L37.0598 5.99616L37.3844 6.05874ZM27.8669 8.82839C28.0623 8.70687 28.0829 8.67228 27.9265 8.72807C27.7953 8.7749 27.5 8.85403 27.2704 8.90392C26.86 8.99306 26.859 8.99478 27.2107 9.00424C27.4076 9.00953 27.7029 8.9304 27.8669 8.82839ZM20.5671 8.65652C21.0458 8.36066 21.2934 7.80038 21.385 6.80569C21.5748 4.74477 20.6448 3.31904 19.477 3.88081C18.8773 4.16927 18.535 4.92872 18.4669 6.1216C18.3424 8.3014 19.2904 9.4456 20.5671 8.65652ZM19.5246 7.94272C19.0339 7.44521 19.0271 5.37771 19.5145 4.85176C19.8784 4.45911 20.1738 4.46655 20.4378 4.87502C20.6032 5.13083 20.6494 5.45542 20.6494 6.36182C20.6494 7.26821 20.6032 7.5928 20.4378 7.84862C20.1893 8.2332 19.8461 8.26857 19.5246 7.94272ZM24.8844 8.65466C24.8844 8.60052 24.73 8.11377 24.5412 7.57299L24.198 6.58977L24.4807 6.40198C25.1214 5.97643 25.1019 4.59199 24.4479 4.0705C24.1937 3.86779 23.964 3.82214 23.1982 3.82214H22.2599V6.30135V8.78056H22.5581C22.8542 8.78056 22.8564 8.7725 22.8564 7.69213V6.60369L23.1844 6.60502C23.4942 6.60627 23.5315 6.66921 23.8528 7.73116C24.1887 8.84146 24.1976 8.8553 24.5388 8.80454C24.7289 8.77625 24.8844 8.70881 24.8844 8.65466ZM24.3707 8.56892C24.3428 8.51903 24.1742 8.02924 23.9959 7.48049L23.6719 6.48275H23.2045C22.9096 6.48275 22.7374 6.42696 22.738 6.33158C22.7387 6.23135 22.9614 6.17385 23.399 6.16093C23.762 6.15021 24.1321 6.07995 24.2214 6.00479C24.6634 5.63292 24.5156 4.69173 23.976 4.44251C23.6219 4.27896 22.8972 4.26196 22.8039 4.41502C22.7673 4.47504 22.7269 5.12664 22.7142 5.86302C22.7014 6.5994 22.661 7.17168 22.6245 7.13475C22.588 7.09782 22.5313 6.3917 22.4985 5.56559L22.4388 4.06357L23.2772 4.06379C24.2526 4.06404 24.5626 4.22799 24.7654 4.8509C24.9519 5.42364 24.8183 5.9393 24.3969 6.27362L24.047 6.55124L24.3985 7.60543C24.6665 8.40903 24.7109 8.65963 24.5857 8.65963C24.4953 8.65963 24.3985 8.61881 24.3707 8.56892ZM22.9051 5.83247C22.8705 5.74087 22.8587 5.40074 22.8791 5.07661C22.9146 4.50984 22.9308 4.48585 23.3018 4.44955C24.0724 4.37413 24.6119 5.39248 24.0228 5.81074C23.6932 6.0448 22.9907 6.05845 22.9051 5.83247ZM26.4524 8.5952C25.9864 8.19763 25.8001 7.60356 25.7903 6.48275C25.7796 5.27227 26.0746 4.46621 26.6114 4.23885C27.1549 4.00864 27.8008 4.2239 28.0826 4.72917C28.1568 4.86223 28.2192 4.89885 28.2212 4.81057C28.2232 4.72231 28.0679 4.49101 27.8761 4.29658C27.6086 4.02543 27.4178 3.94307 27.0571 3.94307C26.0235 3.94307 25.5504 4.82572 25.6206 6.62249C25.669 7.86051 25.9248 8.60355 26.3645 8.7838C26.7986 8.96172 26.8223 8.91073 26.4524 8.5952ZM27.665 8.36321C28.0825 7.94004 28.0051 6.9665 27.554 6.9665C27.4636 6.9665 27.3897 6.87905 27.3897 6.77216C27.3897 6.64463 27.4546 6.60305 27.5784 6.65122C27.6822 6.6916 27.8941 6.72463 28.0494 6.72463C28.3048 6.72463 28.3358 6.78503 28.3754 7.35955L28.4192 7.99447L28.4413 7.23861L28.4634 6.48275H27.8072C27.1917 6.48275 27.1511 6.50095 27.1511 6.77706C27.1511 7.00823 27.2215 7.07958 27.4792 7.10964C27.7671 7.14323 27.8021 7.19228 27.7653 7.51072C27.7034 8.04587 27.5337 8.29715 27.2364 8.29412C26.7938 8.28962 26.441 7.91446 26.3277 7.32773C26.2563 6.95828 26.2187 6.88873 26.2098 7.1098C26.1697 8.10513 27.1158 8.92 27.665 8.36321ZM28.321 8.23314C28.2843 8.19591 28.2176 8.26303 28.1728 8.3823C28.1081 8.55466 28.1218 8.56855 28.2396 8.45C28.3211 8.36796 28.3578 8.27038 28.321 8.23314ZM31.5651 5.68953C31.5651 4.80473 31.5702 4.78964 31.8704 4.78964C32.0435 4.78964 32.1438 4.73729 32.102 4.6687C32.0614 4.60218 31.8972 4.54776 31.737 4.54776C31.4526 4.54776 31.4458 4.57012 31.4458 5.51526C31.4458 6.21248 31.4042 6.48074 31.2967 6.47555C31.2147 6.47158 30.8926 6.42579 30.5809 6.37378C30.2692 6.32178 30.0142 6.32169 30.0142 6.37357C30.0142 6.42546 30.2692 6.50275 30.5809 6.54532C30.8926 6.58788 31.2013 6.63829 31.2669 6.65734C31.5143 6.72919 31.5651 6.56443 31.5651 5.68953ZM26.3725 5.47828C26.4144 5.22513 26.553 4.91221 26.6806 4.78289C26.8081 4.65357 26.8601 4.54776 26.796 4.54776C26.5853 4.54776 26.2955 5.1336 26.2448 5.66182C26.1876 6.25923 26.2609 6.15392 26.3725 5.47828ZM27.8669 5.33954C27.8669 5.17651 27.5759 4.67421 27.4541 4.6268C27.3597 4.59009 27.3751 4.70815 27.5 4.97902C27.6591 5.32398 27.8669 5.52815 27.8669 5.33954ZM28.3441 5.15624C28.3441 5.09181 28.2636 5.07043 28.1651 5.10871C28.0667 5.147 27.9862 5.19971 27.9862 5.22585C27.9862 5.252 28.0667 5.27338 28.1651 5.27338C28.2636 5.27338 28.3441 5.22067 28.3441 5.15624ZM3.83152 4.81299C3.79479 4.77576 3.69853 4.81291 3.6176 4.89557C3.50066 5.015 3.51436 5.0289 3.68439 4.96326C3.80204 4.91785 3.86825 4.85023 3.83152 4.81299Z" fill="#999999" fill-opacity="0.44"/>
<path d="M21.0923 47.1487C20.0949 46.5329 17.6074 44.5187 15.9368 42.974C13.1951 40.4389 10.4455 37.0421 8.57157 33.8751C4.57553 27.1216 2.49949 19.2464 2.25512 9.91439C2.18377 7.18948 2.18873 7.10335 2.44857 6.55922C2.79295 5.83806 3.10243 5.62603 4.7417 4.98824C9.26761 3.22733 14.0458 2.41261 20.5895 2.28609C27.9775 2.14325 34.0858 3.03035 39.0021 4.96015C40.7059 5.62893 41.0091 5.83506 41.3552 6.5599C41.6159 7.10582 41.6204 7.18658 41.5476 9.97553C41.1472 25.3007 35.8644 36.6668 25.0849 45.3951C23.7776 46.4536 22.4135 47.4188 22.0738 47.5257C21.9055 47.5787 21.5967 47.4601 21.0923 47.1487ZM13.8481 36.6956C14.0351 36.6092 14.1722 36.3873 14.2732 36.0077C14.3552 35.6994 14.5057 35.3489 14.6076 35.2288C14.72 35.0964 14.8129 34.6941 14.8435 34.2078C14.8881 33.4979 14.9466 33.3376 15.3512 32.8188C15.6122 32.484 15.8917 31.9361 16.0023 31.542C16.1089 31.1623 16.2798 30.6884 16.3821 30.4888C17.1477 28.9957 17.6419 28.1306 17.7293 28.1306C17.9928 28.1306 18.2035 28.704 18.2035 29.4213C18.2035 29.9868 18.2512 30.2015 18.3949 30.283C18.5658 30.38 18.5676 30.4291 18.4116 30.7426C18.3156 30.9356 18.199 31.2535 18.1527 31.449C18.0372 31.9355 17.6548 32.453 17.2564 32.6619C17.0739 32.7576 16.6755 33.0813 16.371 33.3812C15.9322 33.8136 15.8179 34.0089 15.8194 34.3241C15.8218 34.8572 15.9936 35.1358 16.1943 34.9323C16.4346 34.6887 16.5435 34.7592 16.4584 35.1031C16.3817 35.4128 16.393 35.4213 16.778 35.3432C17.272 35.2431 17.7191 34.9551 17.801 34.6844C17.835 34.5718 17.9102 34.3981 17.968 34.2984C18.0259 34.1986 18.2469 33.7448 18.4591 33.2901C18.7232 32.724 19.0129 32.3236 19.3777 32.0206C19.6707 31.7772 19.9885 31.3887 20.0839 31.1572C20.3657 30.4734 21.1859 29.8895 21.1859 30.3727C21.1859 30.6563 20.7245 31.5118 20.387 31.854C19.9628 32.284 19.636 32.8605 19.6355 33.1797C19.635 33.4598 19.8028 33.545 19.9333 33.3309C20.0633 33.1177 20.2114 33.2016 20.1468 33.4518C20.0944 33.655 20.1432 33.6937 20.4522 33.6937C21.0651 33.6937 21.6418 33.3437 21.7305 32.9179C21.7732 32.7127 21.9117 32.3718 22.0383 32.1604C22.189 31.9089 22.2424 31.6708 22.1931 31.4715C22.1125 31.146 22.3313 30.3074 22.4968 30.3074C22.6202 30.3074 23.052 31.209 23.163 31.6982C23.2083 31.8978 23.3507 32.1788 23.4794 32.3228C23.6975 32.5665 23.7927 32.58 24.8655 32.5191C25.9754 32.4562 26.0284 32.4401 26.3157 32.0806C26.532 31.8101 26.6325 31.5066 26.6813 30.9772C26.7673 30.0439 27.1717 29.4089 28.1006 28.7483L28.7954 28.2543L28.9665 28.525C29.0606 28.6739 29.2643 29.1091 29.4192 29.492C29.6779 30.1319 29.6885 30.2368 29.5494 30.7868C29.4662 31.116 29.4338 31.4992 29.4773 31.6384C29.5215 31.7794 29.4629 32.1556 29.3449 32.488L29.1333 33.0847L29.4155 33.3892C29.7358 33.7348 29.9568 33.7772 30.0571 33.5123C30.148 33.2722 30.3719 33.2794 30.3719 33.5223C30.3719 33.7796 30.6061 33.6852 30.8755 33.3194C31.0818 33.0393 31.0837 32.9872 30.9069 32.4804C30.8032 32.1832 30.7424 31.8463 30.7718 31.7316C30.8011 31.6169 30.7719 31.2904 30.7068 31.006C30.5581 30.3562 30.5661 29.5949 30.73 28.7946C30.8452 28.2322 30.8289 28.1104 30.5599 27.5218C30.3963 27.1638 30.2848 26.8482 30.3122 26.8204C30.3396 26.7927 30.5655 26.8511 30.8143 26.9502C31.971 27.4112 32.8748 27.3061 33.4236 26.6468L33.7488 26.256L33.0445 26.1951C32.2439 26.1258 32.2073 26.1076 31.3623 25.3575C30.7668 24.8289 30.7448 24.7875 30.8088 24.3147C30.8465 24.0356 30.7876 23.4227 30.6728 22.8995C30.4861 22.0488 30.4851 21.925 30.6597 21.3162C30.7638 20.9529 30.8491 20.4959 30.8491 20.3005C30.8491 19.7161 30.5278 18.8142 30.1497 18.3373C29.9546 18.0911 29.7367 17.6707 29.6656 17.4031C29.5946 17.1355 29.4046 16.7197 29.2435 16.479C28.9673 16.0665 28.9605 16.0173 29.1244 15.6198C29.22 15.3878 29.2982 14.8989 29.2982 14.5332C29.2982 13.9556 29.2473 13.8097 28.9105 13.4207C28.1794 12.5767 27.8373 12.4998 24.3473 12.3953C20.3185 12.2747 19.6839 12.1215 20.3097 11.4205C20.5658 11.1336 20.9835 11.1411 21.8532 11.4481C22.803 11.7834 23.9652 11.8667 24.6456 11.6483C25.2297 11.4607 25.2402 11.4706 24.228 11.2575C24.064 11.223 23.9298 11.1343 23.9298 11.0604C23.9298 10.97 24.1152 10.951 24.4965 11.0025C26.0562 11.2128 26.3157 11.2282 26.3157 11.1102C26.3157 10.914 25.2682 10.5108 24.1752 10.2864C22.4178 9.92554 20.7239 10.2246 19.9223 11.0372C19.4296 11.5366 19.3733 12.0671 19.7842 12.3387C20.3009 12.6803 21.1503 12.785 24.1841 12.8811C26.9584 12.969 27.2912 13.0022 27.7733 13.2388C28.3664 13.5299 28.6241 13.9099 28.6084 14.4704C28.5953 14.9357 28.2879 15.4322 28.013 15.4321C27.5475 15.4318 26.0062 15.0401 24.915 14.6447C24.2747 14.4127 23.6435 14.2231 23.5122 14.2235C23.2159 14.2242 22.8681 14.4557 21.8369 15.3381C21.3921 15.7187 20.6007 16.2557 20.0781 16.5313C18.3865 17.4234 17.8643 18.1328 17.6292 19.8586C17.5018 20.7934 17.3439 21.1673 16.6164 22.2567C16.0123 23.161 15.5847 24.3764 15.5815 25.1981C15.5799 25.5948 15.44 26.2303 15.2089 26.8912C14.9028 27.7661 14.8342 28.1585 14.812 29.1585C14.7891 30.1957 14.742 30.4482 14.4814 30.9317C14.2936 31.28 14.1452 31.8008 14.0931 32.294C14.0162 33.0215 13.9567 33.1539 13.423 33.7861C13.1008 34.1676 12.8367 34.5459 12.8362 34.6267C12.8355 34.7076 12.6731 34.9608 12.475 35.1894C12.0199 35.7149 11.7968 36.3176 11.9863 36.5097C12.0871 36.6119 12.1686 36.5787 12.3061 36.3796C12.5677 36.001 12.7177 36.0466 12.5984 36.4686C12.5297 36.7113 12.5419 36.8443 12.6365 36.8862C12.8162 36.9656 13.4946 36.8589 13.8481 36.6956ZM22.9789 11.325C22.644 11.1104 22.9632 11.0542 23.475 11.2377L23.9894 11.4221L23.5719 11.4298C23.3422 11.4341 23.0754 11.3869 22.9789 11.325ZM5.76669 11.1774C6.69128 10.8357 6.7509 10.7924 6.7509 10.4623C6.7509 10.2691 6.73246 10.1109 6.70993 10.1109C6.68739 10.1109 6.35688 10.2198 5.97546 10.3528C5.59404 10.4858 5.26354 10.5947 5.241 10.5947C5.21847 10.5947 5.20003 9.6423 5.20003 8.47828C5.20003 7.31426 5.1812 6.36188 5.15818 6.36188C5.13517 6.36188 4.94727 6.42163 4.74064 6.49465L4.36494 6.62742V9.16821C4.36494 11.5394 4.37888 11.7034 4.57372 11.6251C4.68854 11.5789 5.22538 11.3774 5.76669 11.1774ZM39.4385 9.15527V6.62742L39.0628 6.49465C38.8562 6.42163 38.6683 6.36188 38.6453 6.36188C38.6223 6.36188 38.6034 7.49687 38.6034 8.88407V11.4063L38.9911 11.5323C39.2044 11.6017 39.3923 11.664 39.4087 11.6708C39.4251 11.6776 39.4385 10.5456 39.4385 9.15527ZM37.6216 8.45667L37.5894 5.95584L37.2613 5.86698L36.9333 5.77812L36.9314 7.1282C36.9293 8.67551 36.9172 8.67082 36.2028 6.84563C35.6793 5.508 35.509 5.27345 35.0613 5.27345H34.7859V7.75266C34.7859 9.65452 34.8206 10.2323 34.935 10.2335C35.017 10.2344 35.2032 10.2675 35.3488 10.3071C35.6102 10.3781 35.6138 10.3612 35.647 8.90619L35.6806 7.43337L36.333 9.08326C36.6918 9.99071 37.0676 10.782 37.1681 10.8416C37.6423 11.1232 37.6551 11.0557 37.6216 8.45667ZM7.84046 10.5216C7.882 10.497 7.95287 10.1778 7.99793 9.8121C8.08995 9.06552 8.08222 9.07522 8.67597 8.9623L9.10799 8.88014L9.25239 9.49035C9.39403 10.0889 9.40401 10.0992 9.77384 10.0279C9.98122 9.98795 10.1728 9.93635 10.1995 9.91325C10.2596 9.86136 9.12812 5.36249 9.02923 5.26002C8.99 5.21938 8.79345 5.23191 8.59244 5.28787C8.22988 5.3888 8.22343 5.40525 7.78161 7.35723C7.53667 8.43942 7.26229 9.64119 7.17189 10.0278L7.00753 10.7308L7.38623 10.6485C7.59452 10.6033 7.79892 10.5461 7.84046 10.5216ZM8.35749 8.06757C8.39697 7.94145 8.47084 7.60132 8.52163 7.31171L8.61399 6.78516L8.77125 7.43371C8.9036 7.97954 8.9025 8.09895 8.76427 8.18771C8.47657 8.37245 8.28019 8.31445 8.35749 8.06757ZM33.9508 7.51792C33.9508 6.15828 33.9105 5.02295 33.8613 4.99496C33.8121 4.96698 33.6242 4.90831 33.4438 4.86459L33.1157 4.78509V7.31904V9.85299L33.4438 9.90338C33.6242 9.93109 33.8121 9.96191 33.8613 9.97188C33.9105 9.98184 33.9508 8.87756 33.9508 7.51792ZM11.4236 9.68663C11.5398 9.64164 11.5721 9.40533 11.5439 8.80615C11.5227 8.35571 11.5227 7.77114 11.5439 7.5071C11.5796 7.06214 11.6164 7.12806 12.0466 8.40869L12.5108 9.79035L12.9414 8.24101L13.3719 6.69167L13.4058 8.04987C13.4349 9.21771 13.4655 9.398 13.6243 9.33622C13.7259 9.29671 13.912 9.26437 14.0378 9.26437C14.2561 9.26437 14.2667 9.148 14.2667 6.74898V4.23358L13.8595 4.28177C13.4606 4.32898 13.4459 4.35123 13.1371 5.37616C12.9637 5.95156 12.7516 6.64004 12.6658 6.9061L12.5098 7.38985L12.1215 6.12001C11.908 5.4216 11.6912 4.80385 11.6398 4.74723C11.5884 4.69062 11.38 4.68134 11.1767 4.72661L10.807 4.80892V7.27852C10.807 9.6324 10.8178 9.74812 11.0359 9.74812C11.1617 9.74812 11.3362 9.72045 11.4236 9.68663ZM32.1339 7.11774L32.1017 4.6083L31.7736 4.57003L31.4456 4.53176V5.50872V6.48568L30.9385 6.4137C30.1065 6.29557 30.1333 6.33338 30.1333 5.27725C30.1333 4.58172 30.0909 4.30548 29.9842 4.3043C29.9021 4.30339 29.7142 4.26984 29.5666 4.22973L29.2982 4.15681V6.69736V9.23791L29.7157 9.28733L30.1333 9.33674V8.21212C30.1333 6.96641 30.0942 7.01366 30.9982 7.16513L31.4456 7.24009V8.3643C31.4456 9.33329 31.4744 9.49615 31.6543 9.54382C32.1804 9.6832 32.1677 9.74749 32.1339 7.11774ZM17.1191 8.85936C17.6092 8.62204 17.8868 8.12127 17.8965 7.45689C17.9032 6.99157 17.8461 6.79268 17.6479 6.59168C17.3924 6.33249 17.3922 6.32803 17.6177 5.95323C17.8915 5.49804 17.9078 5.02061 17.6659 4.54627C17.4407 4.10496 16.8652 3.94499 15.8772 4.04912L15.1614 4.12455L15.1291 6.64652L15.0968 9.16849L15.9642 9.08353C16.4413 9.0368 16.9609 8.93593 17.1191 8.85936ZM15.9368 7.59266C15.9368 6.96335 15.9681 6.86554 16.1882 6.8072C16.8562 6.63012 17.3398 7.3004 16.9953 7.92569C16.8677 8.15729 16.7111 8.24597 16.3805 8.27394L15.9368 8.31148V7.59266ZM15.9368 5.45183V4.7897H16.3305C16.8076 4.7897 17.0105 4.97296 17.0105 5.40377C17.0105 5.78827 16.8479 5.93899 16.3246 6.0395L15.9368 6.11396V5.45183ZM28.0632 8.84048C28.3793 8.63053 28.5808 7.98307 28.5817 7.17441C28.5825 6.53847 28.5724 6.52994 27.7175 6.44675L27.1508 6.39159V6.80002C27.1508 7.15505 27.1898 7.20844 27.4491 7.20844C27.6897 7.20844 27.7473 7.26838 27.7473 7.51874C27.7473 8.23531 27.179 8.55424 26.7528 8.07683C26.168 7.42175 26.2985 4.92671 26.9282 4.72411C27.1907 4.63963 27.628 4.9568 27.628 5.23172C27.628 5.337 27.7753 5.39439 28.0456 5.39439C28.5192 5.39439 28.5723 5.23365 28.2848 4.6701C28.0325 4.17548 27.651 3.94314 27.0912 3.94314C26.0671 3.94314 25.6037 4.71765 25.6078 6.42235C25.6105 7.54935 25.7808 8.26092 26.1456 8.66952C26.5672 9.14176 27.4863 9.2237 28.0632 8.84048ZM20.6838 8.71217C20.8305 8.608 21.0676 8.29507 21.2106 8.01678C21.5847 7.28887 21.5919 5.46155 21.2239 4.64712C20.9731 4.09198 20.4868 3.70127 20.0467 3.70127C19.6298 3.70127 19.0678 4.09062 18.8077 4.5597C18.2533 5.55977 18.3618 7.77316 19.0031 8.54582C19.2526 8.84637 19.3852 8.90156 19.8577 8.90156C20.1723 8.90156 20.5338 8.81869 20.6838 8.71217ZM19.5483 7.84909C19.3942 7.61091 19.3272 7.22541 19.3014 6.42808C19.271 5.49174 19.3016 5.27607 19.5132 4.93287C19.822 4.43208 20.2092 4.44757 20.469 4.97111C20.738 5.51303 20.7172 7.41614 20.4376 7.84871C20.1679 8.26598 19.8182 8.26613 19.5483 7.84909ZM22.9754 7.77448C22.9754 6.7532 22.9862 6.70951 23.2307 6.74652C23.4339 6.77728 23.5612 7.00108 23.8545 7.84336L24.2229 8.90156H24.6689H25.115L24.7232 7.76159L24.3314 6.62162L24.6515 6.3153C25.0426 5.9411 25.1645 5.39607 24.9977 4.76781C24.8116 4.06749 24.3442 3.82322 23.1889 3.82266L22.269 3.82221L22.2345 6.31174C22.2155 7.68098 22.2089 8.81023 22.2199 8.82118C22.2308 8.83214 22.4053 8.8411 22.6076 8.8411H22.9754V7.77448ZM23.0649 5.92908C23.0157 5.87889 22.9754 5.54041 22.9754 5.1769V4.51598L23.4782 4.58435C24.1925 4.68148 24.4949 5.1818 24.1382 5.67638C23.9774 5.89923 23.2123 6.07939 23.0649 5.92908ZM0.685547 9.26437C0.685547 9.09809 0.712625 9.03006 0.74572 9.1132C0.778814 9.19635 0.778814 9.3324 0.74572 9.41555C0.712625 9.49869 0.685547 9.43066 0.685547 9.26437ZM0.70246 8.17594C0.70246 7.81011 0.724824 7.66045 0.752158 7.84336C0.779493 8.02628 0.779493 8.3256 0.752158 8.50852C0.724824 8.69143 0.70246 8.54178 0.70246 8.17594Z" fill="white"/>
</g>
<defs>
<clipPath id="clip0_106_132">
<rect width="44" height="50" fill="white"/>
</clipPath>
</defs>
</svg>
