<svg width="71" height="39" viewBox="0 0 71 39" fill="none" xmlns="http://www.w3.org/2000/svg">
<path d="M0.286719 15V0.699999H2.64672L9.04672 0.68C11.6334 0.68 13.6401 1.28667 15.0667 2.5C16.4934 3.71333 17.2067 5.49333 17.2067 7.84C17.2067 10.1867 16.4934 11.9667 15.0667 13.18C13.6401 14.3933 11.6334 15 9.04672 15H0.286719ZM8.82672 3.28H3.48672V12.4H8.82672C10.5067 12.4 11.7801 12.0333 12.6467 11.3C13.5134 10.5667 13.9467 9.41333 13.9467 7.84C13.9467 6.25333 13.5134 5.1 12.6467 4.38C11.7801 3.64667 10.5067 3.28 8.82672 3.28ZM18.9125 15V4.7H26.7925C27.9525 4.7 28.8058 4.99333 29.3525 5.58C29.8992 6.15333 30.1725 6.91333 30.1725 7.86V10H27.2325V8.22C27.2325 7.42 26.8325 7.02 26.0325 7.02H21.8525V15H18.9125ZM31.7641 15V4.7H34.6641V15H31.7641ZM31.7441 3V0.739999H34.6841V3H31.7441ZM40.3017 15L35.9617 4.7H39.0017L42.3617 12.68H43.3617L46.7217 4.7H49.7617L45.4217 15H40.3017ZM56.1456 15.1C54.359 15.1 52.9656 14.66 51.9656 13.78C50.9656 12.8867 50.4656 11.58 50.4656 9.86C50.4656 8.12667 50.9656 6.82 51.9656 5.94C52.9656 5.04667 54.359 4.6 56.1456 4.6H61.1456C62.319 4.6 63.2123 4.88 63.8256 5.44C64.4523 5.98667 64.7656 6.77333 64.7656 7.8C64.7656 9.89333 63.559 10.94 61.1456 10.94H53.5856C53.8656 12.18 54.719 12.8 56.1456 12.8H64.2456V15.1H56.1456ZM56.1456 6.9C54.7723 6.9 53.9256 7.48 53.6056 8.64H61.0056C61.2723 8.64 61.479 8.56 61.6256 8.4C61.7856 8.24 61.8656 8.02 61.8656 7.74C61.8656 7.18 61.579 6.9 61.0056 6.9H56.1456Z" fill="white"/>
<path d="M66.6688 15V12.14H69.8688V15H66.6688ZM1.04844 39V24.7H4.24844V36.4H14.7084V39H1.04844ZM15.5125 39L20.8725 31.86L15.5125 24.7H19.4125L23.7125 30.56H25.5525L29.8525 24.7H33.7525L28.3925 31.86L33.7525 39H29.8325L25.5525 33.16H23.7125L19.4325 39H15.5125ZM35.3453 39V24.7H47.3253C48.8053 24.7 49.952 25.0733 50.7653 25.82C51.592 26.5667 52.0053 27.7 52.0053 29.22C52.0053 30.5133 51.7053 31.5267 51.1053 32.26C50.5053 32.9933 49.652 33.4533 48.5453 33.64L51.8453 39H48.2053L45.1453 33.74H38.5453V39H35.3453ZM46.9453 27.3H38.5453V31.12L46.9453 31.14C47.532 31.14 47.9786 30.9933 48.2853 30.7C48.6053 30.4067 48.7653 29.9133 48.7653 29.22C48.7653 28.5133 48.6053 28.02 48.2853 27.74C47.9786 27.4467 47.532 27.3 46.9453 27.3ZM59.5917 39V33.9L52.0117 24.7H55.9717L61.1917 31.18L66.3917 24.7H70.3517L62.8117 33.88V39H59.5917Z" fill="#FD375F"/>
</svg>
