<svg width="149" height="16" viewBox="0 0 149 16" fill="none" xmlns="http://www.w3.org/2000/svg">
<path d="M0.4 15V0.699999H2.76L9.16 0.68C11.7467 0.68 13.7533 1.28667 15.18 2.5C16.6067 3.71333 17.32 5.49333 17.32 7.84C17.32 10.1867 16.6067 11.9667 15.18 13.18C13.7533 14.3933 11.7467 15 9.16 15H0.4ZM8.94 3.28H3.6V12.4H8.94C10.62 12.4 11.8933 12.0333 12.76 11.3C13.6267 10.5667 14.06 9.41333 14.06 7.84C14.06 6.25333 13.6267 5.1 12.76 4.38C11.8933 3.64667 10.62 3.28 8.94 3.28ZM19.0258 15V4.7H26.9058C28.0658 4.7 28.9191 4.99333 29.4658 5.58C30.0124 6.15333 30.2858 6.91333 30.2858 7.86V10H27.3458V8.22C27.3458 7.42 26.9458 7.02 26.1458 7.02H21.9658V15H19.0258ZM31.8773 15V4.7H34.7773V15H31.8773ZM31.8573 3V0.739999H34.7973V3H31.8573ZM40.415 15L36.075 4.7H39.115L42.475 12.68H43.475L46.835 4.7H49.875L45.535 15H40.415ZM56.2589 15.1C54.4722 15.1 53.0789 14.66 52.0789 13.78C51.0789 12.8867 50.5789 11.58 50.5789 9.86C50.5789 8.12667 51.0789 6.82 52.0789 5.94C53.0789 5.04667 54.4722 4.6 56.2589 4.6H61.2589C62.4322 4.6 63.3256 4.88 63.9389 5.44C64.5656 5.98667 64.8789 6.77333 64.8789 7.8C64.8789 9.89333 63.6722 10.94 61.2589 10.94H53.6989C53.9789 12.18 54.8322 12.8 56.2589 12.8H64.3589V15.1H56.2589ZM56.2589 6.9C54.8856 6.9 54.0389 7.48 53.7189 8.64H61.1189C61.3856 8.64 61.5922 8.56 61.7389 8.4C61.8989 8.24 61.9789 8.02 61.9789 7.74C61.9789 7.18 61.6922 6.9 61.1189 6.9H56.2589Z" fill="white"/>
<path d="M66.782 15V12.14H69.982V15H66.782ZM79.6188 15V0.699999H82.8188V12.4H93.2788V15H79.6188ZM94.0828 15L99.4428 7.86L94.0828 0.699999H97.9828L102.283 6.56H104.123L108.423 0.699999H112.323L106.963 7.86L112.323 15H108.403L104.123 9.16H102.283L98.0028 15H94.0828ZM113.916 15V0.699999H125.896C127.376 0.699999 128.522 1.07333 129.336 1.82C130.162 2.56667 130.576 3.7 130.576 5.22C130.576 6.51333 130.276 7.52667 129.676 8.26C129.076 8.99333 128.222 9.45333 127.116 9.64L130.416 15H126.776L123.716 9.74H117.116V15H113.916ZM125.516 3.3H117.116V7.12L125.516 7.14C126.102 7.14 126.549 6.99333 126.856 6.7C127.176 6.40667 127.336 5.91333 127.336 5.22C127.336 4.51333 127.176 4.02 126.856 3.74C126.549 3.44667 126.102 3.3 125.516 3.3ZM138.162 15V9.9L130.582 0.699999H134.542L139.762 7.18L144.962 0.699999H148.922L141.382 9.88V15H138.162Z" fill="#FD375F"/>
</svg>
