<svg width="38" height="49" viewBox="0 0 38 49" fill="none" xmlns="http://www.w3.org/2000/svg">
<path d="M23.1121 41.2451H14.4902V43.3756H23.1121V41.2451Z" fill="black" fill-opacity="0.25"/>
<path d="M22.0128 44.241H15.5215V48.6684H22.0128V44.241Z" fill="black" fill-opacity="0.25"/>
<path d="M31.5346 31.3914H6.00195V32.4233H31.5346V31.3914Z" fill="black" fill-opacity="0.25"/>
<path d="M32.899 33.4221H4.63672V34.4541H32.899V33.4221Z" fill="black" fill-opacity="0.25"/>
<path d="M32.899 29.4607H4.63672V30.4927H32.899V29.4607Z" fill="black" fill-opacity="0.25"/>
<path d="M23.279 36.7842C21.8476 38.0825 21.8476 40.4127 21.8476 40.4127H18.7517H15.7224C15.7224 40.4127 15.7224 38.0825 14.291 36.7842C13.2923 35.8854 12.0607 35.6857 12.0607 35.6857C11.2617 35.5525 11.2617 35.4194 11.2617 35.3528H18.1525H20.0833H26.1752C26.1752 35.3528 26.1752 35.4859 25.3762 35.6857C25.4428 35.6857 24.2111 35.8854 23.279 36.7842Z" fill="black" fill-opacity="0.25"/>
<path d="M6.13477 35.4526C6.46766 35.4526 8.79788 35.4526 9.16406 35.4526C9.16406 37.2835 7.96566 38.1158 6.13477 37.683C6.13477 36.4513 6.13477 35.9853 6.13477 35.4526Z" fill="black" fill-opacity="0.25"/>
<path d="M17.0191 6.09188C18.2507 3.69507 18.4505 0.0332889 18.7501 0C19.083 0.0665779 19.2494 3.72836 20.4811 6.09188C21.6795 8.35552 24.1096 10.3196 24.0097 10.5193C23.81 10.7856 22.4784 10.0865 21.7794 9.72037C20.6808 9.22104 19.7487 8.82157 19.7487 8.82157C19.7487 8.82157 19.316 14.5806 20.7474 19.9401C21.9458 24.3009 24.6089 28.3289 24.9085 28.6285H21.4132C21.28 28.4288 21.2135 28.229 21.0803 28.1292C20.0816 26.4314 19.4491 24.9667 18.8167 22.47C18.1842 25 17.4851 26.4314 16.4864 28.1292C16.3533 28.3289 16.2867 28.5286 16.1535 28.6285H12.6582C12.9245 28.2956 15.6209 24.2676 16.8193 19.9401C18.2507 14.6138 17.818 8.82157 17.818 8.82157C17.818 8.82157 16.9192 9.22104 15.7874 9.72037C15.0883 10.0533 13.6902 10.7523 13.5237 10.5193C13.3906 10.3196 15.8872 8.38881 17.0191 6.09188Z" fill="black" fill-opacity="0.25"/>
<path d="M6.00133 28.6617C6.00133 28.229 5.73501 22.3701 4.37017 17.743C2.87216 12.6831 -0.190419 9.72034 0.00931485 9.35416C0.209049 9.08785 2.67243 9.62047 4.5699 10.8522C6.60053 12.1837 8.53129 14.4807 8.39813 14.6804C8.33155 14.8135 7.5992 14.2476 6.3675 13.7816C5.06923 13.3488 4.47003 13.3821 4.47003 13.3821C4.47003 13.3821 6.60053 16.944 7.69906 20.7723C8.59786 24.0013 9.03062 28.1624 9.03062 28.5619H5.90146V28.6285L6.00133 28.6617Z" fill="black" fill-opacity="0.25"/>
<path d="M31.5664 28.6617C31.5664 28.229 31.8327 22.3701 33.1976 17.743C34.6956 12.6831 37.7581 9.72034 37.5584 9.35416C37.3587 9.08785 34.8953 9.62047 32.9978 10.8522C30.9672 12.1837 29.0364 14.4807 29.1696 14.6804C29.2362 14.8135 29.9685 14.2476 31.2002 13.7816C32.4985 13.3488 33.0977 13.3821 33.0977 13.3821C33.0977 13.3821 30.9672 16.944 29.8687 20.7723C28.9699 24.0013 28.5371 28.1624 28.5371 28.5619H31.6663V28.6285L31.5664 28.6617Z" fill="black" fill-opacity="0.25"/>
<path d="M31.4004 35.4526C31.0675 35.4526 28.7373 35.4526 28.3711 35.4526C28.3711 37.2835 29.5695 38.1158 31.4004 37.683C31.4004 36.4513 31.4004 35.9853 31.4004 35.4526Z" fill="black" fill-opacity="0.25"/>
</svg>
