<svg width="50" height="50" viewBox="0 0 50 50" fill="none" xmlns="http://www.w3.org/2000/svg">
<path d="M37.4167 32.1542C37.3208 32.1312 37.2209 32.1312 37.125 32.1542H37.4167Z" fill="#FD375F"/>
<path d="M21.1496 33.75C22.1925 34.7917 23.5065 35.2817 25.0917 35.22C26.6769 35.1583 27.824 34.585 28.5332 33.5L42.5495 12.5L21.525 26.5C20.4405 27.25 19.8464 28.385 19.743 29.905C19.6395 31.425 20.1084 32.7067 21.1496 33.75ZM7.75903 45C6.84129 45 5.99698 44.8017 5.22608 44.405C4.45518 44.0083 3.83947 43.415 3.37893 42.625C2.29434 40.6667 1.46003 38.6358 0.876019 36.5325C0.292006 34.4292 0 32.2517 0 30C0 26.5417 0.657432 23.2917 1.9723 20.25C3.28716 17.2083 5.07007 14.5625 7.32102 12.3125C9.57197 10.0625 12.2209 8.28167 15.2678 6.97C18.3146 5.65833 21.5684 5.00167 25.0291 5C28.4498 5 31.6618 5.64583 34.6653 6.9375C37.6688 8.22917 40.2969 9.99 42.5495 12.22C44.8021 14.45 46.5959 17.0542 47.9308 20.0325C49.2657 23.0108 49.954 26.2083 49.9957 29.625C50.0374 31.9167 49.7771 34.1567 49.2148 36.345C48.6524 38.5333 47.7864 40.6267 46.6167 42.625C46.1579 43.4167 45.543 44.0108 44.7721 44.4075C44.0012 44.8042 43.1552 45.0017 42.2341 45H7.75903Z" fill="#FD375F"/>
</svg>
