<svg width="50" height="50" viewBox="0 0 50 50" fill="none" xmlns="http://www.w3.org/2000/svg">
<g clip-path="url(#clip0_106_114)">
<path d="M27.278 36.9327C27.568 36.711 28.2162 36.4892 28.5745 36.3357C28.5574 35.7898 28.3356 35.278 28.4721 34.8174C28.7109 33.9986 29.2739 33.6404 29.8198 33.5721C29.8539 33.5892 29.888 33.6574 29.8539 33.6745C29.5468 33.9645 29.4274 34.3739 29.3762 34.8174C29.3592 34.988 29.325 35.5168 29.4786 35.8921C29.8027 35.7216 30.5874 35.4486 30.8433 35.3974C30.8774 34.8515 30.9627 34.3227 31.1162 33.9304C31.4233 33.1627 32.1057 32.5486 32.788 32.9068C32.8221 32.9239 32.8563 32.9921 32.8221 33.0092C32.3957 33.1627 32.1227 33.6062 31.8839 34.118C31.8157 34.2715 31.5768 35.0904 31.8498 35.261C31.8498 35.261 31.8668 35.261 31.8668 35.278C32.3616 35.1757 32.4469 35.2268 32.9757 35.1757C33.061 34.6468 33.2998 34.1862 33.5045 33.8451C33.8116 33.248 34.6133 32.7703 35.3298 33.1968C35.3639 33.2139 35.3981 33.2992 35.3469 33.2992C34.8522 33.4015 34.5281 33.7256 34.3575 34.0157C34.2722 34.1521 33.8116 34.7833 34.0504 35.0392C34.0675 35.0392 34.1016 35.0392 34.1357 35.0392C34.5622 35.0221 34.8692 35.1074 35.3128 35.1927C35.4492 34.8686 35.5687 34.8345 35.7051 34.6639C36.1998 34.0668 37.0357 33.8621 37.3257 34.4251C37.3598 34.4592 37.3598 34.5274 37.3257 34.5274C37.0698 34.5615 36.6434 34.698 36.4387 34.9539C36.3875 35.0051 36.251 35.1586 36.1145 35.4486C36.6945 35.8921 37.0187 36.2504 37.1722 36.8475C37.2063 36.9498 37.2575 37.5639 37.0528 37.2569C36.1145 36.0798 34.8522 35.8239 32.9586 36.0116C30.9286 36.1992 29.9904 36.5063 27.9603 37.598C29.0862 38.6045 27.3974 39.594 27.1244 38.1098C26.135 39.611 25.0944 37.7175 26.425 37.4445C25.0603 36.1139 26.9197 35.4998 27.278 36.9327Z" fill="black" fill-opacity="0.25"/>
<path d="M30.7403 30.4505C31.4738 30.2116 32.2756 29.9557 32.685 29.8705C32.7533 28.6763 33.8792 27.1922 35.2098 27.704C35.2609 27.721 35.2951 27.7893 35.2439 27.8063C34.9027 27.9087 33.8109 28.9493 34.1862 29.6146C34.4592 29.6316 35.2098 29.6146 35.4315 29.6316C35.7215 28.3181 36.8645 27.3969 38.161 27.994C38.2121 28.011 38.2463 28.0963 38.1951 28.0963C37.6833 28.1816 36.5233 29.0004 36.6598 29.6999C36.8986 29.7169 37.5468 29.9387 37.9563 30.1605C38.1098 29.8363 38.2804 29.7169 38.4339 29.5463C38.9969 28.9493 40.1569 28.8981 40.4981 29.4781C40.5322 29.5122 40.5322 29.5804 40.4981 29.5804C40.0033 29.5634 39.5598 29.6316 39.1333 30.0069C39.0651 30.0581 38.9286 30.2628 38.7751 30.5528C39.1845 30.7746 39.6451 31.2011 39.7304 31.6105C39.7986 31.8152 39.8328 31.9858 39.7986 32.1905C39.7816 32.2417 39.6792 32.1905 39.6451 32.1564C38.5704 30.9793 36.1992 30.2458 33.8962 30.5358C32.3609 30.7234 30.8597 31.1499 29.6144 31.6958C30.0409 31.3205 30.4162 30.9111 30.7403 30.4505ZM27.3626 33.1117C27.2603 33.214 27.1579 33.2993 27.0726 33.4017C27.6185 34.1523 26.7485 34.7493 26.4926 33.9987C25.8444 34.6982 25.3326 33.8793 25.7591 33.5381C26.3049 33.4528 26.8508 33.3164 27.3626 33.1117Z" fill="black" fill-opacity="0.25"/>
<path d="M26.9879 43.1764C27.1414 43.0058 27.5167 42.6817 27.7044 42.5281C27.1244 41.624 27.4485 40.464 28.0114 40.3787C28.0456 40.3958 28.0626 40.4469 28.0456 40.4811C27.892 40.7028 27.8238 41.897 28.2673 42.1528C28.4891 41.9993 28.9156 41.6923 29.1032 41.6411C28.7791 40.5493 29.342 39.0822 30.4338 39.321C30.4679 39.3381 30.485 39.4063 30.4679 39.4234C29.5809 39.884 29.5638 41.2487 29.8026 41.4022C30.1609 41.2999 30.5532 41.1464 30.9456 41.1122C31.1162 39.6622 32.3956 39.014 33.0439 39.3893C33.078 39.4063 33.095 39.4916 33.078 39.4916C32.7197 39.2869 31.3721 40.6687 31.8156 41.0781C32.1227 41.0611 32.4809 41.1975 32.8391 41.2828C32.9927 40.4811 34.1186 39.8158 34.5962 40.3275C34.6303 40.3616 34.6303 40.4299 34.6133 40.4299C34.1868 40.5152 33.6239 40.9075 33.5386 41.6581C34.4427 42.0846 34.3403 42.9717 34.1868 42.7329C33.3339 41.607 31.5256 41.7946 30.1438 42.0846C29.342 42.2552 28.2162 43.0229 27.7385 43.5687C29.1885 44.2511 27.875 45.5305 27.2608 44.0805C26.2544 45.8547 25.2649 44.234 26.442 43.7564C25.0091 42.6476 26.4932 41.897 26.9879 43.1764Z" fill="black" fill-opacity="0.25"/>
<path d="M12.3851 41.8286C10.9521 40.1739 9.74092 38.3827 8.76855 36.5745H24.4629V41.8286H12.3851Z" fill="black" fill-opacity="0.25"/>
<path d="M32.0195 16.1548H43.5514V20.6754H32.0195V16.1548Z" fill="black" fill-opacity="0.25"/>
<path d="M43.5518 9.29724L40.14 8.08605L36.1653 7.28428L31.6958 6.31191L27.5505 5.98779H24.3945V10.7473H43.5348L43.5518 9.29724Z" fill="black" fill-opacity="0.25"/>
<path d="M8.03504 3.95778C8.49563 3.80425 8.95623 3.66778 9.43388 3.5313C9.60447 3.48013 9.77506 3.42895 9.96271 3.39483C10.1504 3.36071 10.338 3.34365 10.5257 3.39483L10.5939 3.42895C10.6621 3.46307 10.6962 3.51425 10.7304 3.58248C10.7815 3.70189 10.7986 3.82131 10.8157 3.95778C10.8498 4.23072 10.8498 4.50367 10.8157 4.77661C10.7986 4.99838 10.7645 5.22015 10.6792 5.4078C10.6451 5.49309 10.5939 5.56133 10.5257 5.62956C10.4745 5.68074 10.4233 5.73192 10.3721 5.76604C10.2527 5.85133 10.1504 5.91957 10.0139 5.97074C9.70682 6.10722 9.39976 6.20957 9.07564 6.31192C8.52975 6.49957 7.98386 6.68722 7.43797 6.87487V7.88136C7.16503 7.98371 6.89208 8.10312 6.61914 8.20548V4.41837C7.09679 4.26484 7.55739 4.11131 8.03504 3.95778ZM7.43797 6.19251C7.98386 6.00486 8.52975 5.81721 9.0927 5.62956C9.26329 5.57839 9.43388 5.52721 9.58741 5.45897L9.70682 5.39074L9.758 5.35662L9.80918 5.30544L9.86035 5.25427L9.89447 5.20309L9.94565 5.10073C9.96271 5.0325 9.97977 4.98132 9.97977 4.91308C9.99683 4.74249 9.99683 4.58896 9.94565 4.41837L9.91153 4.33308L9.87741 4.26484L9.82624 4.21367L9.758 4.17955L9.68976 4.16249H9.62153H9.55329C9.3827 4.17955 9.22917 4.23072 9.05858 4.2819C8.51269 4.45249 7.9668 4.64014 7.42091 4.81073L7.43797 6.19251ZM14.381 2.23482C14.7563 2.16658 15.1145 2.09835 15.4898 2.06423C15.6092 2.04717 15.7287 2.04717 15.8481 2.04717C15.8992 2.04717 15.9675 2.06423 16.0187 2.08129C16.0698 2.09835 16.104 2.1154 16.1551 2.14952C16.1893 2.18364 16.2234 2.2007 16.2575 2.23482C16.2916 2.26894 16.3087 2.32011 16.3257 2.35423C16.3598 2.42247 16.3769 2.47364 16.3769 2.54188C16.411 2.76365 16.4281 3.00247 16.4451 3.2413C16.4622 3.51425 16.4622 3.77013 16.4451 4.02602C16.4451 4.12837 16.4451 4.24778 16.4281 4.35014C16.411 4.55485 16.411 4.75955 16.3598 4.96426C16.3428 5.01544 16.3257 5.06662 16.3087 5.10073C16.2745 5.16897 16.2404 5.23721 16.1893 5.30544L16.0869 5.45897L15.9334 5.56133C15.8651 5.59545 15.814 5.6125 15.7457 5.64662C15.4728 5.73192 15.1998 5.78309 14.9269 5.85133C14.3639 5.97074 13.801 6.0731 13.238 6.19251C12.9651 6.24369 12.6922 6.29487 12.4192 6.32898C12.351 6.34604 12.2657 6.34604 12.1974 6.34604L12.0269 6.32898C11.9757 6.31192 11.9416 6.29487 11.9074 6.27781L11.8221 6.20957L11.7539 6.10722L11.6516 5.54427V4.02602C11.6686 3.85543 11.6857 3.66778 11.7198 3.49719L11.771 3.34365C11.8051 3.25836 11.8392 3.19012 11.8904 3.12189L12.0098 2.98542L12.1121 2.90012C12.2145 2.83188 12.3339 2.76365 12.4704 2.71247L13.0845 2.52482C13.4769 2.40541 13.9204 2.32011 14.381 2.23482ZM13.9545 3.00247L13.0675 3.20718C12.9992 3.22424 12.931 3.25836 12.8627 3.27542L12.7945 3.3266L12.7263 3.37777L12.6751 3.42895L12.6239 3.48013L12.5727 3.5313L12.5386 3.59954C12.5045 3.65072 12.4874 3.71895 12.4704 3.77013C12.4192 3.9919 12.4192 4.21366 12.4192 4.43543C12.4192 4.67426 12.4192 4.91309 12.4533 5.13485L12.4874 5.22015L12.5386 5.30544L12.6069 5.37368L12.6751 5.42486L12.7604 5.45897L12.8457 5.47603H12.948C13.0163 5.47603 13.0675 5.47603 13.1186 5.45897C13.4598 5.4078 13.801 5.33956 14.1422 5.27132C14.4151 5.22015 14.7051 5.15191 14.9781 5.08367C15.0292 5.06662 15.0975 5.04956 15.1487 5.0325L15.2339 4.98132L15.3192 4.93014L15.3875 4.86191L15.4557 4.79367L15.5069 4.70838L15.541 4.62308L15.5751 4.53779C15.6263 4.2819 15.6092 4.04307 15.6092 3.78719C15.6092 3.65072 15.6092 3.51424 15.5922 3.39483L15.5751 3.29248C15.5581 3.22424 15.541 3.15601 15.5069 3.08777L15.4728 3.01953L15.4387 2.96836L15.3875 2.91718L15.3534 2.90012L15.2851 2.866L15.2169 2.84894L15.0804 2.83188C14.9269 2.83188 14.7904 2.84894 14.6539 2.866C14.4151 2.91718 14.1763 2.96836 13.9545 3.00247ZM19.584 1.60363C20.0105 1.56952 20.4369 1.5354 20.8634 1.5354C20.9487 1.5354 21.0511 1.5354 21.1364 1.5354C21.2387 1.5354 21.324 1.55246 21.4093 1.60363C21.4434 1.62069 21.4775 1.63775 21.4946 1.65481C21.5628 1.70599 21.614 1.75717 21.6481 1.84246C21.6823 1.89364 21.6993 1.96187 21.7164 2.01305C21.7505 2.14952 21.7505 2.30305 21.7505 2.43953C21.7505 2.62718 21.7505 2.79777 21.7334 2.98542C21.7334 3.05365 21.7164 3.12189 21.6993 3.19012L21.6652 3.25836C21.6311 3.30954 21.614 3.34365 21.5799 3.39483L21.4946 3.46307C21.4605 3.48013 21.4264 3.51425 21.3752 3.5313C21.324 3.54836 21.2558 3.56542 21.2046 3.58248L20.744 3.68484L21.2046 3.94072C21.2728 3.9919 21.324 4.02602 21.3752 4.07719L21.4264 4.14543C21.4946 4.24778 21.5458 4.35014 21.597 4.46955C21.6652 4.67426 21.6993 4.87897 21.6993 5.08367C21.4264 5.10073 21.1534 5.10073 20.8805 5.11779C20.8634 4.96426 20.8464 4.82779 20.7952 4.67426L20.727 4.50367L20.6928 4.41837L20.6417 4.35014L20.5905 4.2819L20.5222 4.23072L20.4369 4.17955C20.3858 4.16249 20.3346 4.14543 20.2834 4.14543C20.1811 4.12837 20.0616 4.14543 19.9593 4.14543C19.4305 4.17955 18.9187 4.23072 18.3899 4.2819L18.1852 4.29896V5.30544C17.9122 5.33956 17.6393 5.37368 17.3663 5.39074V1.80834C18.1169 1.72305 18.8505 1.65481 19.584 1.60363ZM18.2022 3.68484C18.7481 3.63366 19.294 3.58248 19.8399 3.54836C20.0275 3.5313 20.2152 3.51425 20.4028 3.49719C20.454 3.49719 20.5052 3.48013 20.5564 3.46307L20.6246 3.44601L20.6928 3.41189L20.744 3.37777L20.7952 3.3266L20.8293 3.27542L20.8634 3.22424C20.8805 3.17306 20.8975 3.13895 20.8975 3.08777C20.9146 2.93424 20.9146 2.78071 20.9146 2.62718C20.9146 2.576 20.8975 2.52482 20.8805 2.45659L20.8464 2.40541L20.8122 2.35423L20.7611 2.30305L20.7099 2.26894L20.6587 2.23482L20.5905 2.21776C20.5393 2.2007 20.4881 2.2007 20.4369 2.2007C20.164 2.2007 19.8911 2.23482 19.6352 2.25188C19.1575 2.286 18.6969 2.33717 18.2193 2.37129L18.2022 3.68484ZM24.0023 4.52073C24.3093 4.52073 24.6164 4.52073 24.9405 4.52073C25.1452 4.52073 25.367 4.52073 25.5888 4.50367C25.6399 4.50367 25.6741 4.48661 25.7252 4.48661C25.7764 4.46955 25.8105 4.45249 25.8447 4.43543L25.8958 4.40131L25.93 4.35014L25.9641 4.29896L25.9811 4.24778L25.9982 4.12837V3.95778L25.9641 3.77013L25.947 3.71895L25.93 3.66778L25.8958 3.6166L25.8447 3.58248L25.7935 3.54836L25.6741 3.51425L25.4694 3.48013H25.2135H23.4905C23.3199 3.48013 23.1493 3.48013 22.9958 3.44601C22.9446 3.42895 22.9105 3.42895 22.8764 3.41189L22.8252 3.37777L22.774 3.34365L22.7399 3.30954L22.7058 3.25836L22.6717 3.20718C22.6376 3.13895 22.6034 3.07071 22.5864 3.00247C22.5523 2.81482 22.5523 2.61012 22.5523 2.42247C22.5523 2.18364 22.5693 1.94481 22.6717 1.72305C22.6887 1.68893 22.7229 1.65481 22.7399 1.62069C22.8593 1.51834 23.0129 1.46716 23.1664 1.43304C23.3199 1.39893 23.4905 1.39893 23.644 1.39893C24.0193 1.39893 24.3946 1.39893 24.7699 1.39893C25.3841 1.39893 26.0152 1.41598 26.6294 1.43304V1.97893C25.8105 1.96187 24.9917 1.94481 24.1729 1.94481C23.9852 1.94481 23.7976 1.94481 23.6099 1.96187C23.5758 1.96187 23.5246 1.97893 23.4905 1.97893L23.4223 2.01305L23.3711 2.06423L23.337 2.13246L23.3199 2.2007L23.3029 2.32011C23.3029 2.42247 23.3029 2.50776 23.3029 2.61012L23.3199 2.67835L23.337 2.74659L23.3882 2.81482L23.4735 2.866L23.5588 2.88306C24.4117 2.90012 25.2817 2.91718 26.1347 2.9513L26.237 2.96836C26.3735 3.00247 26.51 3.05365 26.6123 3.15601C26.6635 3.20718 26.6976 3.25836 26.7147 3.30954C26.8 3.49719 26.817 3.71895 26.817 3.92366C26.817 4.16249 26.817 4.40131 26.7488 4.62308C26.7317 4.6572 26.7317 4.69132 26.7147 4.72544L26.6635 4.79367C26.6294 4.84485 26.5953 4.87897 26.5441 4.91308C26.4588 4.96426 26.3735 5.01544 26.2882 5.0325C26.1517 5.06662 25.9982 5.06662 25.8617 5.08367C25.4352 5.10073 25.0258 5.10073 24.5993 5.10073C23.934 5.10073 23.2687 5.11779 22.6205 5.11779C22.6205 4.93014 22.6205 4.72544 22.6205 4.53779C23.064 4.52073 23.5076 4.52073 23.9511 4.52073H24.0023ZM29.6488 5.27132C29.3076 5.23721 28.9494 5.22015 28.6082 5.16897C28.4547 5.15191 28.3012 5.11779 28.1647 5.06662C28.0965 5.0325 28.0282 5.01544 27.96 4.96426C27.9088 4.93014 27.8747 4.89603 27.8235 4.86191C27.7894 4.82779 27.7553 4.77661 27.7212 4.74249C27.687 4.69132 27.67 4.64014 27.6529 4.58896C27.6017 4.40131 27.5847 4.19661 27.5847 3.9919C27.5676 3.49719 27.5676 3.01953 27.5847 2.52482V2.40541C27.6017 2.18364 27.6188 1.96187 27.7553 1.77422C27.8064 1.72305 27.8406 1.67187 27.9088 1.63775C28.0794 1.55246 28.2841 1.51834 28.4717 1.50128C28.6765 1.48422 28.8641 1.48422 29.0688 1.50128C29.4612 1.51834 29.8706 1.5354 30.2629 1.56952C30.843 1.62069 31.4059 1.67187 31.9859 1.74011V2.38835C31.2183 2.32011 30.4677 2.25188 29.7 2.2007C29.4612 2.18364 29.2053 2.16658 28.9494 2.18364L28.83 2.2007L28.7447 2.21776L28.6765 2.25188L28.6082 2.30305L28.54 2.37129L28.4888 2.43953L28.4547 2.52482C28.4376 2.576 28.4206 2.62718 28.4206 2.67835C28.3865 2.91718 28.3694 3.17306 28.3865 3.42895C28.3865 3.63366 28.3865 3.83837 28.4206 4.04307C28.4376 4.09425 28.4376 4.14543 28.4547 4.19661L28.4888 4.2819L28.54 4.35014L28.6082 4.41837L28.6765 4.46955L28.7447 4.50367L28.83 4.53779C28.8982 4.55485 28.9665 4.5719 29.0347 4.5719C29.2565 4.60602 29.4953 4.62308 29.7171 4.64014C30.4847 4.70838 31.2694 4.77661 32.0371 4.86191C32.0371 5.06662 32.0371 5.25427 32.0371 5.45897V5.52721C31.5594 5.47603 31.0647 5.42486 30.5871 5.39074C30.2971 5.3225 29.9729 5.30544 29.6488 5.27132ZM34.8689 3.65072C35.5001 3.77013 36.1312 3.88954 36.7624 4.00896V2.55894C37.0524 2.62718 37.3424 2.69541 37.6495 2.74659V6.48252C37.3595 6.41428 37.0695 6.34604 36.7624 6.27781V4.81073C36.2507 4.70838 35.756 4.60602 35.2442 4.50367C34.7836 4.41837 34.3059 4.33308 33.8453 4.24778V5.6978C33.5553 5.64662 33.2653 5.6125 32.9583 5.56133V1.92776C33.2483 1.96187 33.5553 1.99599 33.8453 2.04717V3.48013C34.1865 3.5313 34.5277 3.58248 34.8689 3.65072ZM41.5731 3.88954C41.8801 3.9919 42.1872 4.09425 42.5113 4.19661V4.81073C41.6072 4.50367 40.686 4.21367 39.7648 3.92366L39.4578 3.83837V4.77661C40.1231 4.98132 40.8054 5.18603 41.4707 5.4078C41.7607 5.51015 42.0678 5.59545 42.3578 5.6978V6.24369C41.5048 5.95369 40.6348 5.68074 39.7648 5.42486L39.4578 5.33956V6.32898C40.106 6.51663 40.7542 6.72134 41.3854 6.92605C41.7607 7.04546 42.136 7.18193 42.5284 7.30135V7.93253C41.3001 7.52312 40.0548 7.14782 38.7925 6.78958L38.656 6.75546V3.00247C39.6283 3.27542 40.6007 3.58248 41.5731 3.88954Z" fill="black" fill-opacity="0.25"/>
<path d="M6.56779 31.3374C6.02191 29.5121 5.7319 27.8062 5.71484 26.3391H17.1444C17.1785 28.2668 17.9803 30.0409 19.2427 31.3374H6.56779Z" fill="black" fill-opacity="0.25"/>
<path d="M5.20312 3.78711L5.42489 3.70181C11.805 1.34767 18.168 0.119416 24.5481 2.62726e-06C30.9281 -0.102352 37.2911 0.904131 43.6712 3.05357L43.91 3.13886V3.37769C43.8589 11.0372 43.8077 18.6967 43.7565 26.3562C43.7395 30.3139 41.6583 35.8751 37.7347 40.7369C34.5788 44.6605 30.2117 48.1406 24.7528 49.9829H24.5651C19.0551 48.567 14.705 45.2235 11.532 41.317C7.47197 36.2845 5.39077 30.2798 5.37372 26.2027C5.3396 22.5009 5.32254 18.799 5.28842 15.1143L5.20312 3.78711ZM12.6409 41.624H24.241V36.9669H9.36553C9.31435 36.8816 9.26317 36.7963 9.22905 36.711C10.0308 38.144 10.9691 39.5599 12.0438 40.9075C12.2485 41.1464 12.4362 41.3852 12.6409 41.624ZM24.2581 42.204H13.1697C16.0356 45.3429 19.7374 47.9529 24.2581 49.2153V42.204ZM12.9309 41.9481C12.9138 41.9311 12.9138 41.9311 12.9138 41.914C12.9138 41.9311 12.9309 41.9481 12.9309 41.9481ZM9.04141 36.3698H24.2581V33.6233C24.3775 33.6233 24.4969 33.6233 24.6163 33.6233C24.7016 33.6233 24.7698 33.6233 24.8551 33.6233V49.2323C24.8381 49.2323 24.821 49.2494 24.821 49.2494C30.0069 47.4411 34.1693 44.0976 37.2059 40.3275C40.9759 35.6534 42.9889 30.3309 43.0742 26.5097C43.0742 26.5268 43.0742 26.5268 43.0742 26.5438H32.1052C32.1052 26.4244 32.1223 26.305 32.1223 26.1856V25.9468H43.0912C43.1083 24.3091 43.1083 22.6714 43.1253 21.0508H32.1223V20.4708H43.1253C43.1424 19.1402 43.1424 17.8267 43.1595 16.5131H32.1223V15.9331H32.037V15.9161H43.1595C43.1765 14.3125 43.1765 12.726 43.1936 11.1225H24.6845V15.9331H24.0875V6.26066C18.0145 6.36302 11.9244 7.57421 5.81725 9.94541L5.80019 9.33129C12.0779 6.90891 18.3556 5.71478 24.6163 5.6636C30.8258 5.61242 37.0182 6.68714 43.1936 8.81952C43.1936 9.02423 43.1936 9.22893 43.1936 9.43364C43.2106 7.48891 43.2277 5.54419 43.2277 3.61652C37.0011 1.55237 30.7746 0.580009 24.5651 0.682364C18.2533 0.784718 11.9585 1.99591 5.66372 4.33299L5.97078 15.1143C6.0049 18.7308 6.02196 22.3473 6.05608 25.9809C6.05608 25.9809 6.05608 25.9809 6.05608 25.9638H17.1615V26.2027C17.1615 26.3221 17.1615 26.4415 17.1786 26.5609H6.03902C6.07314 27.9256 6.36314 29.5121 6.85785 31.1839C6.85785 31.1668 6.84079 31.1498 6.84079 31.1327H19.0209C19.1233 31.2521 19.2256 31.3715 19.3451 31.4739L19.7204 31.7298H7.02844C7.52315 33.231 8.18845 34.8004 9.04141 36.3698ZM6.99432 31.6104C6.97726 31.5763 6.97726 31.5421 6.9602 31.5251C6.97726 31.5592 6.99432 31.5763 6.99432 31.6104ZM6.92609 31.3886C6.90903 31.3545 6.90903 31.3204 6.89197 31.2862C6.90903 31.3204 6.92609 31.3545 6.92609 31.3886ZM43.0571 26.2027V26.2197C43.0571 26.2197 43.0571 26.2197 43.0571 26.2027ZM43.0571 26.305V26.3221C43.0571 26.3221 43.0571 26.3221 43.0571 26.305ZM43.0571 26.305C43.0571 26.288 43.0571 26.288 43.0571 26.288V26.305ZM43.0571 26.2538C43.0571 26.2368 43.0571 26.2368 43.0571 26.2368V26.2538ZM43.0571 25.998C43.0571 25.9809 43.0571 25.9809 43.0571 25.9809V25.998ZM24.6845 10.5425H43.1765C43.1765 10.6448 43.1765 10.7301 43.1765 10.8325C43.1765 10.3719 43.1765 9.91129 43.1765 9.4507C37.0182 7.30126 30.8599 6.22655 24.6845 6.26066V10.5425ZM24.6504 49.3006C24.6334 49.3006 24.6334 49.3006 24.6163 49.3176C24.6334 49.3176 24.6334 49.3176 24.6504 49.3006ZM24.4116 49.2665C24.3604 49.2494 24.3263 49.2494 24.2751 49.2323C24.3263 49.2323 24.3775 49.2494 24.4116 49.2665Z" fill="black" fill-opacity="0.25"/>
<path d="M8.4612 13.2206C8.78533 13.0159 9.12651 12.8112 9.46769 12.6406C9.41651 12.1118 9.36533 11.293 9.50181 10.8494C9.75769 10.0306 10.5083 9.3653 11.3954 9.51883C11.4465 9.53589 11.4807 9.58706 11.4465 9.60412C10.9518 9.86001 10.5595 10.2524 10.3377 10.7983C10.2695 10.9518 10.0306 12.0436 10.3889 12.1289C10.423 12.1459 10.4571 12.1459 10.5083 12.1459C11.1565 11.873 11.8218 11.6341 12.5042 11.4294C12.5042 10.9006 12.5213 10.1671 12.7089 9.77471C13.0501 9.00706 13.903 8.44411 14.8242 8.71705C14.8754 8.73411 14.9095 8.80235 14.8754 8.81941C14.3295 9.00706 13.886 9.33118 13.596 9.84295C13.5107 9.99648 13.1524 11.0371 13.5277 11.1736H13.5448C14.176 11.0371 14.8242 10.9177 15.5236 10.8324C15.6089 10.3035 15.7454 9.62118 15.9842 9.26294C16.496 8.51234 17.5195 8.00057 18.4749 8.35881C18.526 8.37587 18.5601 8.44411 18.509 8.46117C17.8778 8.6147 17.3319 8.9047 16.9395 9.39941C16.8372 9.53589 16.3084 10.4912 16.6154 10.713C16.6495 10.713 16.6837 10.713 16.7178 10.6959C17.2637 10.6447 17.8948 10.6277 18.4919 10.6618C18.6454 10.3377 18.799 10.0477 18.9696 9.86001C19.5666 9.24588 20.8802 9.02412 21.2725 9.55295C21.3066 9.58706 21.3237 9.6553 21.2725 9.6553C20.7096 9.67236 20.1296 9.75765 19.7031 10.15C19.6349 10.2182 19.396 10.4571 19.2596 10.73C20.1637 10.8835 20.9313 11.1906 21.1702 11.7706C21.2555 11.9583 21.3066 12.1289 21.2725 12.3336C21.2725 12.3847 21.1531 12.3506 21.119 12.2994C19.976 11.2418 18.1507 11.1224 15.7113 11.5489C13.2377 11.9753 11.1736 12.7089 8.95592 13.7665C9.84299 14.773 8.44415 15.5407 7.98355 14.483C6.90883 15.7624 5.91941 13.903 7.38649 13.6812C6.55059 12.3847 8.23944 12.3336 8.4612 13.2206Z" fill="black" fill-opacity="0.25"/>
<path d="M8.76876 23.422C9.05876 23.2002 9.43406 23.0126 9.74112 22.8249C9.43406 22.3302 9.24641 21.6137 9.36583 21.1531C9.57053 20.3343 10.0823 19.942 10.7135 19.9761C10.7647 19.9761 10.7988 20.0443 10.7647 20.0614C10.3211 20.3514 10.2529 20.7267 10.1164 21.2896C10.0482 21.5967 10.2188 22.1085 10.4405 22.2961C11.0035 21.989 10.9864 22.0402 11.5835 21.8184C11.4129 21.2896 11.447 20.5731 11.6688 20.1296C12.01 19.4131 12.5729 19.1402 13.1359 19.2596C13.187 19.2767 13.2212 19.3278 13.17 19.3449C12.7265 19.5325 11.8223 20.249 12.4194 21.5967C12.9653 21.409 12.9994 21.3749 13.6988 21.2214C13.75 20.6926 13.7671 20.0614 13.9718 19.6861C14.3982 18.9184 15.4047 18.5602 15.8653 18.7478C15.9165 18.7649 15.9506 18.8331 15.8994 18.8502C15.6435 19.0208 15.3024 19.1572 14.9612 19.669C14.7735 19.942 14.4494 20.5731 14.5347 20.9996C15.0294 20.9314 15.6777 20.8973 16.2406 20.9143C16.36 20.5902 16.5989 20.1978 16.7524 20.0102C16.8547 19.8908 16.9912 19.7884 17.1277 19.7372V21.6479C16.1894 21.5967 15.1488 21.699 14.1594 21.9379C11.9247 22.4667 11.3447 22.8761 9.34877 23.9508C10.5429 24.7014 9.38288 25.8444 8.64935 24.7185C7.35286 26.2026 6.51697 24.292 7.86463 24.002C6.84109 22.7567 8.51287 22.0914 8.76876 23.422Z" fill="black" fill-opacity="0.25"/>
<path d="M8.18854 18.3384C8.52972 18.1337 8.99031 17.9802 9.3315 17.8096C9.29738 17.2808 9.22914 16.8031 9.38267 16.3596C9.65562 15.5578 10.0821 15.1484 10.7645 15.2166C10.8156 15.2337 10.8497 15.2848 10.8156 15.319C10.3209 15.5749 10.4403 15.916 10.2186 16.4449C10.1503 16.5984 9.97974 17.2466 10.338 17.349C10.3721 17.366 10.4062 17.3661 10.4574 17.3661C11.1056 17.1102 10.8668 17.1272 11.5321 16.9566C11.5492 16.4449 11.5833 15.7454 11.7539 15.3701C12.1121 14.6366 12.7774 14.2784 13.3915 14.4319C13.4427 14.449 13.5451 14.5684 13.4939 14.5854C12.9992 14.739 12.1462 15.7454 12.5045 16.5302C12.9309 16.4619 13.221 16.3254 13.9886 16.2231C14.091 15.6943 14.2616 15.1654 14.5174 14.8072C15.0463 14.0737 15.8651 13.9201 16.3428 14.1419C16.3939 14.159 16.4622 14.2954 16.411 14.3125C15.7798 14.449 15.7627 14.3807 15.3533 14.8754C15.1316 15.1313 14.688 15.8307 15.0121 16.1549C15.558 16.1207 15.9333 16.0525 16.5304 16.1037C16.6839 15.7966 16.8033 15.3701 16.9739 15.1996C17.571 14.5854 18.6116 14.5343 18.9528 14.9437C18.9869 14.9778 19.004 15.046 18.9528 15.046C18.3898 15.0631 18.1851 15.2166 17.7416 15.609C17.6904 15.6431 17.5881 15.7796 17.4686 15.9502H17.1445V17.0078C16.2233 16.9225 15.2169 16.9566 14.2786 17.0931C11.8051 17.4684 10.9009 18.0314 8.85384 19.0208C9.72385 20.0443 8.30795 20.7608 7.88148 19.6861C6.7897 20.9484 5.81734 19.0549 7.31853 18.8672C6.48264 17.5196 7.94971 17.1613 8.18854 18.3384Z" fill="black" fill-opacity="0.25"/>
<path d="M31.7465 16.2913V26.2026C31.7465 30.1092 28.5565 33.2821 24.6159 33.2821C20.6923 33.2821 17.4852 30.1092 17.4852 26.2026V16.2913H31.7465ZM32.0877 15.9331H17.127V26.1856C17.127 30.2627 20.4876 33.6233 24.5988 33.6233C28.7271 33.6233 32.0707 30.2627 32.0707 26.1856L32.0877 15.9331Z" fill="black" fill-opacity="0.25"/>
<path d="M24.2919 23.2003C24.3601 23.2685 24.5137 23.1832 24.5649 23.115C24.6843 22.9273 24.6672 22.6885 24.6843 22.4497C24.7013 22.1938 24.7013 21.972 24.616 21.7332C24.4796 21.3238 24.2919 20.9997 23.8313 20.9314C23.7801 20.9144 23.6778 21.0167 23.7119 21.0508C24.019 21.375 24.1384 21.3579 24.2237 21.8526C24.309 22.3303 24.2578 23.1662 24.2919 23.2003ZM21.0678 29.1539C21.136 29.1709 21.2895 28.9662 21.3407 28.8468C21.3919 28.7445 21.3748 28.5397 21.3748 28.5227C21.3578 28.4886 21.1872 28.5568 21.1019 28.5568C21.0166 28.5568 20.9483 28.5397 20.8289 28.5227C20.7095 28.5056 20.7266 28.2327 20.7095 28.0792C20.6754 27.6868 20.6583 27.2944 20.6754 26.9021C20.6754 26.7997 20.7095 26.6632 20.7948 26.595C20.9142 26.5268 21.0848 26.5438 21.2213 26.5609C21.4942 26.6121 21.7501 26.7485 22.0401 26.7997C22.1936 26.8338 22.3642 26.8168 22.5178 26.7656C22.6542 26.7315 22.7566 26.6291 22.876 26.578C22.9442 26.5609 23.0295 26.5438 23.0807 26.578C23.3025 26.6974 23.456 26.9191 23.6778 27.0044C23.9678 27.0897 24.2748 27.0556 24.5819 27.0727C24.8207 27.0727 25.0596 27.0385 25.2984 27.0727C25.4007 27.0897 25.5713 27.1068 25.6055 27.2262C25.6396 27.3797 25.3837 27.5162 25.4178 27.6697C25.486 27.9086 25.759 28.028 25.8784 28.2327C25.9296 28.318 25.9125 28.4203 25.8784 28.5056C25.8443 28.5739 25.7249 28.5909 25.6737 28.6592C25.6055 28.7615 25.5884 28.8809 25.5202 28.9833C25.4519 29.0856 25.3496 29.1709 25.2472 29.2562C25.0254 29.4268 24.8037 29.5974 24.5478 29.7339C24.4625 29.7851 24.309 29.6827 24.2748 29.768C24.2066 29.9215 24.1384 30.1092 24.0701 30.2115C24.0019 30.3139 23.9166 30.3309 23.8654 30.3821C23.8143 30.4504 23.746 30.5698 23.7801 30.5868C23.8143 30.6039 24.1384 30.6039 24.2578 30.5868C24.3772 30.5698 24.4454 30.5527 24.4796 30.5356C24.5137 30.5015 24.4625 30.3992 24.4284 30.1945C24.4113 29.9898 24.9743 29.9045 25.2472 29.7509C25.5372 29.5633 25.8272 29.3586 26.1172 29.188C26.2366 29.1198 26.4072 29.1027 26.5096 29.0003C26.5608 28.9492 26.5437 28.8639 26.5437 28.7956C26.5437 28.625 26.5096 28.4544 26.5096 28.2839C26.5096 28.1986 26.5096 28.0962 26.5778 28.045C26.629 27.9939 26.7313 27.9768 26.7825 28.0109C26.8849 28.0621 26.9019 28.2156 26.9872 28.2839C27.1237 28.3862 27.2943 28.4203 27.4478 28.4886C27.5843 28.5568 27.8231 28.5568 27.8402 28.6933C27.8743 28.9492 27.7037 29.188 27.6014 29.4098C27.5502 29.5292 27.4308 29.5974 27.3625 29.7168C27.3284 29.7851 27.3284 29.8703 27.2772 29.9215C27.1408 30.058 26.9531 30.1433 26.8166 30.2798C26.7143 30.3821 26.629 30.4845 26.5778 30.6039C26.5437 30.6721 26.5266 30.7404 26.4925 30.8086C26.4413 30.8768 26.356 30.8939 26.3049 30.9962C26.2537 31.0986 26.1343 31.3715 26.2366 31.3545C26.339 31.3374 26.9361 31.2351 26.9531 31.1668C26.9702 31.1157 26.919 30.9621 26.8849 30.7745C26.8508 30.5868 27.2772 30.4504 27.4819 30.3309C27.6014 30.2627 27.7719 30.2968 27.8743 30.2115C27.9425 30.1604 27.9084 30.0409 27.9255 29.9727C27.9767 29.8533 28.0108 29.7168 28.1131 29.6145C28.2325 29.478 28.4372 29.4268 28.5396 29.2903C28.642 29.1197 28.7614 28.915 28.7273 28.7274C28.6931 28.5739 28.5055 28.5227 28.4031 28.4033C28.3178 28.318 28.2325 28.2156 28.1984 28.0962C28.1472 27.9256 28.1131 27.755 28.1643 27.5844C28.2325 27.3797 28.4372 27.2433 28.5567 27.0727C28.659 26.9191 28.8125 26.7997 28.8637 26.6291C28.9149 26.4244 28.8125 26.2027 28.7955 25.9979C28.7955 25.9638 28.7614 25.9127 28.7955 25.8785C28.932 25.7591 29.0855 25.6056 29.2731 25.5715C29.4437 25.5544 29.5802 25.725 29.7508 25.7591C29.9214 25.7762 30.1261 25.7932 30.2967 25.725C30.3479 25.7079 30.3649 25.5885 30.3308 25.5374C30.2114 25.435 29.9555 25.4691 29.9043 25.3326C29.8702 25.2132 30.109 25.1791 30.1773 25.0597C30.2626 24.9062 30.3308 24.7356 30.3308 24.5479C30.3308 24.4797 30.1943 24.4797 30.1432 24.5138C30.0579 24.565 30.0579 24.6844 29.9896 24.7526C29.9384 24.8038 29.8531 24.8209 29.7849 24.8209C29.7167 24.8209 29.6143 24.7868 29.5802 24.7356C29.529 24.6844 29.4949 24.565 29.5461 24.5309C29.6826 24.4456 29.8702 24.4797 30.0237 24.4456C30.092 24.4285 30.1773 24.4115 30.2114 24.3603C30.2626 24.2579 30.2626 24.1385 30.2114 24.0362C30.1943 23.985 30.109 23.985 30.0579 24.002C29.9896 24.0191 29.9555 24.1215 29.8702 24.1215C29.7679 24.1215 29.6655 24.0703 29.5973 24.002C29.5461 23.9338 29.529 23.8315 29.5631 23.7632C29.6143 23.6438 29.7849 23.6097 29.8361 23.4903C29.9043 23.3367 29.9555 23.1491 29.9214 22.9785C29.9043 22.9103 29.7679 22.8761 29.7167 22.9273C29.6314 22.9785 29.6484 23.0979 29.5973 23.1662C29.529 23.2685 29.4949 23.422 29.3926 23.4732C29.3243 23.5073 29.2049 23.4391 29.1878 23.3538C29.1537 23.2173 29.239 23.0809 29.2731 22.9614C29.3243 22.825 29.3926 22.6885 29.4778 22.5691C29.5631 22.4497 29.7337 22.3985 29.802 22.262C29.8531 22.1597 29.9043 22.0232 29.8361 21.9379C29.7849 21.8697 29.6655 21.9208 29.5973 21.972C29.5461 22.0061 29.5631 22.1255 29.512 22.1597C29.3584 22.2279 29.1708 22.1767 29.0343 22.245C28.9149 22.3132 28.8637 22.4326 28.7955 22.552C28.6761 22.7567 28.659 23.115 28.6078 23.1491C28.5567 23.2003 28.4372 23.1832 28.4031 23.115C28.352 23.0297 28.4372 22.8932 28.369 22.8079C28.3178 22.7567 28.1814 22.7567 28.1302 22.8079C28.0619 22.8761 28.0449 22.9785 28.0449 23.0809C28.0449 23.2344 28.0619 23.3879 28.1302 23.5244C28.2496 23.7462 28.4373 23.9167 28.5908 24.1215C28.7443 24.3262 28.932 24.5138 29.0173 24.7526C29.0684 24.9062 29.0855 25.0938 29.0173 25.2303C28.9661 25.3668 28.8296 25.5032 28.6931 25.5032C28.5055 25.4862 28.369 25.2815 28.2155 25.1791C28.0619 25.0768 27.9084 24.9403 27.7378 24.9062C27.3455 24.8379 26.9361 24.9062 26.5266 24.9062C26.1684 24.9062 25.7931 24.9573 25.4349 24.9062C25.2643 24.8891 25.0766 24.8209 24.9572 24.7015C24.8378 24.582 24.7525 24.4115 24.7525 24.2579C24.7354 24.0362 24.8207 23.8315 24.906 23.6267C24.9743 23.4903 25.0766 23.3538 25.2131 23.2685C25.3154 23.2003 25.486 23.1662 25.5884 23.2003C25.7078 23.2514 26.0319 23.695 26.1002 23.6779C26.1684 23.6609 26.1172 23.2685 26.0831 23.1491C26.0149 22.9614 25.8102 22.8591 25.759 22.6714C25.7419 22.6203 25.8272 22.552 25.8784 22.552C25.9807 22.552 26.1002 22.6203 26.1855 22.7056C26.2366 22.7397 26.4584 23.0638 26.5096 23.0467C26.5608 23.0297 26.4755 22.5861 26.4243 22.4497C26.339 22.262 26.066 22.1255 26.049 22.0744C26.0319 22.0403 26.049 22.0061 26.1002 21.9891C26.2025 21.9891 26.3049 22.0403 26.4072 22.0744C26.4925 22.1085 26.629 22.2108 26.6802 22.1938C26.7313 22.1767 26.6802 22.0232 26.629 21.955C26.4413 21.7332 26.1855 21.5967 25.9978 21.392C25.8955 21.2897 25.7931 21.1532 25.7931 20.9997C25.7931 20.9144 25.8955 20.8291 25.9808 20.7949C26.1343 20.7267 26.339 20.6926 26.4755 20.6073C26.5266 20.5732 26.4925 20.5391 26.4413 20.522C26.2196 20.4367 25.9807 20.4026 25.7419 20.4026C25.6055 20.4026 25.486 20.4879 25.3496 20.522C25.2643 20.5561 25.179 20.6073 25.0766 20.6073C24.906 20.6073 24.7184 20.6244 24.599 20.522C24.5307 20.4538 24.616 20.3173 24.6672 20.2149C24.7184 20.1296 24.8037 20.0785 24.8719 20.0102C24.9231 19.9591 25.0766 19.9079 25.0254 19.8908C24.9743 19.8738 24.7013 19.8738 24.5478 19.9249C24.4113 19.9591 24.2919 20.0102 24.1896 20.1126C24.1043 20.1979 24.1213 20.3855 24.0019 20.4367C23.7972 20.5561 23.6948 20.522 23.4731 20.6244C23.4219 20.6585 23.3025 20.7949 23.2513 20.812C22.9784 20.8461 22.4325 20.7097 22.4154 20.7608C22.3813 20.812 22.8419 21.0679 22.9272 21.3067C22.9613 21.4091 22.7054 21.2555 22.6031 21.2726C22.4325 21.2897 22.2619 21.3238 22.1254 21.392C21.9889 21.4602 21.8695 21.5797 21.7672 21.6991C21.6648 21.8014 21.6136 21.9379 21.4942 22.0232C21.443 22.0573 21.3236 22.0061 21.2895 22.0573C21.2383 22.1256 21.2213 22.2791 21.3066 22.2791L21.7842 22.3132C21.8695 22.3132 21.6989 22.5008 21.7501 22.5861C21.7842 22.6373 21.9036 22.6203 21.9548 22.5861C22.0231 22.552 22.0572 22.4497 22.1425 22.3985C22.2278 22.3473 22.3131 22.2791 22.4154 22.2791C22.5348 22.2791 22.6884 22.3303 22.7395 22.4326C22.7907 22.535 22.6713 22.6544 22.6542 22.7567C22.6372 22.8761 22.7054 23.0297 22.6201 23.115C22.3642 23.3538 22.2789 23.1491 21.9036 23.6267C21.5966 24.002 21.7331 23.7973 21.6307 24.292C21.6136 24.3944 21.5966 24.4968 21.5113 24.565C21.426 24.6162 21.2895 24.6503 21.2042 24.5991C21.0336 24.5138 20.9313 24.3432 20.8119 24.1726C20.7436 24.0873 20.7777 23.9338 20.6925 23.8656C20.573 23.7973 20.4025 23.7973 20.266 23.8315C20.1636 23.8656 20.1124 23.985 20.0613 24.0703C19.9248 24.2579 19.8224 24.4797 19.703 24.6673C19.6007 24.8209 19.4642 24.9573 19.3789 25.1109C19.3277 25.1962 19.3618 25.2985 19.3107 25.3838C19.2083 25.6227 19.123 25.8444 19.0036 26.0662C18.9524 26.1515 18.8501 26.2027 18.816 26.305C18.7989 26.4074 18.833 26.6291 18.8842 26.6291C18.9354 26.6291 19.106 26.5097 19.2083 26.4415C19.3277 26.3903 19.5495 26.3221 19.5666 26.288C19.5836 26.2538 19.4471 26.1344 19.3789 26.0491C19.2595 25.8956 19.5154 25.6738 19.6177 25.5032C19.6519 25.435 19.7371 25.4179 19.7713 25.3497C19.8395 25.2132 19.8566 25.0426 19.9248 24.9062C20.0101 24.7185 20.1124 24.5309 20.2489 24.3944C20.3172 24.3262 20.4366 24.275 20.5219 24.3432C20.6583 24.4285 20.6754 24.6162 20.7607 24.7697C20.8289 24.8721 20.9142 24.9744 20.9483 25.0938C20.9825 25.1962 20.8801 25.3326 20.9483 25.4179C21.0336 25.5203 21.2042 25.5544 21.3407 25.5715L21.6478 25.6056L21.6819 26.0321C21.6989 26.1856 21.3578 26.0662 21.2042 26.1003C21.0678 26.1344 20.9313 26.1856 20.7777 26.2197C20.6413 26.2538 20.3854 26.1344 20.3513 26.288C20.2319 26.885 20.3854 27.4821 20.4195 28.0792C20.4195 28.2327 20.3342 28.4886 20.4877 28.5568L20.7777 28.6762C20.8289 28.7956 20.863 28.9492 20.9313 29.0345C20.9142 29.1197 20.9995 29.1368 21.0678 29.1539Z" fill="black" fill-opacity="0.25"/>
<path d="M30.4674 17.7754C30.4674 17.656 30.3822 17.6049 30.2286 17.6049H29.6486C29.4951 17.6049 29.4098 17.656 29.4098 17.7754C29.4098 17.8949 29.4951 17.946 29.6486 17.946H29.768V19.0208C29.768 19.2084 29.8192 19.2937 29.9386 19.2937C30.058 19.2937 30.1092 19.2084 30.1092 19.0208V17.946H30.2286C30.3992 17.946 30.4674 17.8949 30.4674 17.7754ZM28.8127 18.1507C28.8127 18.2872 28.7445 18.3555 28.608 18.3555H28.4545V17.946H28.608C28.7445 17.946 28.8127 18.0143 28.8127 18.1507ZM29.188 19.1231C29.188 19.0549 29.1539 18.9866 29.0857 18.9013L28.8127 18.5602C29.0345 18.509 29.171 18.3384 29.171 18.0996C29.171 17.7925 28.9663 17.5707 28.608 17.5707H28.3521C28.1645 17.5707 28.1133 17.656 28.1133 17.8437V19.0037C28.1133 19.1913 28.1645 19.2766 28.2839 19.2766C28.4033 19.2766 28.4545 19.1913 28.4545 19.0037V18.5943L28.8468 19.1572C28.9151 19.2425 28.9663 19.2937 29.0345 19.2937C29.1198 19.2937 29.188 19.2255 29.188 19.1231ZM27.3798 18.5943H27.0215L27.2092 17.9802L27.3798 18.5943ZM27.8574 19.1061C27.8574 19.0719 27.8574 19.0378 27.8404 18.9866L27.4651 17.7925C27.4139 17.656 27.3286 17.5707 27.2092 17.5707C27.0898 17.5707 27.0045 17.656 26.9533 17.8096L26.5609 18.9866C26.5439 19.0208 26.5439 19.0549 26.5439 19.089C26.5439 19.1913 26.6121 19.2766 26.6974 19.2766C26.7656 19.2766 26.8339 19.2255 26.868 19.1061L26.9192 18.9355H27.4651L27.4992 19.089C27.5333 19.2084 27.5845 19.2766 27.6698 19.2766C27.7892 19.2937 27.8574 19.2255 27.8574 19.1061ZM26.305 18.509C26.305 18.3213 26.2368 18.2531 26.1003 18.2531H25.8786C25.7421 18.2531 25.6739 18.3043 25.6739 18.4237C25.6739 18.5431 25.7421 18.5943 25.8786 18.5943H25.9809C25.9809 18.799 25.8786 18.9355 25.708 18.9355C25.5203 18.9355 25.3839 18.7308 25.3839 18.4066C25.3839 18.0825 25.5203 17.8949 25.708 17.8949C25.8956 17.8949 25.9809 18.0484 26.0662 18.0484C26.1345 18.0484 26.2027 17.9631 26.2027 17.8778C26.2027 17.7072 26.015 17.5366 25.725 17.5366C25.3156 17.5366 25.0597 17.8778 25.0597 18.4237C25.0597 18.9525 25.3156 19.3108 25.6909 19.3108C26.0662 19.3108 26.305 18.9696 26.305 18.509ZM24.9744 17.7754C24.9744 17.656 24.8891 17.6049 24.7356 17.6049H24.1556C24.0021 17.6049 23.9168 17.656 23.9168 17.7754C23.9168 17.8949 24.0021 17.946 24.1556 17.946H24.275V19.0208C24.275 19.2084 24.3262 19.2937 24.4456 19.2937C24.565 19.2937 24.6162 19.2084 24.6162 19.0208V17.946H24.7356C24.8891 17.946 24.9744 17.8949 24.9744 17.7754ZM23.8485 17.7754C23.8485 17.656 23.7632 17.6049 23.6097 17.6049H23.0297C22.8762 17.6049 22.7909 17.656 22.7909 17.7754C22.7909 17.8949 22.8762 17.946 23.0297 17.946H23.1491V19.0208C23.1491 19.2084 23.2003 19.2937 23.3197 19.2937C23.4391 19.2937 23.4903 19.2084 23.4903 19.0208V17.946H23.6097C23.7632 17.946 23.8485 17.8949 23.8485 17.7754ZM22.5862 18.5431V17.8437C22.5862 17.656 22.535 17.5707 22.4156 17.5707C22.2962 17.5707 22.245 17.656 22.245 17.8437V18.509C22.245 18.799 22.1426 18.9525 21.955 18.9525C21.7673 18.9525 21.665 18.799 21.665 18.509V17.8437C21.665 17.656 21.6138 17.5707 21.4944 17.5707C21.375 17.5707 21.3238 17.656 21.3238 17.8437V18.5431C21.3238 19.0378 21.5626 19.3108 21.955 19.3108C22.3303 19.3108 22.5862 19.0378 22.5862 18.5431ZM21.1873 17.7754C21.1873 17.656 21.102 17.6049 20.9485 17.6049H20.3685C20.215 17.6049 20.1297 17.656 20.1297 17.7754C20.1297 17.8949 20.215 17.946 20.3685 17.946H20.4879V19.0208C20.4879 19.2084 20.5391 19.2937 20.6585 19.2937C20.7779 19.2937 20.8291 19.2084 20.8291 19.0208V17.946H20.9485C21.102 17.946 21.1873 17.8949 21.1873 17.7754ZM20.0103 18.7478C20.0103 18.4919 19.8738 18.3384 19.6008 18.236C19.4303 18.1678 19.3279 18.1507 19.3279 18.0313C19.3279 17.946 19.3961 17.8949 19.4985 17.8949C19.5838 17.8949 19.6861 17.946 19.7544 17.946C19.8567 17.946 19.9079 17.8778 19.9079 17.7925C19.9079 17.656 19.7544 17.5537 19.4985 17.5537C19.1744 17.5537 18.9697 17.7754 18.9697 18.0825C18.9697 18.3384 19.1061 18.4578 19.3791 18.5602C19.5326 18.6113 19.635 18.6625 19.635 18.799C19.635 18.9013 19.5667 18.9696 19.4644 18.9696C19.3108 18.9696 19.1914 18.8843 19.1061 18.8843C19.0038 18.8843 18.9355 18.9525 18.9355 19.0549C18.9355 19.1913 19.1403 19.3278 19.4132 19.3278C19.7885 19.3108 20.0103 19.0719 20.0103 18.7478Z" fill="black" fill-opacity="0.25"/>
</g>
<defs>
<clipPath id="clip0_106_114">
<rect width="50" height="50" fill="white"/>
</clipPath>
</defs>
</svg>
