<svg width="37" height="46" viewBox="0 0 37 46" fill="none" xmlns="http://www.w3.org/2000/svg">
<g clip-path="url(#clip0_404_22)">
<path fill-rule="evenodd" clip-rule="evenodd" d="M2.11621 39.399V2.9785C2.11621 2.9785 2.2434 0.943002 1.15652 0.253002V1.7781e-06H15.2628C16.4917 -0.000504841 17.7183 0.10725 18.9281 0.322002C20.7137 0.636776 22.3762 1.43905 23.7299 2.63922C25.0836 3.8394 26.0752 5.39022 26.594 7.1185C27.1401 8.88938 27.2634 10.7625 26.9543 12.5891C26.6452 14.4157 25.9122 16.1455 24.8134 17.641C23.75 19.0062 22.5009 20.2177 21.1018 21.2405C20.7896 21.459 20.6046 21.574 20.2809 21.781C22.1477 24.5859 23.6658 27.6056 24.8018 30.774C25.7708 33.5402 26.5019 36.3833 26.9871 39.2725C27.2878 41.6645 28.0046 41.906 28.1434 41.952V42.2165H19.7028V41.952C19.9571 41.814 22.2465 40.802 22.2581 37.2715C22.1622 34.2846 21.5522 31.3363 20.4543 28.5545C19.762 26.6492 18.9392 24.7933 17.9915 23C16.3656 23.6506 14.6815 24.1473 12.9618 24.4835C11.8634 24.6905 10.7534 24.863 9.37746 25.0125C8.00152 25.162 7.06496 25.231 6.3134 25.277V39.422C6.3134 39.7325 6.39434 41.4 7.46965 41.975V42.2395H0.959961V41.975C2.01215 41.423 2.11621 39.7325 2.11621 39.422M15.4478 2.392H6.27871V22.655C8.2645 22.5483 10.2354 22.2517 12.164 21.7695C18.8471 19.803 22.0384 15.1685 22.0846 9.706C22.0846 6.532 20.9284 4.5885 19.7721 3.5535C19.0223 2.97946 18.1324 2.61429 17.1937 2.4955C16.6307 2.41763 16.0624 2.38303 15.494 2.392M14.569 24.748V26.887C16.0277 26.7987 17.4795 26.6221 18.9165 26.358C19.3096 27.255 19.6565 28.106 19.8993 28.7615V28.8535C19.1709 28.98 18.3962 29.0835 17.5868 29.1755C16.4306 29.3135 15.2743 29.3825 14.5921 29.4285V43.2285C14.5921 43.5275 14.6615 45.1605 15.7484 45.724V46H9.35434V45.747C10.3834 45.2065 10.5106 43.5505 10.5106 43.2515V25.484C11.883 25.3092 13.2454 25.0635 14.5921 24.748M22.9981 25.024C25.113 24.1082 26.9104 22.594 28.1665 20.6699C29.4227 18.7457 30.0821 16.4966 30.0628 14.2025C30.0628 11.086 28.9875 9.2 27.7503 8.165L27.5306 8.05C27.4381 7.682 27.3456 7.3255 27.23 6.9805C26.9949 6.28243 26.7009 5.60536 26.3512 4.9565C26.5709 4.9565 26.779 5.0255 26.9756 5.06C28.7254 5.37195 30.3545 6.15892 31.6828 7.33397C33.0112 8.50902 33.9871 10.0264 34.5028 11.7185C35.0425 13.4597 35.1657 15.3023 34.8625 17.0992C34.5594 18.8962 33.8383 20.5978 32.7568 22.0685C31.7126 23.4037 30.4868 24.588 29.1146 25.5875C28.814 25.806 28.629 25.921 28.3168 26.128C30.1446 28.8743 31.6279 31.8326 32.7337 34.937C33.682 37.6489 34.4052 40.4336 34.8959 43.263C35.1734 45.563 35.8787 45.793 36.0521 45.839V46H27.7503V45.747C28.0046 45.6205 30.2478 44.7005 30.2593 41.216C30.1752 38.2881 29.5806 35.397 28.5018 32.6715C27.7992 30.8113 26.9765 28.9982 26.039 27.2435C25.6228 27.4275 25.0215 27.6345 24.3625 27.853C23.9346 26.864 23.4953 25.967 22.9981 25.0585M21.125 7.0265H14.569V20.1825C13.7318 20.5729 12.8659 20.8997 11.979 21.16C11.4883 21.3042 10.9905 21.4232 10.4875 21.5165V7.6015C10.4875 7.6015 10.6031 5.612 9.48152 4.9335V4.6805H19.9687C20.5092 5.3598 20.9029 6.14283 21.125 6.9805" fill="black" fill-opacity="0.25"/>
</g>
<defs>
<clipPath id="clip0_404_22">
<rect width="37" height="46" fill="white"/>
</clipPath>
</defs>
</svg>
