<svg width="50" height="50" viewBox="0 0 50 50" fill="none" xmlns="http://www.w3.org/2000/svg">
<path d="M37.4167 32.1542C37.3208 32.1312 37.2209 32.1312 37.125 32.1542H37.4167Z" fill="#FD375F"/>
<path d="M49.8573 43.5328L40.0767 33.6325C41.0309 31.2179 40.5538 28.0787 38.4068 26.147C36.2599 23.9738 33.1587 23.4908 30.5346 24.6982L35.0671 29.2861L31.7274 32.6667L26.9564 27.8373C25.7636 30.4934 26.2407 33.6325 28.3877 36.0472C30.5346 38.2205 33.3973 38.7034 35.7828 37.7375L45.5634 47.6378C46.0405 48.1207 46.7562 48.1207 46.9947 47.6378L49.3802 45.2231C50.0959 44.4987 50.0959 43.7743 49.8573 43.5328ZM26.2407 40.6352H0V35.8058C0 30.4934 8.58786 26.147 19.0841 26.147C20.2769 26.147 21.4697 26.147 22.4239 26.3885C21.7082 27.8373 21.4697 29.2861 21.4697 30.9764C21.4697 34.8399 23.3781 38.4619 26.2407 40.6352ZM19.0841 2C13.836 2 9.54207 6.34646 9.54207 11.6588C9.54207 16.9711 13.836 21.3176 19.0841 21.3176C24.3323 21.3176 28.6262 16.9711 28.6262 11.6588C28.6262 6.34646 24.3323 2 19.0841 2Z" fill="#FD375F"/>
</svg>
