<svg width="50" height="50" viewBox="0 0 50 50" fill="none" xmlns="http://www.w3.org/2000/svg">
<path d="M2.60449 23.5417C2.60449 11.326 12.7087 1.5625 25.0003 1.5625C37.292 1.5625 47.3962 11.326 47.3962 23.5417V32.3833C47.3962 32.5743 47.3868 32.7628 47.368 32.949C47.3868 33.074 47.3962 33.2021 47.3962 33.3333C47.3962 35.3854 47.143 37.6219 46.8962 39.3302C46.5087 42.0042 44.9264 44.6562 42.0295 45.8031C38.9118 47.0385 33.4982 48.4375 25.0003 48.4375C24.3097 48.4375 23.6473 48.1631 23.1589 47.6748C22.6705 47.1864 22.3962 46.524 22.3962 45.8333C22.3962 45.1427 22.6705 44.4803 23.1589 43.9919C23.6473 43.5035 24.3097 43.2292 25.0003 43.2292C32.9201 43.2292 37.6722 41.9271 40.1118 40.9615C40.9055 40.6469 41.5597 39.8396 41.741 38.5844C41.7639 38.4253 41.7864 38.2635 41.8087 38.099C40.3441 38.425 38.6524 38.7396 36.9701 38.9156C34.7597 39.1479 32.6045 37.8156 32.2014 35.4156C31.966 34.0198 31.7712 32.0062 31.7712 29.1656C31.7712 26.3271 31.966 24.3146 32.2014 22.9177C32.6045 20.5177 34.7597 19.1854 36.9701 19.4177C37.8576 19.5104 38.7482 19.6417 39.6055 19.7927C37.9097 13.5385 32.066 8.85417 25.0003 8.85417C17.9347 8.85417 12.092 13.5385 10.3951 19.7927C11.269 19.6374 12.148 19.5123 13.0305 19.4177C15.241 19.1854 17.3962 20.5177 17.8003 22.9177C18.0347 24.3135 18.2295 26.3271 18.2295 29.1667C18.2295 32.0062 18.0347 34.0187 17.8003 35.4156C17.3962 37.8156 15.241 39.1479 13.0305 38.9156C10.741 38.676 8.43678 38.1812 6.70762 37.749C4.20762 37.1229 2.60449 34.8563 2.60449 32.3844V23.5417Z" fill="#FD375F"/>
</svg>
