<svg width="50" height="50" viewBox="0 0 50 50" fill="none" xmlns="http://www.w3.org/2000/svg">
<path d="M37.4167 32.1542C37.3208 32.1312 37.2209 32.1312 37.125 32.1542H37.4167Z" fill="#FD375F"/>
<path d="M26.2716 3.23029C26.043 3.08012 25.7746 3 25.5 3C25.2254 3 24.957 3.08012 24.7284 3.23029C19.4693 6.73014 13.4744 9.00649 7.19507 9.88793C6.86329 9.93491 6.55981 10.0984 6.34029 10.3485C6.12077 10.5985 5.99996 10.9183 6 11.2492V23.6239C6 34.324 12.4266 42.1311 24.9986 46.9078C25.3213 47.0307 25.6787 47.0307 26.0014 46.9078C38.5734 42.1311 45 34.3213 45 23.6239V11.2492C45 10.9179 44.8787 10.5977 44.6587 10.3477C44.4386 10.0976 44.1344 9.93431 43.8021 9.88793C37.5238 9.00609 31.5299 6.72975 26.2716 3.23029ZM36.2361 19.0975L25.0933 30.0973C24.9639 30.2254 24.8102 30.327 24.641 30.3963C24.4718 30.4656 24.2904 30.5013 24.1071 30.5013C23.9239 30.5013 23.7425 30.4656 23.5733 30.3963C23.4041 30.327 23.2504 30.2254 23.121 30.0973L17.5496 24.5974C17.288 24.3392 17.1411 23.9891 17.1411 23.6239C17.1411 23.2588 17.288 22.9086 17.5496 22.6505C17.8111 22.3923 18.1658 22.2472 18.5357 22.2472C18.9056 22.2472 19.2603 22.3923 19.5219 22.6505L24.1071 27.1796L34.2639 17.1506C34.3934 17.0227 34.5471 16.9213 34.7163 16.8521C34.8855 16.7829 35.0669 16.7473 35.25 16.7473C35.4331 16.7473 35.6145 16.7829 35.7837 16.8521C35.9529 16.9213 36.1066 17.0227 36.2361 17.1506C36.3656 17.2784 36.4684 17.4302 36.5385 17.5972C36.6085 17.7642 36.6446 17.9432 36.6446 18.124C36.6446 18.3048 36.6085 18.4839 36.5385 18.6509C36.4684 18.8179 36.3656 18.9697 36.2361 19.0975Z" fill="#FD375F"/>
</svg>
